<svg width="155" height="78" viewBox="0 0 155 78" fill="none" xmlns="http://www.w3.org/2000/svg">
<g clip-path="url(#clip0_360_1237)">
<path d="M35.6963 18.9492C37.8932 18.1843 40.2779 18.1435 42.5 18.832C44.7219 19.5206 46.6654 20.9024 48.0449 22.7754C49.4243 24.6484 50.1676 26.9141 50.166 29.2402V29.2461C50.1729 29.91 50.1114 30.5723 49.9893 31.2246L40.1748 39.835L30.5264 35.4385L28.7021 31.5371L30.3496 23C31.6611 21.1216 33.5311 19.7031 35.6963 18.9492Z" stroke="white"/>
<path d="M19.9758 48.793C19.9689 48.1142 20.0294 47.4368 20.1526 46.7695L29.7356 38.127L39.4299 42.5449L41.5149 46.5332L39.8899 55.0176C38.5773 56.9087 36.7023 58.339 34.5286 59.1016C32.3239 59.8748 29.9287 59.922 27.6956 59.2354C25.4625 58.5487 23.5077 57.1644 22.1184 55.2861C20.7292 53.4079 19.9787 51.134 19.9758 48.7979V48.793Z" stroke="white"/>
<path d="M24.8064 22.1738C25.7799 22.1828 26.7268 22.4787 27.531 23.0195L26.1687 30.0586L20.0164 28.6025C19.7266 27.6632 19.7218 26.6563 20.0056 25.7109C20.3149 24.681 20.9504 23.7794 21.8162 23.1416C22.6819 22.5038 23.7311 22.164 24.8064 22.1738Z" stroke="white"/>
<path d="M26.2871 32.9106L27.8047 36.1626L18.5918 44.4878C17.3341 43.9475 16.2558 43.0567 15.4893 41.9175C14.6662 40.6942 14.2424 39.246 14.2764 37.772C14.3104 36.2979 14.8001 34.8701 15.6787 33.686C16.5302 32.5386 17.7068 31.6753 19.0537 31.2046L26.2871 32.9106Z" stroke="white"/>
<path d="M50.1609 49.4155C50.4458 50.352 50.4497 51.3535 50.1658 52.2944C49.8563 53.3198 49.2236 54.2177 48.3621 54.854C47.5004 55.4903 46.4557 55.8307 45.3845 55.8247C44.4157 55.8193 43.4724 55.5305 42.6687 54.9976L44.031 47.978L50.1609 49.4155Z" stroke="white"/>
<path d="M51.5635 33.5273C52.8239 34.0673 53.9041 34.9605 54.6719 36.1016C55.4949 37.3247 55.9187 38.7732 55.8848 40.2471C55.8508 41.7211 55.3601 43.149 54.4814 44.333C53.6298 45.4805 52.4536 46.3438 51.1064 46.8145L43.8594 45.123L42.1348 41.791L51.5635 33.5273Z" stroke="white"/>
<path d="M76.5669 48.3105L77.4843 48.2129L77.5428 50.0867C75.4874 50.393 73.4139 50.5625 71.336 50.5942C69.0523 50.5942 67.4323 49.9305 66.4759 48.6033C65.5195 47.276 65.051 45.2071 65.051 42.4159C65.051 36.8337 67.2696 34.0425 71.7068 34.0425C73.8538 34.0425 75.4543 34.6476 76.5083 35.8382C77.5623 37.0289 78.0893 38.9221 78.0893 41.4791L77.9527 43.2943H67.4518C67.4518 45.0509 67.7641 46.3587 68.4082 47.198C69.0523 48.0372 70.1453 48.4666 71.7263 48.4666C73.3415 48.5017 74.9573 48.4496 76.5669 48.3105ZM75.7081 41.4205C75.7081 39.4687 75.3958 38.0829 74.7712 37.2826C74.1466 36.4823 73.1316 36.0725 71.7263 36.0725C70.321 36.0725 69.2475 36.5019 68.5448 37.3412C67.8422 38.1804 67.4713 39.5467 67.4518 41.4205H75.7081ZM81.4075 50.3014V27.4648H83.7887V50.3014H81.4075ZM98.8374 39.1954V47.0223C98.8374 47.8225 100.809 47.9787 100.809 47.9787L100.692 50.0867C99.013 50.0867 97.6272 50.2233 96.788 49.423C94.9867 50.2179 93.0379 50.6236 91.0691 50.6137C89.6052 50.6137 88.4926 50.2038 87.7314 49.3645C86.9702 48.5252 86.5798 47.3541 86.5798 45.7926C86.5798 44.2312 86.9702 43.0991 87.7509 42.3769C88.5317 41.6547 89.7613 41.1863 91.4399 41.0301L96.4366 40.5617V39.1954C96.4366 38.1219 96.2024 37.3412 95.734 36.8727C95.2655 36.4043 94.6214 36.1701 93.8212 36.1701H87.5557V34.0621H93.665C95.4607 34.0621 96.7684 34.472 97.5882 35.3112C98.408 36.1505 98.8374 37.4387 98.8374 39.1954ZM89.0391 45.6755C89.0391 47.6274 89.8394 48.6033 91.4594 48.6033C92.9085 48.6063 94.3475 48.3621 95.7144 47.8811L96.4366 47.6274V42.3769L91.7327 42.8258C90.7763 42.9039 90.0931 43.1772 89.6637 43.6456C89.2343 44.114 89.0391 44.7972 89.0391 45.6755ZM108.148 36.1896C105.844 36.1896 104.673 36.9898 104.673 38.6099C104.673 39.3516 104.947 39.8785 105.474 40.1908C106.001 40.5031 107.211 40.8154 109.104 41.1472C110.997 41.4791 112.325 41.928 113.105 42.5331C113.886 43.1381 114.276 44.2312 114.276 45.8707C114.276 47.5102 113.749 48.7009 112.695 49.4621C111.641 50.2233 110.119 50.6137 108.089 50.6137C106.781 50.6137 102.39 50.1257 102.39 50.1257L102.526 48.0568C105.044 48.291 106.879 48.4862 108.109 48.4862C109.338 48.4862 110.275 48.291 110.919 47.9006C111.563 47.5102 111.895 46.8466 111.895 45.9293C111.895 45.0119 111.622 44.3873 111.075 44.0555C110.529 43.7237 109.319 43.4114 107.445 43.1186C105.571 42.8258 104.244 42.3964 103.463 41.8109C102.683 41.2253 102.292 40.1713 102.292 38.6294C102.292 37.0874 102.839 35.9358 103.932 35.1941C105.025 34.4524 106.391 34.0816 108.011 34.0816C109.299 34.0816 113.788 34.4134 113.788 34.4134V36.5019C111.427 36.3652 109.494 36.1896 108.148 36.1896ZM125.792 36.4628H120.737V44.075C120.737 45.8902 120.874 47.1004 121.127 47.6664C121.381 48.2324 122.025 48.5252 123.021 48.5252L125.851 48.33L126.007 50.3014C124.937 50.4996 123.854 50.617 122.767 50.6527C121.108 50.6527 119.976 50.2428 119.332 49.4426C118.688 48.6423 118.375 47.1004 118.375 44.8362V36.4628H116.111V34.3939H118.375V29.5143H120.737V34.3744H125.792V36.4628ZM129.11 30.783V28.0309H131.492V30.8025L129.11 30.783ZM129.11 50.3014V34.3939H131.492V50.3014H129.11ZM141.836 34.0621C142.539 34.0621 143.73 34.1987 145.408 34.4524L146.17 34.55L146.072 36.4823C144.829 36.3206 143.578 36.2228 142.324 36.1896C140.529 36.1896 139.299 36.619 138.655 37.4778C138.011 38.3366 137.679 39.9371 137.679 42.2598C137.679 44.5825 137.972 46.2025 138.577 47.1199C139.182 48.0372 140.431 48.4862 142.344 48.4862L146.091 48.1934L146.189 50.1647C144.218 50.4575 142.734 50.6137 141.758 50.6137C139.28 50.6137 137.562 49.9696 136.625 48.7009C135.688 47.4322 135.2 45.2851 135.2 42.2598C135.2 39.2344 135.708 37.1069 136.723 35.8968C137.738 34.6867 139.455 34.0621 141.836 34.0621Z" fill="white"/>
</g>
<defs>
<clipPath id="clip0_360_1237">
<rect width="134.189" height="46" fill="white" transform="translate(12 16)"/>
</clipPath>
</defs>
</svg>
