<svg width="235" height="78" viewBox="0 0 235 78" fill="none" xmlns="http://www.w3.org/2000/svg">
<rect width="235" height="78" fill="white"/>
<path d="M96.935 33.3291H103.876C102.719 25.9012 96.3291 20.7275 88.0108 20.7275C78.1685 20.7275 70.7867 28.0076 70.7867 40.2027C70.7867 52.1761 77.838 59.6042 88.2128 59.6042C97.5227 59.6042 104.188 53.5804 104.188 43.8243V39.2789H88.929V44.6373H97.5961C97.4859 50.0327 93.9052 53.4511 88.2496 53.4511C81.9512 53.4511 77.636 48.7023 77.636 40.1288C77.636 31.6107 82.0247 26.8805 88.1027 26.8805C92.6382 26.8805 95.7231 29.3195 96.935 33.3291Z" fill="#171321"/>
<path d="M108.776 59.0868H115.423V30.7054H108.776V59.0868ZM112.118 26.211C114.23 26.211 115.955 24.585 115.955 22.5894C115.955 20.5754 114.23 18.9494 112.118 18.9494C109.988 18.9494 108.262 20.5754 108.262 22.5894C108.262 24.585 109.988 26.211 112.118 26.211Z" fill="#171321"/>
<path d="M135.328 30.7054H129.764V23.9057H123.117V30.7054H119.114V35.8791H123.117V51.6588C123.081 56.9988 126.936 59.6225 131.931 59.4747C133.822 59.4194 135.126 59.0498 135.842 58.8096L134.722 53.5805C134.355 53.6728 133.602 53.8391 132.776 53.8391C131.105 53.8391 129.764 53.2479 129.764 50.5502V35.8791H135.328V30.7054Z" fill="#171321"/>
<path d="M140.473 59.0868H163.848V53.3402H147.285V21.2449H140.473V59.0868Z" fill="#171321"/>
<path d="M176.579 59.6595C181.005 59.6595 183.649 57.5716 184.86 55.188H185.081V59.0867H191.471V40.0919C191.471 32.59 185.393 30.3358 180.013 30.3358C174.082 30.3358 169.528 32.9965 168.059 38.1702L174.266 39.0571C174.927 37.117 176.799 35.454 180.049 35.454C183.135 35.454 184.824 37.0431 184.824 39.8332V39.944C184.824 41.8657 182.822 41.9581 177.846 42.4939C172.374 43.0852 167.141 44.7297 167.141 51.1229C167.141 56.7031 171.199 59.6595 176.579 59.6595ZM178.764 54.7445C175.992 54.7445 174.009 53.4695 174.009 51.012C174.009 48.4437 176.231 47.372 179.205 46.947C180.95 46.7068 184.439 46.2633 185.302 45.5612V48.9056C185.302 52.0652 182.768 54.7445 178.764 54.7445Z" fill="#171321"/>
<path d="M196.375 59.0868H202.911V54.6152H203.297C204.344 56.6847 206.529 59.5855 211.377 59.5855C218.024 59.5855 223 54.2826 223 44.933C223 35.4725 217.877 30.3358 211.358 30.3358C206.382 30.3358 204.307 33.3476 203.297 35.3986H203.022V21.2449H196.375V59.0868ZM202.893 44.896C202.893 39.3898 205.244 35.8236 209.522 35.8236C213.947 35.8236 216.224 39.6115 216.224 44.896C216.224 50.2175 213.911 54.0978 209.522 54.0978C205.28 54.0978 202.893 50.4023 202.893 44.896Z" fill="#171321"/>
<path d="M58.6689 34.2075L58.6039 34.0364L52.1432 17.0749C52.0141 16.7426 51.782 16.4627 51.4798 16.2693C51.1786 16.075 50.8253 15.9834 50.467 16.0025C50.1108 16.0216 49.7686 16.1525 49.4893 16.3761C49.2121 16.6016 49.012 16.9067 48.9179 17.2511L44.5558 30.6852H26.9073L22.5452 17.2511C22.4511 16.9067 22.251 16.6016 21.9738 16.3761C21.6946 16.1525 21.3523 16.0216 20.9961 16.0025C20.6378 15.9834 20.2845 16.075 19.9833 16.2693C19.6811 16.4627 19.449 16.7426 19.3199 17.0749L12.8593 34.0374L12.7942 34.2075C10.8798 39.2323 12.511 44.9127 16.7741 48.1571C16.782 48.1622 16.7891 48.1682 16.7971 48.1743L16.8541 48.2176L26.6951 55.6309L31.5626 59.3386L34.5247 61.5922C35.2382 62.1359 36.2249 62.1359 36.9384 61.5922L39.9005 59.3386L44.767 55.6309L54.666 48.1743C54.6751 48.1672 54.6831 48.1612 54.6921 48.1541C58.9521 44.9097 60.5823 39.2313 58.6689 34.2075Z" fill="#E24329"/>
<path d="M58.6688 34.2076L58.6037 34.0364C55.3985 34.699 52.4464 36.0634 49.9186 37.9666C49.8775 37.9968 42.2371 43.8111 35.7314 48.7603C40.5619 52.4358 44.7669 55.6309 44.7669 55.6309L54.6659 48.1743C54.6749 48.1672 54.683 48.1612 54.6919 48.1541C58.952 44.9097 60.5822 39.2314 58.6688 34.2076Z" fill="#FC6D26"/>
<path d="M26.6951 55.631L31.5625 59.3386L34.5247 61.5922C35.2382 62.136 36.2249 62.136 36.9384 61.5922L39.9005 59.3386L44.7669 55.631C44.7669 55.631 40.562 52.4358 35.7315 48.7604C30.9001 52.4358 26.6951 55.631 26.6951 55.631Z" fill="#FCA326"/>
<path d="M21.5434 37.9666C19.0166 36.0644 16.0655 34.6989 12.8593 34.0374L12.7942 34.2075C10.8798 39.2323 12.511 44.9127 16.7741 48.1571C16.782 48.1622 16.7891 48.1682 16.7971 48.1743L16.8541 48.2175L26.6951 55.6309C26.6951 55.6309 30.9001 52.4358 35.7316 48.7603C29.2259 43.811 21.5845 37.9968 21.5434 37.9666Z" fill="#FC6D26"/>
</svg>
