<svg width="235" height="78" viewBox="0 0 235 78" fill="none" xmlns="http://www.w3.org/2000/svg">
<path d="M96.9349 33.3292H103.876C102.719 25.9012 96.3289 20.7275 88.0107 20.7275C78.1684 20.7275 70.7866 28.0077 70.7866 40.2028C70.7866 52.1762 77.8379 59.6042 88.2127 59.6042C97.5225 59.6042 104.188 53.5805 104.188 43.8243V39.2789H88.9288V44.6374H97.596C97.4858 50.0328 93.9051 53.4511 88.2494 53.4511C81.9511 53.4511 77.6359 48.7024 77.6359 40.1288C77.6359 31.6108 82.0245 26.8805 88.1025 26.8805C92.6381 26.8805 95.723 29.3196 96.9349 33.3292Z" fill="white"/>
<path d="M108.776 59.0866H115.423V30.7052H108.776V59.0866ZM112.118 26.2109C114.229 26.2109 115.955 24.5848 115.955 22.5893C115.955 20.5752 114.229 18.9492 112.118 18.9492C109.988 18.9492 108.261 20.5752 108.261 22.5893C108.261 24.5848 109.988 26.2109 112.118 26.2109Z" fill="white"/>
<path d="M135.328 30.7055H129.764V23.9058H123.117V30.7055H119.114V35.8792H123.117V51.6589C123.08 56.9989 126.936 59.6226 131.931 59.4748C133.822 59.4195 135.126 59.0498 135.842 58.8097L134.722 53.5806C134.355 53.6729 133.602 53.8392 132.776 53.8392C131.105 53.8392 129.764 53.248 129.764 50.5502V35.8792H135.328V30.7055Z" fill="white"/>
<path d="M140.473 59.0865H163.848V53.3399H147.285V21.2446H140.473V59.0865Z" fill="white"/>
<path d="M176.579 59.6592C181.004 59.6592 183.649 57.5713 184.86 55.1876H185.081V59.0864H191.471V40.0916C191.471 32.5897 185.393 30.3354 180.013 30.3354C174.082 30.3354 169.528 32.9962 168.059 38.1699L174.265 39.0568C174.926 37.1167 176.799 35.4537 180.049 35.4537C183.134 35.4537 184.824 37.0428 184.824 39.8329V39.9437C184.824 41.8654 182.822 41.9578 177.846 42.4936C172.374 43.0849 167.141 44.7294 167.141 51.1226C167.141 56.7028 171.199 59.6592 176.579 59.6592ZM178.764 54.7442C175.991 54.7442 174.008 53.4692 174.008 51.0117C174.008 48.4434 176.23 47.3717 179.205 46.9467C180.95 46.7065 184.439 46.263 185.301 45.5609V48.9053C185.301 52.0649 182.767 54.7442 178.764 54.7442Z" fill="white"/>
<path d="M196.375 59.0865H202.911V54.6149H203.297C204.344 56.6844 206.529 59.5852 211.377 59.5852C218.024 59.5852 223 54.2823 223 44.9327C223 35.4723 217.877 30.3355 211.358 30.3355C206.382 30.3355 204.307 33.3474 203.297 35.3983H203.022V21.2446H196.375V59.0865ZM202.893 44.8958C202.893 39.3895 205.244 35.8233 209.522 35.8233C213.947 35.8233 216.224 39.6112 216.224 44.8958C216.224 50.2173 213.911 54.0975 209.522 54.0975C205.28 54.0975 202.893 50.4021 202.893 44.8958Z" fill="white"/>
<path d="M58.6689 34.2075L58.6039 34.0364L52.1432 17.0749C52.0141 16.7426 51.782 16.4627 51.4798 16.2693C51.1786 16.075 50.8253 15.9834 50.467 16.0025C50.1108 16.0216 49.7686 16.1525 49.4893 16.3761C49.2121 16.6016 49.012 16.9067 48.9179 17.2511L44.5558 30.6852H26.9073L22.5452 17.2511C22.4511 16.9067 22.251 16.6016 21.9738 16.3761C21.6946 16.1525 21.3523 16.0216 20.9961 16.0025C20.6378 15.9834 20.2845 16.075 19.9833 16.2693C19.6811 16.4627 19.449 16.7426 19.3199 17.0749L12.8593 34.0374L12.7942 34.2075C10.8798 39.2323 12.511 44.9127 16.7741 48.1571C16.782 48.1622 16.7891 48.1682 16.7971 48.1743L16.8541 48.2176L26.6951 55.6309L31.5626 59.3386L34.5247 61.5922C35.2382 62.1359 36.2249 62.1359 36.9384 61.5922L39.9005 59.3386L44.767 55.6309L54.666 48.1743C54.6751 48.1672 54.6831 48.1612 54.6921 48.1541C58.9521 44.9097 60.5823 39.2313 58.6689 34.2075Z" fill="white"/>
<path d="M58.6688 34.2073L58.6037 34.0361C55.3985 34.6987 52.4464 36.0632 49.9186 37.9664C49.8775 37.9966 42.2371 43.8108 35.7314 48.7601C40.5619 52.4355 44.7669 55.6307 44.7669 55.6307L54.6659 48.174C54.6749 48.167 54.683 48.1609 54.6919 48.1539C58.952 44.9094 60.5822 39.2311 58.6688 34.2073Z" fill="white"/>
<path d="M26.6951 55.6308L31.5625 59.3385L34.5247 61.5921C35.2382 62.1359 36.2249 62.1359 36.9384 61.5921L39.9005 59.3385L44.7669 55.6308C44.7669 55.6308 40.562 52.4357 35.7315 48.7603C30.9001 52.4357 26.6951 55.6308 26.6951 55.6308Z" fill="white"/>
<path d="M21.5434 37.9668C19.0166 36.0646 16.0655 34.6992 12.8593 34.0376L12.7942 34.2078C10.8798 39.2326 12.511 44.9129 16.7741 48.1574C16.782 48.1624 16.7891 48.1685 16.7971 48.1745L16.8541 48.2178L26.6951 55.6311C26.6951 55.6311 30.9001 52.436 35.7316 48.7606C29.2259 43.8113 21.5845 37.997 21.5434 37.9668Z" fill="white"/>
</svg>
