<svg width="130" height="78" viewBox="0 0 130 78" fill="none" xmlns="http://www.w3.org/2000/svg">
<g clip-path="url(#clip0_360_1173)">
<path d="M12 16V19.1472H34.3845V16H12ZM37.556 16V19.1472H69.455C69.455 19.1472 66.1967 16 61.8813 16H37.556ZM75.7126 16V19.1472H95.011L93.8656 16H75.7126ZM108.847 16L107.702 19.1472H126.825V16H108.847ZM12 22.1205V25.2677H34.3845V22.1205H12ZM37.556 22.125V25.2678H73.1565C73.1565 25.2678 72.7408 22.8456 72.0155 22.125H37.556ZM75.7126 22.125V25.2678H97.1269L96.0667 22.125H75.7126ZM106.556 22.125L105.496 25.2678H126.825V22.125H106.556ZM18.4328 28.2411V31.3928H28.1269V28.2411H18.4328ZM43.9889 28.2411V31.3928H53.683V28.2411H43.9889ZM63.1121 28.2411V31.3928H72.8063C72.8063 31.3928 73.4217 29.7284 73.4217 28.2411H63.1121ZM82.1455 28.2411V31.3928H99.3326L98.1871 28.2411H82.1455ZM104.445 28.2411L103.295 31.3928H120.567V28.2411H104.445ZM18.4328 34.3662V37.5134H28.1269V34.3662H18.4328ZM43.9889 34.3662V37.5134H68.7497C68.7497 37.5134 70.8211 35.8986 71.481 34.3662H43.9889ZM82.1455 34.3662V37.5134H91.8397V35.7615L92.4551 37.5134H110.213L110.873 35.7615V37.5134H120.567V34.3662H102.369L101.404 37.0319L100.433 34.3662H82.1455ZM18.4328 40.4867V43.6339H28.1269V40.4867H18.4328ZM43.9889 40.4867V43.6339H71.481C70.821 42.1066 68.7497 40.4867 68.7497 40.4867H43.9889ZM82.1455 40.4867V43.6339H91.8397V40.4867H82.1455ZM93.6006 40.4867L94.773 43.6339H108.088L109.202 40.4867H93.6006ZM110.873 40.4867V43.6339H120.567V40.4867H110.873ZM18.4328 46.6072V49.7543H28.1269V46.6072H18.4328ZM43.9889 46.6072V49.7543H53.683V46.6072H43.9889ZM63.1121 46.6072V49.7543H73.4216C73.4216 48.2691 72.8061 46.6072 72.8061 46.6072H63.1121ZM82.1455 46.6072V49.7543H91.8397V46.6072H82.1455ZM95.8018 46.6072L96.9383 49.7543H105.864L107.01 46.6072H95.8018ZM110.873 46.6072V49.7543H120.567V46.6072H110.873ZM12.1751 52.7278V55.8795H34.5597V52.7278H12.1751ZM37.556 52.7278V55.8795H72.0155C72.7408 55.1578 73.1565 52.7278 73.1565 52.7278H37.556ZM75.8879 52.7278V55.8795H91.8397V52.7278H75.8879ZM98.0074 52.7278L99.1753 55.8795H103.717L104.813 52.7278H98.0074ZM110.873 52.7278V55.8795H127V52.7278H110.873ZM12.1751 58.8528V62H34.5597V58.8528H12.1751ZM37.556 58.8528V61.9955H61.8813C66.1967 61.9955 69.455 58.8528 69.455 58.8528H37.556ZM75.8879 58.8528V62H91.8397V58.8528H75.8879ZM100.222 58.8528L101.345 61.9911L101.538 61.9955L102.679 58.8528H100.222ZM110.873 58.8528V62H127V58.8528H110.873Z" fill="white"/>
</g>
<defs>
<clipPath id="clip0_360_1173">
<rect width="115" height="46" fill="white" transform="translate(12 16)"/>
</clipPath>
</defs>
</svg>
