<svg width="204" height="78" viewBox="0 0 204 78" fill="none" xmlns="http://www.w3.org/2000/svg">
<path d="M181.114 26.8119H176.056V23.9867H189.842V26.8119H184.783V41.0177H181.114V26.8119ZM160.519 23.9867H164.165V30.7953H170.59V23.9868H174.284V41.0177H170.636V33.5492H164.165V41.0177H160.519V23.9867ZM153.867 29.2159C153.843 28.7695 153.82 28.1555 153.396 27.497C152.691 26.3655 151.352 26.1772 150.551 26.1772C146.409 26.1772 145.587 30.0419 145.587 32.655C145.587 33.8087 145.75 35.8835 146.999 37.2256C147.846 38.1674 148.976 38.6864 150.996 38.6864C152.763 38.6864 153.374 38.4728 153.775 38.3572V34.7742H150.48V31.9491H157.42V40.4527C156.361 40.8056 154.621 41.3944 151.21 41.3944C147.329 41.3944 145.327 40.4527 143.986 39.1328C142.08 37.2716 141.731 34.5636 141.731 32.7736C141.731 26.7422 145.493 23.5151 150.645 23.5151C152.833 23.5151 155.09 24.1276 156.432 25.6581C157.562 26.9528 157.632 28.2979 157.657 29.2159L153.867 29.2159ZM135.751 23.9393H139.398V41.0178H135.751V23.9393ZM123.378 35.5766C123.378 36.3774 123.33 38.8036 126.46 38.8036C128.436 38.8036 129.683 37.8604 129.683 36.4234C129.683 34.9166 128.626 34.6586 126.46 34.1395C122.414 33.1251 120.202 31.9239 120.202 28.9801C120.202 26.1772 122.2 23.7035 126.93 23.7035C128.695 23.7035 130.788 24.1024 132.059 25.7056C133.023 26.9306 133.023 28.2979 133.023 28.8629H129.52C129.473 28.2727 129.282 26.2706 126.767 26.2706C125.072 26.2706 123.966 27.1886 123.966 28.5797C123.966 30.1591 125.213 30.4409 127.66 31.0534C130.601 31.7593 133.494 32.5616 133.494 35.8836C133.494 38.9445 130.952 41.4181 126.248 41.4181C119.731 41.4181 119.684 37.2257 119.662 35.5766H123.378ZM109.1 24.0564L112.606 31.8082L116.181 24.0564H119.921L114.18 34.8217V41.0177H110.581V34.7742L104.842 24.0564H109.1ZM91.8624 23.9867H103.248V26.7644H95.5089V30.8175H102.755V33.5967H95.509V38.1911H103.509V41.0177H91.8625L91.8624 23.9867ZM76.0736 24.0342H79.7201V31.3589L85.4136 23.9868H89.6718L83.4363 31.6183L90.2124 41.0177H85.6728L79.7202 32.348V41.0177H76.0737L76.0736 24.0342ZM180.909 53.4443C180.935 54.0939 181.012 55.2996 183.161 55.2996C185.106 55.2996 185.353 54.0939 185.353 53.6268C185.353 52.5753 184.511 52.3692 183.201 52.0444C181.777 51.6944 181.143 51.5372 180.661 51.2154C179.897 50.6948 179.69 49.9949 179.69 49.3705C179.69 47.4663 181.491 46.6343 183.252 46.6343C183.875 46.6343 185.133 46.7382 185.884 47.5553C186.401 48.1262 186.427 48.7625 186.455 49.151H185.106C185.041 47.9839 184.056 47.7243 183.138 47.7243C181.842 47.7243 181.064 48.3087 181.064 49.24C181.064 50.0735 181.609 50.3567 182.747 50.6311C184.976 51.202 185.222 51.2524 185.767 51.6173C186.635 52.1882 186.698 53.0973 186.698 53.4844C186.698 55.1454 185.404 56.4029 183.007 56.4029C182.293 56.4029 180.845 56.2858 180.107 55.3396C179.574 54.6515 179.559 53.8996 179.559 53.4443H180.909ZM171.204 46.8152H177.074V47.9186H172.502V50.8387H176.853V51.9272H172.502V55.0416H177.179V56.182H171.204V46.8152ZM166.231 46.8152H167.527V56.182H166.231V46.8152ZM161.466 49.151C161.324 48.282 160.623 47.6858 159.352 47.6858C158.474 47.6858 157.733 47.9186 157.24 48.4762C156.426 49.3853 156.243 50.6044 156.243 51.4868C156.243 52.2772 156.412 53.6149 157.098 54.4305C157.71 55.132 158.655 55.353 159.586 55.353C160.648 55.353 161.324 55.1454 161.621 55.0534V52.2772H159.483V51.202H162.917V55.8202C162.372 56.0011 161.18 56.3896 159.586 56.3896C157.862 56.3896 156.854 55.8988 156.192 55.221C155.273 54.2882 154.882 52.9772 154.882 51.6543C154.882 50.7215 155.116 48.5163 156.892 47.3225C157.813 46.6996 159.029 46.6596 159.496 46.6596C160.234 46.6596 161.362 46.7515 162.255 47.6606C162.814 48.2449 162.851 48.7877 162.877 49.151H161.466ZM145.907 54.4438C146.438 55.1053 147.241 55.2996 147.98 55.2996C148.744 55.2996 149.509 55.092 150.052 54.4439C150.817 53.511 150.895 52.031 150.895 51.3962C150.895 49.2667 150.196 47.6605 148.057 47.6605C145.686 47.6605 145.079 49.5662 145.079 51.4867C145.079 52.5115 145.259 53.6385 145.907 54.4438ZM144.922 47.8281C145.893 46.7767 147.176 46.5705 148.044 46.5705C150.636 46.5705 152.268 48.2315 152.268 51.4096C152.268 53.8996 151.27 56.4029 147.94 56.4029C144.753 56.4029 143.717 54.1339 143.717 51.5639C143.717 50.5005 143.898 48.93 144.922 47.8281ZM136.721 46.8152H138.005V55.0282H142.358V56.182H136.721V46.8152ZM127.277 54.4439C127.809 55.1053 128.611 55.2996 129.352 55.2996C130.116 55.2996 130.879 55.092 131.424 54.4439C132.19 53.511 132.267 52.031 132.267 51.3962C132.267 49.2667 131.566 47.6605 129.428 47.6605C127.056 47.6605 126.449 49.5662 126.449 51.4867C126.449 52.5115 126.631 53.6386 127.277 54.4439ZM126.292 47.8281C127.264 46.7767 128.548 46.5705 129.414 46.5705C132.006 46.5705 133.641 48.2315 133.641 51.4096C133.641 53.8996 132.643 56.4029 129.314 56.4029C126.123 56.4029 125.088 54.1339 125.088 51.5639C125.088 50.5005 125.269 48.93 126.292 47.8281ZM114.544 46.8153H116.345L120.944 54.561V46.8153H122.134V56.182H120.477L115.723 48.2315V56.182H114.544L114.544 46.8153ZM104.867 46.8153V50.8387H109.311V46.8153H110.608V56.182H109.311V51.9539H104.867V56.182H103.57V46.8153H104.867ZM99.6731 49.3468C99.6198 49.0205 99.4524 47.7243 97.6529 47.7243C95.3971 47.7243 94.9972 50.0334 94.9972 51.5906C94.9972 53.3554 95.5008 55.2596 97.638 55.2596C98.2083 55.2596 98.7548 55.1187 99.1547 54.7034C99.4924 54.3401 99.5695 53.9397 99.6095 53.7187H101.034C100.839 55.5591 99.1414 56.3244 97.5329 56.3244C94.2448 56.3244 93.6079 53.4191 93.6079 51.6039C93.6079 49.6315 94.3737 46.6862 97.7033 46.6862C99.0259 46.6862 100.891 47.2187 101.061 49.3468L99.6731 49.3468ZM85.4351 46.8153H91.3048V47.9186H86.731V50.8387H91.084V51.9272H86.731V55.0416H91.4084V56.182H85.4351V46.8153ZM78.8025 56.182V47.9186H75.667V46.8153H83.2223V47.9186H80.0867V56.182H78.8025Z" fill="white"/>
<path d="M68.393 41.0035C67.9797 40.9397 67.1089 40.5053 66.4853 38.1265C65.487 34.3196 65.016 31.054 63.3246 31.054C61.6316 31.054 60.8644 34.3196 59.8662 38.1265C59.2752 40.3777 58.6531 41.0035 57.6548 41.0035C56.7187 41.0035 55.7486 40.5453 54.3208 34.6607C53.0737 29.5146 52.2235 20.1953 48.0378 20.1953C43.8492 20.1953 42.6154 32.3427 42.0763 34.6844C41.4127 37.5703 39.7657 41.005 37.6936 41.005C35.6215 41.005 34.5492 38.6159 33.9286 36.0517C32.9792 32.1262 31.8995 26.4433 29.1446 26.4433C26.3882 26.4433 25.4936 31.1489 24.2791 36.289C23.5636 39.3188 22.4217 41.005 20.4148 41.005H16.041V41.0243C16.6127 41.1948 17.7532 42.141 18.048 43.974C18.7411 48.3 19.2714 50.9769 20.7791 50.9769C22.2869 50.9769 22.835 48.6692 23.7088 45.0729C24.3916 42.2552 25.458 41.0258 26.7318 41.0258C28.604 41.0258 29.4852 43.2948 30.5087 47.6311C32.5438 56.2697 32.9777 60.4444 36.2569 60.4444C39.511 60.4444 40.019 56.2608 42.2066 47.6311C43.159 43.8776 44.9349 41.0243 47.007 41.0243C49.0791 41.0243 50.5587 43.7886 51.3126 45.9924C52.9448 50.7707 53.6972 52.5696 55.4953 52.5696C57.2919 52.5696 58.308 50.4103 59.8928 45.196C60.8911 41.9141 61.0377 41.0243 63.9748 41.0243H68.393V41.0035Z" fill="white"/>
</svg>
