<svg width="204" height="78" viewBox="0 0 204 78" fill="none" xmlns="http://www.w3.org/2000/svg">
<rect width="204" height="78" fill="white"/>
<path d="M181.114 26.8117H176.056V23.9866H189.842V26.8117H184.783V41.0176H181.114V26.8117ZM160.519 23.9866H164.165V30.7951H170.59V23.9866H174.284V41.0176H170.636V33.5491H164.165V41.0176H160.519V23.9866ZM153.867 29.2157C153.843 28.7694 153.82 28.1554 153.396 27.4969C152.691 26.3654 151.352 26.177 150.551 26.177C146.409 26.177 145.587 30.0418 145.587 32.6549C145.587 33.8086 145.75 35.8834 146.999 37.2255C147.846 38.1672 148.976 38.6863 150.996 38.6863C152.763 38.6863 153.374 38.4727 153.775 38.3571V34.7741H150.48V31.9489H157.42V40.4525C156.361 40.8055 154.621 41.3943 151.21 41.3943C147.329 41.3943 145.327 40.4525 143.986 39.1327C142.08 37.2715 141.731 34.5635 141.731 32.7735C141.731 26.742 145.493 23.515 150.645 23.515C152.833 23.515 155.09 24.1275 156.432 25.658C157.562 26.9526 157.632 28.2977 157.657 29.2158L153.867 29.2157ZM135.751 23.9392H139.398V41.0176H135.751V23.9392ZM123.378 35.5764C123.378 36.3773 123.33 38.8035 126.46 38.8035C128.436 38.8035 129.683 37.8603 129.683 36.4232C129.683 34.9165 128.626 34.6584 126.46 34.1394C122.414 33.125 120.202 31.9238 120.202 28.98C120.202 26.1771 122.2 23.7034 126.93 23.7034C128.695 23.7034 130.788 24.1023 132.059 25.7055C133.023 26.9305 133.023 28.2978 133.023 28.8628H129.52C129.473 28.2726 129.282 26.2705 126.767 26.2705C125.072 26.2705 123.966 27.1885 123.966 28.5796C123.966 30.159 125.213 30.4407 127.66 31.0533C130.601 31.7592 133.494 32.5615 133.494 35.8835C133.494 38.9444 130.952 41.418 126.248 41.418C119.731 41.418 119.684 37.2256 119.662 35.5764H123.378ZM109.1 24.0563L112.606 31.8081L116.181 24.0563H119.921L114.18 34.8215V41.0176H110.581V34.7741L104.842 24.0563H109.1ZM91.8624 23.9866H103.248V26.7643H95.5089V30.8174H102.755V33.5966H95.509V38.191H103.509V41.0176H91.8625L91.8624 23.9866ZM76.0736 24.0341H79.7201V31.3587L85.4136 23.9866H89.6718L83.4363 31.6182L90.2124 41.0176H85.6728L79.7202 32.3479V41.0176H76.0737L76.0736 24.0341ZM180.909 53.4442C180.935 54.0938 181.012 55.2995 183.161 55.2995C185.106 55.2995 185.353 54.0938 185.353 53.6266C185.353 52.5752 184.511 52.369 183.201 52.0442C181.777 51.6942 181.143 51.5371 180.661 51.2153C179.897 50.6947 179.69 49.9947 179.69 49.3704C179.69 47.4662 181.491 46.6342 183.252 46.6342C183.875 46.6342 185.133 46.7381 185.884 47.5552C186.401 48.1261 186.427 48.7624 186.455 49.1509H185.106C185.041 47.9838 184.056 47.7242 183.138 47.7242C181.842 47.7242 181.064 48.3085 181.064 49.2399C181.064 50.0733 181.609 50.3566 182.747 50.6309C184.976 51.2019 185.222 51.2523 185.767 51.6172C186.635 52.1881 186.698 53.0972 186.698 53.4843C186.698 55.1452 185.404 56.4028 183.007 56.4028C182.293 56.4028 180.845 56.2857 180.107 55.3395C179.574 54.6514 179.559 53.8995 179.559 53.4442H180.909ZM171.204 46.8151H177.074V47.9185H172.502V50.8386H176.853V51.9271H172.502V55.0414H177.179V56.1819H171.204V46.8151ZM166.231 46.8151H167.527V56.1819H166.231V46.8151ZM161.466 49.1509C161.324 48.2818 160.623 47.6857 159.352 47.6857C158.474 47.6857 157.733 47.9185 157.24 48.4761C156.426 49.3852 156.243 50.6042 156.243 51.4866C156.243 52.2771 156.412 53.6148 157.098 54.4304C157.71 55.1319 158.655 55.3529 159.586 55.3529C160.648 55.3529 161.324 55.1452 161.621 55.0533V52.2771H159.483V51.2019H162.917V55.82C162.372 56.0009 161.18 56.3895 159.586 56.3895C157.862 56.3895 156.854 55.8986 156.192 55.2209C155.273 54.2881 154.882 52.9771 154.882 51.6542C154.882 50.7214 155.116 48.5162 156.892 47.3223C157.813 46.6995 159.029 46.6594 159.496 46.6594C160.234 46.6594 161.362 46.7514 162.255 47.6605C162.814 48.2447 162.851 48.7876 162.877 49.1509H161.466ZM145.907 54.4437C146.438 55.1052 147.241 55.2994 147.98 55.2994C148.744 55.2994 149.509 55.0918 150.052 54.4438C150.817 53.5109 150.895 52.0309 150.895 51.3961C150.895 49.2665 150.196 47.6604 148.057 47.6604C145.686 47.6604 145.079 49.5661 145.079 51.4866C145.079 52.5113 145.259 53.6384 145.907 54.4437ZM144.922 47.828C145.893 46.7765 147.176 46.5704 148.044 46.5704C150.636 46.5704 152.268 48.2314 152.268 51.4095C152.268 53.8995 151.27 56.4028 147.94 56.4028C144.753 56.4028 143.717 54.1338 143.717 51.5637C143.717 50.5004 143.898 48.9299 144.922 47.828ZM136.721 46.8151H138.005V55.028H142.358V56.1818H136.721V46.8151ZM127.277 54.4438C127.809 55.1052 128.611 55.2994 129.352 55.2994C130.116 55.2994 130.879 55.0918 131.424 54.4438C132.19 53.5109 132.267 52.0309 132.267 51.3961C132.267 49.2665 131.566 47.6604 129.428 47.6604C127.056 47.6604 126.449 49.5661 126.449 51.4866C126.449 52.5113 126.631 53.6384 127.277 54.4438ZM126.292 47.828C127.264 46.7765 128.548 46.5704 129.414 46.5704C132.006 46.5704 133.641 48.2314 133.641 51.4095C133.641 53.8995 132.643 56.4028 129.314 56.4028C126.123 56.4028 125.088 54.1338 125.088 51.5637C125.088 50.5004 125.269 48.9299 126.292 47.828ZM114.544 46.8152H116.345L120.944 54.5609V46.8152H122.134V56.1819H120.477L115.723 48.2314V56.1819H114.544L114.544 46.8152ZM104.867 46.8152V50.8386H109.311V46.8152H110.608V56.1819H109.311V51.9538H104.867V56.1819H103.57V46.8152H104.867ZM99.6731 49.3466C99.6198 49.0204 99.4524 47.7242 97.6529 47.7242C95.3971 47.7242 94.9972 50.0333 94.9972 51.5904C94.9972 53.3552 95.5008 55.2594 97.638 55.2594C98.2083 55.2594 98.7548 55.1185 99.1547 54.7033C99.4924 54.34 99.5695 53.9396 99.6095 53.7186H101.034C100.839 55.559 99.1414 56.3242 97.5329 56.3242C94.2448 56.3242 93.6079 53.419 93.6079 51.6038C93.6079 49.6314 94.3737 46.6861 97.7033 46.6861C99.0259 46.6861 100.891 47.2185 101.061 49.3467L99.6731 49.3466ZM85.4351 46.8152H91.3048V47.9185H86.731V50.8386H91.084V51.9271H86.731V55.0414H91.4084V56.1819H85.4351V46.8152ZM78.8025 56.1819V47.9185H75.667V46.8152H83.2223V47.9185H80.0867V56.1819H78.8025Z" fill="#555555"/>
<path d="M68.3927 41.0034C67.9795 40.9396 67.1086 40.5051 66.4851 38.1263C65.4868 34.3194 65.0157 31.0538 63.3243 31.0538C61.6314 31.0538 60.8642 34.3194 59.8659 38.1263C59.2749 40.3775 58.6528 41.0034 57.6546 41.0034C56.7185 41.0034 55.7484 40.5451 54.3206 34.6605C53.0734 29.5144 52.2233 20.1951 48.0376 20.1951C43.849 20.1951 42.6152 32.3425 42.0761 34.6842C41.4125 37.5701 39.7655 41.0048 37.6934 41.0048C35.6213 41.0048 34.5489 38.6157 33.9284 36.0515C32.979 32.126 31.8992 26.4431 29.1443 26.4431C26.3879 26.4431 25.4933 31.1487 24.2788 36.2889C23.5634 39.3187 22.4215 41.0048 20.4145 41.0048H16.0408V41.0241C16.6125 41.1946 17.753 42.1408 18.0477 43.9738C18.7408 48.2998 19.2711 50.9767 20.7789 50.9767C22.2867 50.9767 22.8347 48.669 23.7086 45.0727C24.3914 42.255 25.4578 41.0256 26.7316 41.0256C28.6037 41.0256 29.485 43.2946 30.5084 47.6309C32.5435 56.2695 32.9775 60.4442 36.2567 60.4442C39.5107 60.4442 40.0188 56.2606 42.2064 47.6309C43.1588 43.8774 44.9346 41.0241 47.0067 41.0241C49.0788 41.0241 50.5585 43.7884 51.3124 45.9922C52.9446 50.7705 53.697 52.5694 55.4951 52.5694C57.2917 52.5694 58.3077 50.4101 59.8926 45.1958C60.8908 41.9139 61.0375 41.0241 63.9745 41.0241H68.3927V41.0034Z" fill="#E90029"/>
</svg>
