<svg width="264" height="78" viewBox="0 0 264 78" fill="none" xmlns="http://www.w3.org/2000/svg">
<rect width="264" height="78" fill="white"/>
<g clip-path="url(#clip0_264_23)">
<path d="M44.5831 31.9236V46.0764L32.1729 53.1542V62L52.3457 50.5007V27.4993L44.5831 31.9236Z" fill="#00AC69"/>
<path d="M32.1729 24.8487L44.5832 31.9236L52.3458 27.4993L32.1729 16L12 27.4993L19.7597 31.9236L32.1729 24.8487Z" fill="#1CE783"/>
<path d="M24.4132 43.4258V57.5785L32.1729 62V39.0014L12 27.4993V36.348L24.4132 43.4258Z" fill="#1D252C"/>
<path d="M80.0352 27.4674C75.6924 27.4674 73.6352 30.1759 73.6352 30.1759H73.4067L72.9525 27.9188H67.6924V50.9405H73.4067V37.6299C73.4067 34.6957 75.458 32.6644 78.4352 32.6644C81.4125 32.6644 83.4638 34.6899 83.4638 37.6299V50.9405H89.1781V37.1727C89.1781 31.3044 85.2924 27.4674 80.0352 27.4674Z" fill="#1D252C"/>
<path d="M141.662 43.041H141.333L137.448 27.9189H131.634L127.748 43.041H127.423L123.534 27.9189H117.591L123.534 50.9406H130.494L134.377 36.0442H134.705L138.591 50.9406H145.547L151.49 27.9189H145.547L141.662 43.041Z" fill="#1D252C"/>
<path d="M168.987 29.9502H168.759L168.302 27.9246H163.502V50.9435H169.216V37.6328C169.216 34.6986 170.587 33.3444 173.559 33.3444H176.489V27.9218H173.09C172.294 27.9234 171.509 28.1075 170.797 28.4595C170.085 28.8115 169.466 29.3217 168.987 29.9502Z" fill="#1D252C"/>
<path d="M189.134 27.4674C182.28 27.4674 177.251 32.4329 177.251 39.4297C177.251 46.4265 181.996 51.392 189.134 51.392C194.916 51.392 198.397 48.0325 199.848 45.5613L194.602 43.7152C194.083 44.6527 191.991 46.4554 189.134 46.4554C185.802 46.4554 183.423 44.3952 182.966 41.2469H200.334C200.495 40.5052 200.571 39.7482 200.563 38.9899C200.563 32.4329 195.534 27.4674 189.134 27.4674ZM182.966 37.3984C183.651 34.4642 185.708 32.2072 189.134 32.2072C192.337 32.2072 194.391 34.4642 194.848 37.3984H182.966Z" fill="#1D252C"/>
<path d="M104.718 27.4674C97.8608 27.4674 92.8323 32.4329 92.8323 39.4297C92.8323 46.4265 97.5678 51.392 104.718 51.392C110.5 51.392 113.978 48.0325 115.429 45.5613L110.183 43.7152C109.665 44.6527 107.575 46.4554 104.718 46.4554C101.386 46.4554 99.0037 44.3952 98.5466 41.2469H115.918C116.079 40.5052 116.155 39.7482 116.147 38.9899C116.147 32.4329 111.118 27.4674 104.718 27.4674ZM98.5466 37.3984C99.2323 34.4642 101.289 32.2072 104.718 32.2072C107.918 32.2072 109.975 34.4642 110.432 37.3984H98.5466Z" fill="#1D252C"/>
<path d="M220.539 18.83H214.825V24.4725H220.539V18.83Z" fill="#1D252C"/>
<path d="M236.308 46.2008C232.879 46.2008 230.136 43.4924 230.136 39.4297C230.136 35.367 232.879 32.6586 236.308 32.6586C239.736 32.6586 241.108 34.9156 241.565 36.2699L246.74 34.4527C245.486 31.2378 242.409 27.4674 236.308 27.4674C229.45 27.4674 224.422 32.4329 224.422 39.4297C224.422 46.4265 229.45 51.392 236.308 51.392C242.461 51.392 245.538 47.5608 246.769 44.1926L241.565 42.3638C241.108 43.9438 239.736 46.2008 236.308 46.2008Z" fill="#1D252C"/>
<path d="M201.196 23.8446H204.44V50.9405H210.154V18.83H201.196V23.8446Z" fill="#1D252C"/>
<path d="M220.539 27.9189H214.825V50.9406H220.539V27.9189Z" fill="#1D252C"/>
<path d="M249.829 46.5249C249.392 46.5186 248.962 46.6408 248.596 46.876C248.229 47.1113 247.942 47.4489 247.77 47.8459C247.598 48.2429 247.55 48.6814 247.631 49.1056C247.713 49.5298 247.92 49.9204 248.227 50.228C248.534 50.5355 248.926 50.7459 249.355 50.8325C249.783 50.919 250.228 50.8779 250.632 50.7141C251.037 50.5504 251.383 50.2716 251.626 49.9131C251.87 49.5546 252 49.1326 252 48.7009C252.01 48.4153 251.96 48.1307 251.855 47.8645C251.75 47.5983 251.591 47.3561 251.388 47.1525C251.184 46.949 250.941 46.7884 250.673 46.6805C250.405 46.5726 250.118 46.5196 249.829 46.5249ZM249.829 50.5441C249.458 50.5505 249.094 50.4478 248.783 50.2491C248.472 50.0504 248.228 49.7648 248.081 49.4286C247.935 49.0924 247.893 48.7208 247.962 48.3612C248.03 48.0016 248.205 47.6702 248.465 47.4092C248.725 47.1482 249.057 46.9695 249.42 46.8958C249.783 46.822 250.16 46.8566 250.503 46.9951C250.846 47.1337 251.14 47.3698 251.346 47.6736C251.553 47.9774 251.663 48.335 251.663 48.7009C251.672 48.942 251.63 49.1822 251.541 49.4069C251.452 49.6315 251.318 49.8359 251.146 50.0074C250.974 50.1789 250.769 50.314 250.542 50.4043C250.316 50.4946 250.073 50.5382 249.829 50.5326V50.5441Z" fill="#1D252C"/>
<path d="M250.775 48.2987C250.775 48.1943 250.752 48.0911 250.71 47.9956C250.667 47.9 250.605 47.8141 250.528 47.743C250.451 47.672 250.359 47.6174 250.26 47.5825C250.16 47.5477 250.054 47.5334 249.949 47.5405H248.97V49.8091H249.307V49.0221H249.615L250.409 49.8091H250.828L250.034 49.0221C250.229 49.0221 250.416 48.9461 250.555 48.8107C250.694 48.6753 250.773 48.4913 250.775 48.2987ZM249.31 48.6893V47.8733H249.949C250.01 47.866 250.072 47.8715 250.131 47.8894C250.19 47.9074 250.245 47.9374 250.291 47.9776C250.337 48.0177 250.375 48.067 250.401 48.1223C250.426 48.1777 250.44 48.2377 250.441 48.2987C250.441 48.5388 250.286 48.6893 249.949 48.6893H249.31Z" fill="#1D252C"/>
</g>
<defs>
<clipPath id="clip0_264_23">
<rect width="240" height="46" fill="white" transform="translate(12 16)"/>
</clipPath>
</defs>
</svg>
