<svg width="264" height="78" viewBox="0 0 264 78" fill="none" xmlns="http://www.w3.org/2000/svg">
<g clip-path="url(#clip0_360_1195)">
<path d="M44.5831 31.9239V46.0766L32.1729 53.1544V62.0002L52.3457 50.501V27.4995L44.5831 31.9239Z" fill="white"/>
<path d="M32.1729 24.8487L44.5832 31.9236L52.3458 27.4993L32.1729 16L12 27.4993L19.7597 31.9236L32.1729 24.8487Z" fill="white"/>
<path d="M24.4132 43.426V57.5788L32.1729 62.0002V39.0017L12 27.4995V36.3482L24.4132 43.426Z" fill="white"/>
<path d="M80.0352 27.4673C75.6924 27.4673 73.6352 30.1757 73.6352 30.1757H73.4067L72.9525 27.9187H67.6924V50.9404H73.4067V37.6297C73.4067 34.6956 75.458 32.6642 78.4352 32.6642C81.4125 32.6642 83.4638 34.6898 83.4638 37.6297V50.9404H89.1781V37.1725C89.1781 31.3042 85.2924 27.4673 80.0352 27.4673Z" fill="white"/>
<path d="M141.662 43.041H141.333L137.448 27.9189H131.634L127.748 43.041H127.423L123.534 27.9189H117.591L123.534 50.9406H130.494L134.377 36.0443H134.705L138.591 50.9406H145.547L151.49 27.9189H145.547L141.662 43.041Z" fill="white"/>
<path d="M168.988 29.9503H168.759L168.302 27.9248H163.502V50.9436H169.216V37.6329C169.216 34.6987 170.588 33.3445 173.559 33.3445H176.49V27.9219H173.09C172.294 27.9236 171.509 28.1076 170.797 28.4596C170.085 28.8116 169.466 29.3219 168.988 29.9503Z" fill="white"/>
<path d="M189.134 27.4673C182.28 27.4673 177.251 32.4328 177.251 39.4295C177.251 46.4263 181.996 51.3918 189.134 51.3918C194.916 51.3918 198.397 48.0323 199.848 45.5611L194.602 43.715C194.084 44.6525 191.991 46.4553 189.134 46.4553C185.802 46.4553 183.423 44.395 182.966 41.2467H200.334C200.495 40.5051 200.572 39.7481 200.563 38.9897C200.563 32.4328 195.534 27.4673 189.134 27.4673ZM182.966 37.3982C183.651 34.4641 185.709 32.207 189.134 32.207C192.337 32.207 194.391 34.4641 194.849 37.3982H182.966Z" fill="white"/>
<path d="M104.718 27.4673C97.8606 27.4673 92.832 32.4328 92.832 39.4295C92.832 46.4263 97.5676 51.3918 104.718 51.3918C110.499 51.3918 113.978 48.0323 115.428 45.5611L110.183 43.715C109.664 44.6525 107.575 46.4553 104.718 46.4553C101.386 46.4553 99.0035 44.395 98.5463 41.2467H115.918C116.078 40.5051 116.155 39.7481 116.146 38.9897C116.146 32.4328 111.118 27.4673 104.718 27.4673ZM98.5463 37.3982C99.232 34.4641 101.289 32.207 104.718 32.207C107.918 32.207 109.975 34.4641 110.432 37.3982H98.5463Z" fill="white"/>
<path d="M220.539 18.8301H214.825V24.4727H220.539V18.8301Z" fill="white"/>
<path d="M236.308 46.2006C232.879 46.2006 230.136 43.4922 230.136 39.4295C230.136 35.3669 232.879 32.6585 236.308 32.6585C239.736 32.6585 241.108 34.9155 241.565 36.2697L246.74 34.4525C245.486 31.2377 242.409 27.4673 236.308 27.4673C229.45 27.4673 224.422 32.4328 224.422 39.4295C224.422 46.4263 229.45 51.3918 236.308 51.3918C242.461 51.3918 245.538 47.5606 246.769 44.1925L241.565 42.3637C241.108 43.9436 239.736 46.2006 236.308 46.2006Z" fill="white"/>
<path d="M201.196 23.8447H204.44V50.9407H210.154V18.8301H201.196V23.8447Z" fill="white"/>
<path d="M220.539 27.9189H214.825V50.9406H220.539V27.9189Z" fill="white"/>
<path d="M249.829 46.5248C249.392 46.5185 248.962 46.6407 248.596 46.8759C248.229 47.1112 247.942 47.4488 247.77 47.8458C247.598 48.2428 247.55 48.6813 247.631 49.1054C247.713 49.5296 247.92 49.9203 248.227 50.2278C248.534 50.5354 248.926 50.7458 249.355 50.8324C249.783 50.9189 250.228 50.8777 250.632 50.714C251.037 50.5503 251.383 50.2714 251.626 49.9129C251.87 49.5544 252 49.1325 252 48.7008C252.01 48.4152 251.96 48.1306 251.855 47.8644C251.75 47.5982 251.591 47.356 251.388 47.1524C251.184 46.9489 250.941 46.7883 250.673 46.6803C250.405 46.5724 250.118 46.5195 249.829 46.5248ZM249.829 50.544C249.458 50.5503 249.094 50.4476 248.783 50.249C248.472 50.0503 248.228 49.7647 248.081 49.4285C247.935 49.0923 247.893 48.7207 247.962 48.3611C248.03 48.0015 248.205 47.6701 248.465 47.4091C248.725 47.1481 249.057 46.9694 249.42 46.8956C249.783 46.8219 250.16 46.8565 250.503 46.995C250.846 47.1335 251.14 47.3697 251.346 47.6735C251.553 47.9773 251.663 48.3349 251.663 48.7008C251.672 48.9418 251.63 49.1821 251.541 49.4067C251.452 49.6314 251.318 49.8358 251.146 50.0073C250.974 50.1788 250.769 50.3138 250.542 50.4041C250.316 50.4944 250.073 50.5381 249.829 50.5324V50.544Z" fill="white"/>
<path d="M250.775 48.2985C250.774 48.1941 250.752 48.091 250.71 47.9954C250.667 47.8998 250.605 47.8139 250.528 47.7428C250.45 47.6718 250.359 47.6172 250.259 47.5824C250.16 47.5475 250.054 47.5332 249.948 47.5404H248.97V49.809H249.307V49.0219H249.614L250.409 49.809H250.828L250.033 49.0219C250.229 49.0219 250.416 48.946 250.555 48.8105C250.693 48.6751 250.773 48.4911 250.775 48.2985ZM249.31 48.6891V47.8731H249.948C250.01 47.8658 250.072 47.8713 250.131 47.8893C250.19 47.9072 250.244 47.9372 250.291 47.9774C250.337 48.0175 250.375 48.0668 250.4 48.1221C250.426 48.1775 250.44 48.2376 250.441 48.2985C250.441 48.5387 250.285 48.6891 249.948 48.6891H249.31Z" fill="white"/>
</g>
<defs>
<clipPath id="clip0_360_1195">
<rect width="240" height="46" fill="white" transform="translate(12 16)"/>
</clipPath>
</defs>
</svg>
