<svg width="312" height="78" viewBox="0 0 312 78" fill="none" xmlns="http://www.w3.org/2000/svg">
<g clip-path="url(#clip0_360_1177)">
<mask id="mask0_360_1177" style="mask-type:luminance" maskUnits="userSpaceOnUse" x="12" y="16" width="288" height="46">
<path d="M299.129 16H12V62H299.129V16Z" fill="white"/>
</mask>
<g mask="url(#mask0_360_1177)">
<path d="M104.201 38.9184C104.201 45.9291 100.165 53.5245 89.3312 53.5245C81.5283 53.5245 74.4106 49.1672 74.4106 38.9184C74.4106 30.4239 79.774 23.8911 90.3938 24.4758C101.705 25.1109 104.201 33.8758 104.201 38.9184ZM84.0244 33.5866C83.0184 35.1396 82.641 37.007 82.641 38.8744C82.641 43.1751 84.7663 47.0672 89.3312 47.0672C93.896 47.0672 95.9142 43.4832 95.9142 39.2328C95.9142 36.2274 95.1723 33.8946 93.6319 32.4422C91.9342 30.8892 90.0228 30.8389 88.8532 30.9396C86.5143 31.0967 85.1373 31.87 84.018 33.5802H84.0244V33.5866Z" fill="white"/>
<path d="M176.711 27.6073C177.508 26.7585 178.036 26.1234 179.471 25.4318C180.747 24.9036 182.551 24.4761 184.513 24.4761C186.161 24.4761 188.015 24.7402 189.455 25.5387C192.378 27.0791 193.121 29.5753 193.121 33.8761V52.8331H184.996V37.221C184.996 34.7249 184.946 33.8194 184.625 33.0775C183.992 31.5936 182.557 30.9523 180.96 30.9523C176.66 30.9523 176.66 34.4042 176.66 37.8561V52.8331H168.479V25.1677H176.711V27.6136V27.6073Z" fill="white"/>
<path d="M164.594 45.6715C163.845 47.2496 161.431 53.5247 150.786 53.5247C142.556 53.5247 136.765 48.4882 136.765 39.409C136.765 32.719 140.059 24.4759 151 24.4759C152.647 24.4759 157.426 24.2747 160.984 28.0976C164.594 31.977 164.808 37.3906 164.914 40.5219H145.108C145.058 43.9738 147.02 47.4256 151.427 47.4256C155.835 47.4256 157.426 44.5019 158.438 42.5402L164.599 45.6715H164.594ZM156.47 35.4227C156.312 34.2531 156.099 32.7127 154.929 31.4928C153.924 30.4869 152.383 29.9524 150.949 29.9524C148.988 29.9524 147.605 30.9082 146.806 31.757C145.693 32.9768 145.423 34.2531 145.159 35.4227H156.47Z" fill="white"/>
<path d="M278.311 30.9081H283.731V25.1675H278.367V19.3389H270.244V25.1675H268.955L265.233 30.9143H270.244V44.0743C270.244 46.7276 270.294 48.6956 271.413 50.3429C273.168 52.8895 276.248 53.0529 279.059 53.0529C280.542 53.0529 281.606 52.8958 283.36 52.6254V46.2498L280.436 46.3566C278.261 46.3566 278.261 44.9231 278.311 43.2254V30.9081Z" fill="white"/>
<path d="M197.189 19.3389H205.312V25.1675H213.756L210.034 30.9143H205.255V43.2254C205.204 44.9231 205.204 46.3566 207.381 46.3566L210.305 46.2498V52.6254C208.55 52.8895 207.487 53.0529 206.004 53.0529C203.186 53.0529 200.106 52.8958 198.358 50.3429C197.245 48.6956 197.189 46.734 197.189 44.0743V19.3389Z" fill="white"/>
<path d="M291.258 30.908H290.251V26.0099H288.397V25.1611H293.067V26.0099H291.25V30.908H291.258ZM299.129 30.908H298.142L298.173 27.3618L298.224 26.186L297.948 27.1543L296.772 30.908H295.872L294.715 27.1543L294.42 26.2049L294.489 27.3618L294.526 30.908H293.559V25.1674H294.923L296.356 29.7008L297.758 25.1674H299.124V30.9142H299.129V30.908Z" fill="white"/>
<path d="M239.359 45.6966L237.805 48.0984C236.348 50.2362 233.606 53.5247 225.759 53.5247C217.912 53.5247 211.995 48.4882 211.995 39.409C211.995 32.719 215.29 24.4759 226.231 24.4759C227.878 24.4759 232.656 24.2747 236.216 28.0976C239.825 31.977 240.038 37.3906 240.146 40.5219H220.34C220.29 43.9738 221.993 47.4256 226.4 47.4256C230.808 47.4256 232.142 44.5019 233.154 42.5402L239.365 45.6966H239.359ZM231.695 35.4227C231.538 34.2531 231.324 32.7127 230.154 31.4928C229.149 30.4869 227.608 29.9524 226.175 29.9524C224.212 29.9524 222.83 30.9082 222.03 31.757C220.918 32.9768 220.647 34.2531 220.383 35.4227H231.695Z" fill="white"/>
<path d="M267.201 52.8392L257.041 38.2708L265.509 25.1675H256.21L252.211 31.3544L247.899 25.1675H238.599L247.74 38.2708L238.329 52.8392H247.628L252.57 45.1935L257.902 52.8392H267.201Z" fill="white"/>
<path d="M115.462 27.6073C116.242 26.4189 118.751 24.4761 122.737 24.4761C129.534 24.4761 134.319 29.6256 134.319 38.8684C134.319 44.5524 132.25 53.5247 122.398 53.5247C118.858 53.5247 116.11 51.5567 115.412 50.3935V62.0005H107.232V25.1677H115.462V27.6136V27.6073ZM120.983 30.858C119.499 30.858 117.959 31.449 116.789 32.9329C115.619 34.3664 115.091 36.5922 115.091 39.013C115.091 42.2762 116.047 44.2505 117.053 45.3886C117.996 46.4512 119.392 47.0611 120.719 47.0611C124.699 47.0611 126.453 42.8673 126.453 38.8117C126.453 35.404 125.447 31.7948 122.096 31.0026C121.725 30.902 121.354 30.8517 120.983 30.8517V30.858Z" fill="white"/>
<path d="M44.312 35.6168C44.312 35.3527 44.5321 35.1327 44.7962 35.1327H47.3427C47.5061 35.1327 47.6571 35.051 47.7514 34.9126L49.688 31.9197C49.9017 31.5991 49.6691 31.1715 49.2793 31.1715H44.834C44.5636 31.1715 44.3498 30.9514 44.3498 30.6873V27.6379C44.3498 27.3675 44.1297 27.1475 43.8657 27.1475H39.2254C38.955 27.1475 38.7413 27.3675 38.7413 27.6316V36.1198C37.1065 32.9823 33.8243 30.8319 30.0455 30.8319C24.6319 30.8319 20.2432 35.2208 20.2432 40.6344C20.2432 46.048 24.6319 50.4367 30.0455 50.4367C33.837 50.4367 37.1191 48.2864 38.7538 45.1362C38.7789 46.5195 38.9174 47.6073 39.5523 48.5441C40.7595 50.3046 42.8847 50.4116 44.8276 50.4116C45.733 50.4116 46.4059 50.3298 47.3804 50.179C47.6193 50.1412 47.7954 49.9337 47.7954 49.6948V46.2177C47.7954 45.9411 47.569 45.721 47.2924 45.7336L45.7833 45.7901C44.2807 45.7901 44.3183 44.803 44.3183 43.6273V35.6168H44.312ZM30.0455 45.0356C27.6185 45.0356 25.6442 43.0677 25.6442 40.6344C25.6442 38.201 27.6123 36.2331 30.0455 36.2331C32.4788 36.2331 34.4469 38.201 34.4469 40.6344C34.4469 43.0677 32.4788 45.0356 30.0455 45.0356Z" fill="white"/>
</g>
</g>
<defs>
<clipPath id="clip0_360_1177">
<rect width="287.5" height="46" fill="white" transform="translate(12 16)"/>
</clipPath>
</defs>
</svg>
