<svg width="312" height="78" viewBox="0 0 312 78" fill="none" xmlns="http://www.w3.org/2000/svg">
<rect width="312" height="78" fill="white"/>
<g clip-path="url(#clip0_263_2)">
<mask id="mask0_263_2" style="mask-type:luminance" maskUnits="userSpaceOnUse" x="12" y="16" width="288" height="46">
<path d="M299.129 16H12V62H299.129V16Z" fill="white"/>
</mask>
<g mask="url(#mask0_263_2)">
<path d="M104.201 38.9186C104.201 45.9293 100.164 53.5248 89.3309 53.5248C81.528 53.5248 74.4104 49.1674 74.4104 38.9186C74.4104 30.4242 79.7737 23.8913 90.3935 24.4761C101.705 25.1111 104.201 33.876 104.201 38.9186ZM84.0241 33.5868C83.0182 35.1399 82.6408 37.0072 82.6408 38.8747C82.6408 43.1754 84.766 47.0674 89.3309 47.0674C93.8957 47.0674 95.914 43.4834 95.914 39.233C95.914 36.2276 95.1721 33.8949 93.6316 32.4424C91.934 30.8895 90.0225 30.8392 88.853 30.9398C86.514 31.0969 85.137 31.8703 84.0178 33.5805H84.0241V33.5868Z" fill="#101C2F"/>
<path d="M176.71 27.6074C177.508 26.7586 178.035 26.1236 179.47 25.4319C180.747 24.9038 182.551 24.4762 184.513 24.4762C186.16 24.4762 188.015 24.7403 189.455 25.5388C192.377 27.0793 193.121 29.5754 193.121 33.8762V52.8332H184.996V37.2211C184.996 34.725 184.946 33.8195 184.625 33.0777C183.991 31.5937 182.556 30.9524 180.959 30.9524C176.66 30.9524 176.66 34.4043 176.66 37.8562V52.8332H168.479V25.1678H176.71V27.6137V27.6074Z" fill="#101C2F"/>
<path d="M164.593 45.6714C163.844 47.2495 161.431 53.5246 150.786 53.5246C142.555 53.5246 136.764 48.4882 136.764 39.409C136.764 32.719 140.059 24.4759 151 24.4759C152.647 24.4759 157.426 24.2747 160.984 28.0976C164.593 31.9769 164.808 37.3906 164.914 40.5219H145.108C145.058 43.9737 147.02 47.4256 151.427 47.4256C155.835 47.4256 157.426 44.5019 158.438 42.5401L164.599 45.6714H164.593ZM156.47 35.4226C156.312 34.2531 156.099 32.7127 154.929 31.4928C153.923 30.4868 152.383 29.9524 150.949 29.9524C148.987 29.9524 147.604 30.9082 146.806 31.757C145.693 32.9767 145.422 34.2531 145.158 35.4226H156.47Z" fill="#101C2F"/>
<path d="M278.311 30.9082H283.731V25.1676H278.367V19.339H270.244V25.1676H268.955L265.233 30.9144H270.244V44.0744C270.244 46.7277 270.294 48.6957 271.413 50.343C273.168 52.8896 276.248 53.053 279.059 53.053C280.542 53.053 281.606 52.8959 283.36 52.6255V46.2499L280.436 46.3567C278.261 46.3567 278.261 44.9232 278.311 43.2255V30.9082Z" fill="#101C2F"/>
<path d="M197.189 19.339H205.312V25.1676H213.756L210.034 30.9144H205.255V43.2255C205.204 44.9232 205.204 46.3567 207.381 46.3567L210.304 46.2499V52.6255C208.549 52.8896 207.487 53.053 206.003 53.053C203.186 53.053 200.105 52.8959 198.357 50.343C197.245 48.6957 197.189 46.734 197.189 44.0744V19.339Z" fill="#101C2F"/>
<path d="M291.257 30.9082H290.251V26.0101H288.397V25.1613H293.067V26.0101H291.25V30.9082H291.257ZM299.129 30.9082H298.142L298.173 27.3619L298.223 26.1861L297.947 27.1544L296.772 30.9082H295.872L294.715 27.1544L294.42 26.205L294.489 27.3619L294.526 30.9082H293.559V25.1675H294.923L296.356 29.7009L297.758 25.1675H299.123V30.9143H299.129V30.9082Z" fill="#101C2F"/>
<path d="M239.359 45.6966L237.805 48.0984C236.348 50.2362 233.606 53.5246 225.759 53.5246C217.912 53.5246 211.995 48.4882 211.995 39.409C211.995 32.719 215.29 24.4759 226.231 24.4759C227.878 24.4759 232.656 24.2747 236.216 28.0976C239.825 31.9769 240.038 37.3906 240.146 40.5219H220.34C220.29 43.9737 221.993 47.4256 226.4 47.4256C230.808 47.4256 232.142 44.5019 233.154 42.5401L239.365 45.6966H239.359ZM231.695 35.4226C231.538 34.2531 231.324 32.7127 230.154 31.4928C229.149 30.4868 227.608 29.9524 226.175 29.9524C224.212 29.9524 222.83 30.9082 222.03 31.757C220.918 32.9767 220.647 34.2531 220.383 35.4226H231.695Z" fill="#101C2F"/>
<path d="M267.201 52.8392L257.041 38.2709L265.509 25.1676H256.21L252.211 31.3545L247.898 25.1676H238.599L247.74 38.2709L238.329 52.8392H247.628L252.57 45.1936L257.902 52.8392H267.201Z" fill="#101C2F"/>
<path d="M115.462 27.6074C116.242 26.4191 118.751 24.4762 122.737 24.4762C129.534 24.4762 134.319 29.6257 134.319 38.8685C134.319 44.5525 132.25 53.5248 122.397 53.5248C118.857 53.5248 116.11 51.5569 115.412 50.3936V62.0006H107.232V25.1678H115.462V27.6137V27.6074ZM120.983 30.8581C119.499 30.8581 117.958 31.4491 116.789 32.933C115.619 34.3665 115.091 36.5923 115.091 39.0131C115.091 42.2764 116.047 44.2506 117.053 45.3887C117.996 46.4513 119.392 47.0612 120.718 47.0612C124.699 47.0612 126.453 42.8675 126.453 38.8118C126.453 35.4041 125.447 31.795 122.095 31.0028C121.725 30.9021 121.354 30.8518 120.983 30.8518V30.8581Z" fill="#101C2F"/>
<path d="M50.4353 16H19.5759C15.3946 16 12.0056 19.389 12.0056 23.5703V54.436C12.0056 58.6173 15.3946 62.0063 19.5759 62.0063H50.4416C54.6229 62.0063 58.0119 58.6173 58.0119 54.436V23.5703C58.0119 19.389 54.6229 16 50.4416 16H50.4353Z" fill="url(#paint0_linear_263_2)"/>
<path d="M44.3118 35.617C44.3118 35.3529 44.5319 35.1328 44.7959 35.1328H47.3425C47.5059 35.1328 47.6568 35.0512 47.7511 34.9128L49.6877 31.9199C49.9015 31.5993 49.6689 31.1717 49.2791 31.1717H44.8337C44.5633 31.1717 44.3496 30.9516 44.3496 30.6875V27.6381C44.3496 27.3677 44.1295 27.1476 43.8654 27.1476H39.2252C38.9548 27.1476 38.741 27.3677 38.741 27.6318V36.12C37.1063 32.9825 33.8241 30.8321 30.0453 30.8321C24.6317 30.8321 20.2429 35.221 20.2429 40.6346C20.2429 46.0482 24.6317 50.4369 30.0453 50.4369C33.8367 50.4369 37.1188 48.2865 38.7535 45.1364C38.7787 46.5197 38.9171 47.6075 39.5521 48.5443C40.7593 50.3048 42.8845 50.4117 44.8274 50.4117C45.7327 50.4117 46.4056 50.3299 47.3801 50.1792C47.619 50.1413 47.7951 49.9339 47.7951 49.695V46.2178C47.7951 45.9413 47.5687 45.7212 47.2921 45.7338L45.7831 45.7903C44.2804 45.7903 44.3181 44.8032 44.3181 43.6275V35.617H44.3118ZM30.0453 45.0358C27.6182 45.0358 25.644 43.0678 25.644 40.6346C25.644 38.2012 27.612 36.2332 30.0453 36.2332C32.4786 36.2332 34.4466 38.2012 34.4466 40.6346C34.4466 43.0678 32.4786 45.0358 30.0453 45.0358Z" fill="white"/>
</g>
</g>
<defs>
<linearGradient id="paint0_linear_263_2" x1="47.0652" y1="54.3354" x2="19.381" y2="19.1312" gradientUnits="userSpaceOnUse">
<stop stop-color="#00008B"/>
<stop offset="1" stop-color="#1A6AFF"/>
</linearGradient>
<clipPath id="clip0_263_2">
<rect width="287.5" height="46" fill="white" transform="translate(12 16)"/>
</clipPath>
</defs>
</svg>
