<svg width="134" height="78" viewBox="0 0 134 78" fill="none" xmlns="http://www.w3.org/2000/svg">
<rect width="134" height="78" fill="white"/>
<mask id="mask0_264_160" style="mask-type:luminance" maskUnits="userSpaceOnUse" x="12" y="16" width="110" height="46">
<path d="M122 16H12V62H122V16Z" fill="white"/>
</mask>
<g mask="url(#mask0_264_160)">
<mask id="mask1_264_160" style="mask-type:luminance" maskUnits="userSpaceOnUse" x="12" y="16" width="110" height="46">
<path d="M122 16H12V62H122V16Z" fill="white"/>
</mask>
<g mask="url(#mask1_264_160)">
<path d="M28.4851 33.9522C28.4851 36.8246 27.7203 39.0211 26.3183 40.6685C24.8737 42.3159 22.8343 43.1185 20.285 43.1185C17.6508 43.1185 15.6114 42.3159 14.1669 40.7107C12.7223 39.1478 12.0425 36.8669 12.0425 33.91C12.0425 30.9954 12.7223 28.7989 14.1669 27.1515C15.6114 25.5886 17.6508 24.786 20.285 24.786C22.8768 24.786 24.8312 25.5886 26.2758 27.1938C27.7628 28.8834 28.4851 31.0799 28.4851 33.9522ZM14.2518 33.9522C14.2518 36.36 14.7617 38.1763 15.7814 39.4435C16.8436 40.6685 18.3306 41.3021 20.285 41.3021C22.2395 41.3021 23.769 40.6685 24.7887 39.4435C25.7659 38.2185 26.3183 36.4022 26.3183 33.9522C26.3183 31.5023 25.8084 29.7704 24.8312 28.5455C23.854 27.3205 22.3669 26.6869 20.37 26.6869C18.3731 26.6869 16.886 27.3205 15.8664 28.5455C14.7617 29.7704 14.2518 31.5868 14.2518 33.9522Z" fill="#425563"/>
</g>
<mask id="mask2_264_160" style="mask-type:luminance" maskUnits="userSpaceOnUse" x="12" y="16" width="110" height="46">
<path d="M122 16H12V62H122V16Z" fill="white"/>
</mask>
<g mask="url(#mask2_264_160)">
<path d="M37.7474 43.1185C36.8551 43.1185 36.0479 42.9495 35.3681 42.6116C34.6033 42.3159 34.0085 41.809 33.5411 41.1332H33.3712C33.4561 41.9357 33.5411 42.6538 33.5411 43.3719V48.8632H31.5017V29.517H33.1587L33.4561 31.3333H33.5411C34.0934 30.573 34.6883 30.1084 35.3681 29.7704C36.0479 29.4325 36.8551 29.2635 37.7474 29.2635C39.5318 29.2635 40.9339 29.8549 41.8686 31.0799C42.8034 32.3049 43.3132 33.9945 43.3132 36.1488C43.3132 38.303 42.8034 40.0349 41.8262 41.2176C40.8065 42.4849 39.4893 43.1185 37.7474 43.1185ZM37.45 30.9954C36.0479 30.9954 35.0707 31.3756 34.4758 32.1359C33.881 32.8962 33.5411 34.1212 33.5411 35.7264V36.191C33.5411 38.0496 33.8385 39.4013 34.4758 40.2461C35.1131 41.0487 36.1328 41.4711 37.4924 41.4711C38.6396 41.4711 39.5743 41.0064 40.2116 40.0771C40.8489 39.1478 41.1888 37.8384 41.1888 36.2332C41.1888 34.5436 40.8489 33.2764 40.2116 32.3894C39.5318 31.4601 38.6396 30.9954 37.45 30.9954Z" fill="#425563"/>
</g>
<mask id="mask3_264_160" style="mask-type:luminance" maskUnits="userSpaceOnUse" x="12" y="16" width="110" height="46">
<path d="M122 16H12V62H122V16Z" fill="white"/>
</mask>
<g mask="url(#mask3_264_160)">
<path d="M54.7849 39.2323C54.7849 40.4573 54.3175 41.4711 53.3828 42.1047C52.4481 42.7805 51.131 43.0762 49.474 43.0762C47.6895 43.0762 46.2874 42.7805 45.3102 42.2314V40.3728C45.9475 40.7107 46.6698 40.9642 47.3921 41.1754C48.1569 41.3866 48.8367 41.4711 49.5165 41.4711C50.5786 41.4711 51.3859 41.3021 51.9382 40.9642C52.5331 40.6263 52.788 40.1194 52.788 39.4435C52.788 38.8944 52.5331 38.472 52.1082 38.0918C51.6408 37.7539 50.7486 37.2893 49.474 36.7401C48.2418 36.2755 47.3496 35.8531 46.7973 35.5152C46.2449 35.1772 45.8625 34.7548 45.6076 34.3324C45.3527 33.8678 45.2252 33.4031 45.2252 32.7695C45.2252 31.6713 45.6926 30.8265 46.5848 30.1928C47.4771 29.5592 48.7092 29.2635 50.2387 29.2635C51.6833 29.2635 53.1279 29.5592 54.445 30.1506L53.6802 31.798C52.3206 31.2489 51.0885 30.9532 50.0263 30.9532C49.0916 30.9532 48.3268 31.1221 47.8594 31.4178C47.3496 31.7135 47.0947 32.0937 47.0947 32.6428C47.0947 32.9807 47.1796 33.2764 47.3921 33.5721C47.6045 33.8678 47.9019 34.079 48.2843 34.3324C48.6667 34.5859 49.474 34.8815 50.6211 35.304C52.1932 35.8953 53.2978 36.4444 53.8502 37.0358C54.5725 37.5849 54.7849 38.3453 54.7849 39.2323Z" fill="#425563"/>
</g>
<mask id="mask4_264_160" style="mask-type:luminance" maskUnits="userSpaceOnUse" x="12" y="16" width="110" height="46">
<path d="M122 16H12V62H122V16Z" fill="white"/>
</mask>
<g mask="url(#mask4_264_160)">
<path d="M60.5632 35.7686V42.865H57.6315V25.0817H62.6875C65.0243 25.0817 66.7238 25.5464 67.786 26.3489C68.8907 27.1938 69.4855 28.5032 69.4855 30.2351C69.4855 32.4738 68.3384 34.0367 66.0016 34.966L71.0576 42.865H67.7435L63.4948 35.7686H60.5632ZM60.5632 33.3609H62.6026C63.9622 33.3609 64.9394 33.1074 65.5767 32.6005C66.214 32.0937 66.5114 31.3756 66.5114 30.3618C66.5114 29.348 66.1715 28.6722 65.4917 28.2498C64.8119 27.8274 63.8347 27.6162 62.5176 27.6162H60.5632V33.4031V33.3609Z" fill="#00A3E0"/>
</g>
<mask id="mask5_264_160" style="mask-type:luminance" maskUnits="userSpaceOnUse" x="12" y="16" width="110" height="46">
<path d="M122 16H12V62H122V16Z" fill="white"/>
</mask>
<g mask="url(#mask5_264_160)">
<path d="M81.127 42.865L80.5322 41.0064H80.4473C79.8099 41.8513 79.1726 42.4004 78.4503 42.6961C77.7705 42.9917 76.9633 43.1607 75.9011 43.1607C74.5415 43.1607 73.5218 42.8228 72.757 42.0625C71.9922 41.3866 71.6099 40.3306 71.6099 39.0634C71.6099 37.6694 72.1197 36.6557 73.1394 35.8953C74.1591 35.135 75.7736 34.7971 77.8555 34.7548L80.1923 34.7126V33.91C80.1923 33.0652 79.9799 32.4316 79.5975 31.967C79.2151 31.5023 78.5353 31.3333 77.7281 31.3333C77.0483 31.3333 76.3685 31.4178 75.7311 31.629C75.0938 31.8402 74.499 32.0937 73.9042 32.3894L72.9695 30.3618C73.7342 29.9816 74.499 29.686 75.3912 29.4748C76.2835 29.2636 77.0907 29.1791 77.8555 29.1791C79.5975 29.1791 80.8721 29.5592 81.7644 30.3196C82.6566 31.0799 83.124 32.2626 83.124 33.8255V42.9073H81.127V42.865ZM76.8783 40.922C77.9405 40.922 78.7478 40.6263 79.4276 40.0349C80.0649 39.4435 80.3623 38.641 80.3623 37.6272V36.4445L78.6203 36.4867C77.2607 36.5289 76.2835 36.7824 75.6462 37.1625C75.0513 37.5427 74.7114 38.2186 74.7114 38.9789C74.7114 39.5703 74.9239 40.0771 75.2638 40.3728C75.5612 40.6685 76.1135 40.922 76.8783 40.922Z" fill="#00A3E0"/>
</g>
<mask id="mask6_264_160" style="mask-type:luminance" maskUnits="userSpaceOnUse" x="12" y="16" width="110" height="46">
<path d="M122 16H12V62H122V16Z" fill="white"/>
</mask>
<g mask="url(#mask6_264_160)">
<path d="M97.9521 42.865H95.0629V34.5859C95.0629 33.5299 94.8505 32.8118 94.4681 32.2626C94.0857 31.7557 93.4909 31.5023 92.6411 31.5023C91.5365 31.5023 90.6867 31.8402 90.2194 32.6006C89.752 33.3609 89.4121 34.5436 89.4121 36.191V42.9073H86.5229V29.4748H88.7748L89.1572 31.2489H89.3271C89.7095 30.6153 90.2618 30.1084 90.9841 29.7704C91.6639 29.4325 92.4712 29.2213 93.3209 29.2213C95.4028 29.2213 96.8049 29.8972 97.4422 31.3333H97.6547C98.0371 30.6997 98.5894 30.1506 99.3542 29.7704C100.119 29.3903 100.884 29.2213 101.818 29.2213C103.475 29.2213 104.58 29.6015 105.345 30.4463C106.11 31.2489 106.45 32.5161 106.45 34.1635V42.9495H103.56V34.6281C103.56 33.5721 103.348 32.854 102.966 32.3049C102.583 31.798 101.988 31.5445 101.139 31.5445C99.9915 31.5445 99.1842 31.8825 98.7169 32.6006C98.207 33.2764 97.9096 34.3747 97.9096 35.8108V42.865H97.9521Z" fill="#00A3E0"/>
</g>
<mask id="mask7_264_160" style="mask-type:luminance" maskUnits="userSpaceOnUse" x="12" y="16" width="110" height="46">
<path d="M122 16H12V62H122V16Z" fill="white"/>
</mask>
<g mask="url(#mask7_264_160)">
<path d="M116.604 43.1185C114.862 43.1185 113.587 42.5271 112.653 41.3021H112.483C112.568 42.4426 112.653 43.1185 112.653 43.3719V48.9054H109.764V29.4748H112.1C112.143 29.7282 112.313 30.3196 112.483 31.2911H112.653C113.545 29.8972 114.905 29.2635 116.689 29.2635C118.388 29.2635 119.706 29.8549 120.64 31.0799C121.575 32.3049 122.042 33.9945 122.042 36.191C122.042 38.3875 121.533 40.0771 120.598 41.3021C119.663 42.5693 118.346 43.1185 116.604 43.1185ZM115.924 31.5023C114.777 31.5023 113.927 31.8402 113.46 32.4738C112.908 33.1074 112.653 34.2057 112.653 35.6841V36.1488C112.653 37.7961 112.908 38.9789 113.46 39.697C114.012 40.4573 114.862 40.7952 116.052 40.7952C117.029 40.7952 117.836 40.4151 118.346 39.5703C118.898 38.7677 119.153 37.5849 119.153 36.1065C119.153 34.5859 118.898 33.4454 118.346 32.685C117.751 31.8825 116.986 31.5023 115.924 31.5023Z" fill="#00A3E0"/>
</g>
<mask id="mask8_264_160" style="mask-type:luminance" maskUnits="userSpaceOnUse" x="12" y="16" width="110" height="46">
<path d="M122 16H12V62H122V16Z" fill="white"/>
</mask>
<g mask="url(#mask8_264_160)">
<path d="M73.012 25.7998H121.745V16L73.012 25.7998Z" fill="#00A3E0"/>
</g>
<mask id="mask9_264_160" style="mask-type:luminance" maskUnits="userSpaceOnUse" x="12" y="16" width="110" height="46">
<path d="M122 16H12V62H122V16Z" fill="white"/>
</mask>
<g mask="url(#mask9_264_160)">
<path d="M14.4643 58.4095C14.4643 57.9871 14.1669 57.7337 13.657 57.7337C13.2746 57.7337 12.9772 57.8604 12.7223 58.0294V57.4803C12.9347 57.3113 13.3596 57.1846 13.742 57.1846C14.5492 57.1846 15.0166 57.607 15.0166 58.3251V60.5638H14.4643V60.3526C14.3368 60.4793 13.9969 60.6483 13.6145 60.6483C12.9347 60.6483 12.3824 60.2259 12.3824 59.5923C12.3824 58.9587 12.9347 58.5363 13.657 58.5363C13.9969 58.5363 14.3368 58.663 14.5068 58.7897V58.4095H14.4643ZM14.4643 59.4233C14.3793 59.1699 14.0394 59.0009 13.6995 59.0009C13.2746 59.0009 12.8922 59.1699 12.8922 59.5923C12.8922 60.0147 13.2746 60.1837 13.6995 60.1837C14.0394 60.1837 14.3793 60.0147 14.4643 59.7612V59.4233Z" fill="black"/>
</g>
<mask id="mask10_264_160" style="mask-type:luminance" maskUnits="userSpaceOnUse" x="12" y="16" width="110" height="46">
<path d="M122 16H12V62H122V16Z" fill="white"/>
</mask>
<g mask="url(#mask10_264_160)">
<path d="M21.4747 56.0018V60.6061H20.8799V58.494H18.2881V60.6061H17.6933V56.0018H18.2881V57.9871H20.8799V56.0018H21.4747Z" fill="black"/>
</g>
<mask id="mask11_264_160" style="mask-type:luminance" maskUnits="userSpaceOnUse" x="12" y="16" width="110" height="46">
<path d="M122 16H12V62H122V16Z" fill="white"/>
</mask>
<g mask="url(#mask11_264_160)">
<path d="M22.7068 59.0432C22.7493 59.8035 23.2167 60.1836 23.8115 60.1836C24.1939 60.1836 24.4488 60.0992 24.7462 59.888V60.3949C24.4913 60.6061 24.1089 60.6905 23.7265 60.6905C22.7493 60.6905 22.112 60.0569 22.112 59.0009C22.112 57.9871 22.7068 57.2268 23.5991 57.2268C24.4913 57.2268 24.9587 57.8604 24.9587 58.832V59.0432H22.7068ZM22.7068 58.6207H24.4488C24.4063 58.1139 24.1939 57.7337 23.6415 57.7337C23.1742 57.6915 22.8343 57.9871 22.7068 58.6207Z" fill="black"/>
</g>
<mask id="mask12_264_160" style="mask-type:luminance" maskUnits="userSpaceOnUse" x="12" y="16" width="110" height="46">
<path d="M122 16H12V62H122V16Z" fill="white"/>
</mask>
<g mask="url(#mask12_264_160)">
<path d="M28.5701 59.8035L29.2924 57.269H29.8447L28.8675 60.606H28.3152L27.6354 58.0716L26.9131 60.606H26.3608L25.3835 57.269H25.9784L26.7007 59.8035L27.3805 57.269H27.8903L28.5701 59.8035Z" fill="black"/>
</g>
<mask id="mask13_264_160" style="mask-type:luminance" maskUnits="userSpaceOnUse" x="12" y="16" width="110" height="46">
<path d="M122 16H12V62H122V16Z" fill="white"/>
</mask>
<g mask="url(#mask13_264_160)">
<path d="M31.0343 55.7484H30.482V60.6061H31.0343V55.7484Z" fill="black"/>
</g>
<mask id="mask14_264_160" style="mask-type:luminance" maskUnits="userSpaceOnUse" x="12" y="16" width="110" height="46">
<path d="M122 16H12V62H122V16Z" fill="white"/>
</mask>
<g mask="url(#mask14_264_160)">
<path d="M32.224 59.0432C32.2665 59.8035 32.7339 60.1836 33.3287 60.1836C33.7111 60.1836 33.966 60.0992 34.2634 59.888V60.3949C34.0085 60.6061 33.6261 60.6905 33.2437 60.6905C32.2665 60.6905 31.6292 60.0569 31.6292 59.0009C31.6292 57.9871 32.224 57.2268 33.1163 57.2268C34.0085 57.2268 34.4759 57.8604 34.4759 58.832V59.0432H32.224ZM32.2665 58.6207H34.0085C33.966 58.1139 33.7536 57.7337 33.2012 57.7337C32.7339 57.6915 32.3515 57.9871 32.2665 58.6207Z" fill="black"/>
</g>
<mask id="mask15_264_160" style="mask-type:luminance" maskUnits="userSpaceOnUse" x="12" y="16" width="110" height="46">
<path d="M122 16H12V62H122V16Z" fill="white"/>
</mask>
<g mask="url(#mask15_264_160)">
<path d="M36.1754 60.6061H35.623V57.776H34.9432V57.2691H35.623V56.4243H36.1754V57.2691H36.9826V57.776H36.1754V60.6061Z" fill="black"/>
</g>
<mask id="mask16_264_160" style="mask-type:luminance" maskUnits="userSpaceOnUse" x="12" y="16" width="110" height="46">
<path d="M122 16H12V62H122V16Z" fill="white"/>
</mask>
<g mask="url(#mask16_264_160)">
<path d="M38.5971 60.6061H38.0023V57.776H37.3225V57.2691H38.0023V56.4243H38.5971V57.2691H39.3619V57.776H38.5971V60.6061Z" fill="black"/>
</g>
<mask id="mask17_264_160" style="mask-type:luminance" maskUnits="userSpaceOnUse" x="12" y="16" width="110" height="46">
<path d="M122 16H12V62H122V16Z" fill="white"/>
</mask>
<g mask="url(#mask17_264_160)">
<path d="M42.336 58.7475V60.6061H41.7411V56.0018H43.4406C44.3754 56.0018 44.9702 56.4665 44.9702 57.3958C44.9702 58.2828 44.3754 58.7897 43.4406 58.7897H42.336V58.7475ZM43.4406 56.551H42.336V58.2828H43.4406C44.078 58.2828 44.4179 57.9449 44.4179 57.438C44.4179 56.8466 44.078 56.551 43.4406 56.551Z" fill="black"/>
</g>
<mask id="mask18_264_160" style="mask-type:luminance" maskUnits="userSpaceOnUse" x="12" y="16" width="110" height="46">
<path d="M122 16H12V62H122V16Z" fill="white"/>
</mask>
<g mask="url(#mask18_264_160)">
<path d="M47.3071 58.4095C47.3071 57.9871 47.0097 57.7337 46.4998 57.7337C46.1175 57.7337 45.82 57.8604 45.5651 58.0294V57.4803C45.7776 57.3113 46.2024 57.1846 46.5848 57.1846C47.3921 57.1846 47.8594 57.607 47.8594 58.3251V60.5638H47.3071V60.3526C47.1796 60.4793 46.8397 60.6483 46.4574 60.6483C45.7776 60.6483 45.2252 60.2259 45.2252 59.5923C45.2252 58.9587 45.7776 58.5363 46.4998 58.5363C46.8397 58.5363 47.1796 58.663 47.3496 58.7897V58.4095H47.3071ZM47.3071 59.4233C47.2221 59.1699 46.8822 59.0009 46.5423 59.0009C46.1175 59.0009 45.7351 59.1699 45.7351 59.5923C45.7351 60.0147 46.1175 60.1837 46.5423 60.1837C46.8822 60.1837 47.2221 60.0147 47.3071 59.7612V59.4233Z" fill="black"/>
</g>
<mask id="mask19_264_160" style="mask-type:luminance" maskUnits="userSpaceOnUse" x="12" y="16" width="110" height="46">
<path d="M122 16H12V62H122V16Z" fill="white"/>
</mask>
<g mask="url(#mask19_264_160)">
<path d="M50.0263 57.2268C50.3662 57.2268 50.7061 57.3113 50.9185 57.5225V58.0716C50.6636 57.8182 50.3662 57.7337 50.0688 57.7337C49.4739 57.7337 49.0066 58.1983 49.0066 58.9587C49.0066 59.719 49.4739 60.1836 50.0688 60.1836C50.4087 60.1836 50.7061 60.0992 50.9185 59.8457V60.3949C50.7061 60.6061 50.3662 60.6905 50.0263 60.6905C49.134 60.6905 48.4117 60.0147 48.4117 58.9587C48.4117 57.9027 49.134 57.2268 50.0263 57.2268Z" fill="black"/>
</g>
<mask id="mask20_264_160" style="mask-type:luminance" maskUnits="userSpaceOnUse" x="12" y="16" width="110" height="46">
<path d="M122 16H12V62H122V16Z" fill="white"/>
</mask>
<g mask="url(#mask20_264_160)">
<path d="M54.5299 60.6061H53.8077L52.2781 58.9587V60.6061H51.7258V55.7484H52.2781V58.663L53.7652 57.2691H54.4875L52.8729 58.7897L54.5299 60.6061Z" fill="black"/>
</g>
<mask id="mask21_264_160" style="mask-type:luminance" maskUnits="userSpaceOnUse" x="12" y="16" width="110" height="46">
<path d="M122 16H12V62H122V16Z" fill="white"/>
</mask>
<g mask="url(#mask21_264_160)">
<path d="M56.9092 58.4095C56.9092 57.9871 56.6118 57.7337 56.102 57.7337C55.7196 57.7337 55.4222 57.8604 55.1672 58.0294V57.4803C55.3797 57.3113 55.8045 57.1846 56.1869 57.1846C56.9942 57.1846 57.4616 57.607 57.4616 58.3251V60.5638H56.9092V60.3526C56.7818 60.4793 56.4419 60.6483 56.0595 60.6483C55.3797 60.6483 54.8273 60.2259 54.8273 59.5923C54.8273 58.9587 55.3797 58.5363 56.102 58.5363C56.4419 58.5363 56.7818 58.663 56.9517 58.7897V58.4095H56.9092ZM56.9092 59.4233C56.8242 59.1699 56.4843 59.0009 56.1444 59.0009C55.7196 59.0009 55.3372 59.1699 55.3372 59.5923C55.3372 60.0147 55.7196 60.1837 56.1444 60.1837C56.4843 60.1837 56.8242 60.0147 56.9092 59.7612V59.4233Z" fill="black"/>
</g>
<mask id="mask22_264_160" style="mask-type:luminance" maskUnits="userSpaceOnUse" x="12" y="16" width="110" height="46">
<path d="M122 16H12V62H122V16Z" fill="white"/>
</mask>
<g mask="url(#mask22_264_160)">
<path d="M59.9683 57.8604C59.8833 57.8182 59.7559 57.7759 59.5859 57.7759C59.246 57.7759 58.9061 57.9871 58.8211 58.4095V60.6483H58.2688V57.3113H58.8211V57.7337C58.9486 57.438 59.2885 57.2268 59.6284 57.2268C59.7559 57.2268 59.8833 57.269 59.9683 57.269V57.8604Z" fill="black"/>
</g>
<mask id="mask23_264_160" style="mask-type:luminance" maskUnits="userSpaceOnUse" x="12" y="16" width="110" height="46">
<path d="M122 16H12V62H122V16Z" fill="white"/>
</mask>
<g mask="url(#mask23_264_160)">
<path d="M62.7725 60.2259C62.6025 60.4794 62.2626 60.6906 61.8378 60.6906C60.8606 60.6906 60.3507 59.888 60.3507 58.9587C60.3507 58.0294 60.8606 57.2268 61.8378 57.2268C62.2626 57.2268 62.6025 57.438 62.7725 57.6915V55.7484H63.3248V60.6061H62.7725V60.2259ZM62.7725 58.2828C62.6025 57.9449 62.2626 57.7337 61.9227 57.7337C61.2854 57.7337 60.903 58.2406 60.903 58.9587C60.903 59.6768 61.2854 60.1837 61.9227 60.1837C62.2626 60.1837 62.6025 59.9725 62.7725 59.6345V58.2828Z" fill="black"/>
</g>
<mask id="mask24_264_160" style="mask-type:luminance" maskUnits="userSpaceOnUse" x="12" y="16" width="110" height="46">
<path d="M122 16H12V62H122V16Z" fill="white"/>
</mask>
<g mask="url(#mask24_264_160)">
<path d="M68.9756 56.0018V56.551H66.6388V57.9871H68.7632V58.494H66.6388V60.0569H68.9756V60.6061H66.044V56.0018H68.9756Z" fill="black"/>
</g>
<mask id="mask25_264_160" style="mask-type:luminance" maskUnits="userSpaceOnUse" x="12" y="16" width="110" height="46">
<path d="M122 16H12V62H122V16Z" fill="white"/>
</mask>
<g mask="url(#mask25_264_160)">
<path d="M69.7404 57.2691H70.2928V57.6915C70.5052 57.438 70.8451 57.1846 71.27 57.1846C72.0347 57.1846 72.4596 57.6915 72.4596 58.4095V60.6061H71.9073V58.5363C71.9073 58.0716 71.6948 57.7337 71.185 57.7337C70.8026 57.7337 70.4627 57.9871 70.3352 58.3673V60.6061H69.7829V57.2691H69.7404Z" fill="black"/>
</g>
<mask id="mask26_264_160" style="mask-type:luminance" maskUnits="userSpaceOnUse" x="12" y="16" width="110" height="46">
<path d="M122 16H12V62H122V16Z" fill="white"/>
</mask>
<g mask="url(#mask26_264_160)">
<path d="M74.2016 60.6061H73.6068V57.776H72.927V57.2691H73.6068V56.4243H74.2016V57.2691H74.9664V57.776H74.2016V60.6061Z" fill="black"/>
</g>
<mask id="mask27_264_160" style="mask-type:luminance" maskUnits="userSpaceOnUse" x="12" y="16" width="110" height="46">
<path d="M122 16H12V62H122V16Z" fill="white"/>
</mask>
<g mask="url(#mask27_264_160)">
<path d="M75.7737 59.0432C75.8161 59.8035 76.2835 60.1836 76.8783 60.1836C77.2607 60.1836 77.5156 60.0992 77.8131 59.888V60.3949C77.5581 60.6061 77.1757 60.6905 76.7934 60.6905C75.8161 60.6905 75.1788 60.0569 75.1788 59.0009C75.1788 57.9871 75.7737 57.2268 76.6659 57.2268C77.5581 57.2268 78.0255 57.8604 78.0255 58.832V59.0432H75.7737ZM75.7737 58.6207H77.5156C77.4732 58.1139 77.2607 57.7337 76.7084 57.7337C76.241 57.6915 75.9011 57.9871 75.7737 58.6207Z" fill="black"/>
</g>
<mask id="mask28_264_160" style="mask-type:luminance" maskUnits="userSpaceOnUse" x="12" y="16" width="110" height="46">
<path d="M122 16H12V62H122V16Z" fill="white"/>
</mask>
<g mask="url(#mask28_264_160)">
<path d="M80.4048 57.8604C80.3198 57.8182 80.1923 57.7759 80.0224 57.7759C79.6825 57.7759 79.3426 57.9871 79.2576 58.4095V60.6483H78.7053V57.3113H79.2576V57.7337C79.3851 57.438 79.725 57.2268 80.0649 57.2268C80.1923 57.2268 80.3198 57.269 80.4048 57.269V57.8604Z" fill="black"/>
</g>
<mask id="mask29_264_160" style="mask-type:luminance" maskUnits="userSpaceOnUse" x="12" y="16" width="110" height="46">
<path d="M122 16H12V62H122V16Z" fill="white"/>
</mask>
<g mask="url(#mask29_264_160)">
<path d="M81.5094 61.8733H80.9571V57.2691H81.5094V57.6492C81.6794 57.3958 82.0193 57.1846 82.4442 57.1846C83.4214 57.1846 83.9312 57.9871 83.9312 58.9164C83.9312 59.8457 83.4214 60.6483 82.4442 60.6483C82.0193 60.6483 81.6794 60.4371 81.5094 60.1837V61.8733ZM81.5094 59.6345C81.6794 59.9725 82.0193 60.1837 82.3592 60.1837C82.9965 60.1837 83.3789 59.6768 83.3789 58.9587C83.3789 58.2406 82.9965 57.7337 82.3592 57.7337C82.0193 57.7337 81.6794 57.9449 81.5094 58.2828V59.6345Z" fill="black"/>
</g>
<mask id="mask30_264_160" style="mask-type:luminance" maskUnits="userSpaceOnUse" x="12" y="16" width="110" height="46">
<path d="M122 16H12V62H122V16Z" fill="white"/>
</mask>
<g mask="url(#mask30_264_160)">
<path d="M86.268 57.8604C86.1831 57.8182 86.0556 57.7759 85.8856 57.7759C85.5457 57.7759 85.2059 57.9871 85.1209 58.4095V60.6483H84.5685V57.3113H85.1209V57.7337C85.2483 57.438 85.5882 57.2268 85.9281 57.2268C86.0556 57.2268 86.1831 57.269 86.268 57.269V57.8604Z" fill="black"/>
</g>
<mask id="mask31_264_160" style="mask-type:luminance" maskUnits="userSpaceOnUse" x="12" y="16" width="110" height="46">
<path d="M122 16H12V62H122V16Z" fill="white"/>
</mask>
<g mask="url(#mask31_264_160)">
<path d="M87.2453 56.6354C87.0329 56.6354 86.9054 56.4665 86.9054 56.2975C86.9054 56.0863 87.0753 55.9596 87.2453 55.9596C87.4577 55.9596 87.6277 56.1286 87.6277 56.2975C87.6277 56.4665 87.4577 56.6354 87.2453 56.6354ZM87.5427 60.6061H86.9904V57.2691H87.5427V60.6061Z" fill="black"/>
</g>
<mask id="mask32_264_160" style="mask-type:luminance" maskUnits="userSpaceOnUse" x="12" y="16" width="110" height="46">
<path d="M122 16H12V62H122V16Z" fill="white"/>
</mask>
<g mask="url(#mask32_264_160)">
<path d="M88.3499 59.7612C88.6473 60.0569 89.0297 60.2259 89.4546 60.2259C89.837 60.2259 90.1344 60.0992 90.1344 59.7612C90.1344 59.5078 89.9644 59.3811 89.667 59.2966L89.1997 59.1276C88.6898 58.9587 88.3499 58.7052 88.3499 58.1983C88.3499 57.607 88.8598 57.269 89.5396 57.269C89.922 57.269 90.2619 57.3535 90.5168 57.5647V58.1561C90.2194 57.9449 89.922 57.7759 89.5396 57.7759C89.1997 57.7759 88.9023 57.9449 88.9023 58.1983C88.9023 58.4518 89.0722 58.5363 89.4121 58.663L89.9219 58.8319C90.4318 59.0009 90.6867 59.2966 90.6867 59.7612C90.6867 60.3948 90.1344 60.7328 89.4546 60.7328C89.0297 60.7328 88.6048 60.606 88.3499 60.3948V59.7612Z" fill="black"/>
</g>
<mask id="mask33_264_160" style="mask-type:luminance" maskUnits="userSpaceOnUse" x="12" y="16" width="110" height="46">
<path d="M122 16H12V62H122V16Z" fill="white"/>
</mask>
<g mask="url(#mask33_264_160)">
<path d="M91.8338 59.0432C91.8763 59.8035 92.3437 60.1836 92.9385 60.1836C93.3209 60.1836 93.5758 60.0992 93.8732 59.888V60.3949C93.6183 60.6061 93.2359 60.6905 92.8535 60.6905C91.8763 60.6905 91.239 60.0569 91.239 59.0009C91.239 57.9871 91.8338 57.2268 92.7261 57.2268C93.6183 57.2268 94.0857 57.8604 94.0857 58.832V59.0432H91.8338ZM91.8338 58.6207H93.5758C93.5333 58.1139 93.3209 57.7337 92.7686 57.7337C92.3012 57.6915 91.9613 57.9871 91.8338 58.6207Z" fill="black"/>
</g>
<mask id="mask34_264_160" style="mask-type:luminance" maskUnits="userSpaceOnUse" x="12" y="16" width="110" height="46">
<path d="M122 16H12V62H122V16Z" fill="white"/>
</mask>
<g mask="url(#mask34_264_160)">
<path d="M97.9096 57.2268C98.2495 57.2268 98.5894 57.3113 98.8019 57.5225V58.0716C98.5469 57.8182 98.2495 57.7337 97.9521 57.7337C97.3573 57.7337 96.8899 58.1983 96.8899 58.9587C96.8899 59.719 97.3573 60.1836 97.9521 60.1836C98.292 60.1836 98.5894 60.0992 98.8019 59.8457V60.3949C98.5894 60.6061 98.2495 60.6905 97.9096 60.6905C97.0174 60.6905 96.2951 60.0147 96.2951 58.9587C96.2951 57.9027 97.0174 57.2268 97.9096 57.2268Z" fill="black"/>
</g>
<mask id="mask35_264_160" style="mask-type:luminance" maskUnits="userSpaceOnUse" x="12" y="16" width="110" height="46">
<path d="M122 16H12V62H122V16Z" fill="white"/>
</mask>
<g mask="url(#mask35_264_160)">
<path d="M100.884 60.6905C99.949 60.6905 99.3542 59.9724 99.3542 58.9587C99.3542 57.9449 99.9915 57.2268 100.884 57.2268C101.776 57.2268 102.413 57.9449 102.413 58.9587C102.413 59.9724 101.776 60.6905 100.884 60.6905ZM100.884 57.6915C100.289 57.6915 99.9065 58.1983 99.9065 58.9164C99.9065 59.6345 100.246 60.1414 100.884 60.1414C101.479 60.1414 101.861 59.6345 101.861 58.9164C101.861 58.2406 101.479 57.6915 100.884 57.6915Z" fill="black"/>
</g>
<mask id="mask36_264_160" style="mask-type:luminance" maskUnits="userSpaceOnUse" x="12" y="16" width="110" height="46">
<path d="M122 16H12V62H122V16Z" fill="white"/>
</mask>
<g mask="url(#mask36_264_160)">
<path d="M106.407 57.2268C107.087 57.2268 107.469 57.6915 107.469 58.4095V60.6061H106.917V58.494C106.917 58.0294 106.705 57.7337 106.28 57.7337C105.94 57.7337 105.642 57.9449 105.557 58.3251V60.6061H105.005V58.494C105.005 58.0294 104.793 57.7337 104.368 57.7337C104.028 57.7337 103.73 57.9449 103.645 58.3251V60.6061H103.093V57.2691H103.645V57.6492C103.815 57.3958 104.155 57.1846 104.538 57.1846C104.963 57.1846 105.302 57.3958 105.43 57.7337C105.6 57.438 105.94 57.2268 106.407 57.2268Z" fill="black"/>
</g>
<mask id="mask37_264_160" style="mask-type:luminance" maskUnits="userSpaceOnUse" x="12" y="16" width="110" height="46">
<path d="M122 16H12V62H122V16Z" fill="white"/>
</mask>
<g mask="url(#mask37_264_160)">
<path d="M108.829 61.8733H108.277V57.2691H108.829V57.6492C108.999 57.3958 109.339 57.1846 109.764 57.1846C110.741 57.1846 111.251 57.9871 111.251 58.9164C111.251 59.8457 110.741 60.6483 109.764 60.6483C109.339 60.6483 108.999 60.4371 108.829 60.1837V61.8733ZM108.829 59.6345C108.999 59.9725 109.339 60.1837 109.679 60.1837C110.316 60.1837 110.698 59.6768 110.698 58.9587C110.698 58.2406 110.316 57.7337 109.679 57.7337C109.339 57.7337 108.999 57.9449 108.829 58.2828V59.6345Z" fill="black"/>
</g>
<mask id="mask38_264_160" style="mask-type:luminance" maskUnits="userSpaceOnUse" x="12" y="16" width="110" height="46">
<path d="M122 16H12V62H122V16Z" fill="white"/>
</mask>
<g mask="url(#mask38_264_160)">
<path d="M113.885 58.4095C113.885 57.9871 113.588 57.7337 113.078 57.7337C112.695 57.7337 112.398 57.8604 112.143 58.0294V57.4803C112.355 57.3113 112.78 57.1846 113.163 57.1846C113.97 57.1846 114.437 57.607 114.437 58.3251V60.5638H113.885V60.3526C113.757 60.4793 113.418 60.6483 113.035 60.6483C112.355 60.6483 111.803 60.2259 111.803 59.5923C111.803 58.9587 112.355 58.5363 113.078 58.5363C113.418 58.5363 113.757 58.663 113.927 58.7897V58.4095H113.885ZM113.885 59.4233C113.8 59.1699 113.46 59.0009 113.12 59.0009C112.695 59.0009 112.313 59.1699 112.313 59.5923C112.313 60.0147 112.695 60.1837 113.12 60.1837C113.46 60.1837 113.8 60.0147 113.885 59.7612V59.4233Z" fill="black"/>
</g>
<mask id="mask39_264_160" style="mask-type:luminance" maskUnits="userSpaceOnUse" x="12" y="16" width="110" height="46">
<path d="M122 16H12V62H122V16Z" fill="white"/>
</mask>
<g mask="url(#mask39_264_160)">
<path d="M115.244 57.2691H115.797V57.6915C116.009 57.438 116.349 57.1846 116.774 57.1846C117.539 57.1846 117.964 57.6915 117.964 58.4095V60.6061H117.411V58.5363C117.411 58.0716 117.199 57.7337 116.689 57.7337C116.307 57.7337 115.967 57.9871 115.839 58.3673V60.6061H115.287V57.2691H115.244Z" fill="black"/>
</g>
<mask id="mask40_264_160" style="mask-type:luminance" maskUnits="userSpaceOnUse" x="12" y="16" width="110" height="46">
<path d="M122 16H12V62H122V16Z" fill="white"/>
</mask>
<g mask="url(#mask40_264_160)">
<path d="M119.323 61.8733L119.833 60.6483L118.516 57.269H119.153L120.131 59.888L121.108 57.269H121.703L119.876 61.8733H119.323Z" fill="black"/>
</g>
</g>
</svg>
