<svg width="134" height="78" viewBox="0 0 134 78" fill="none" xmlns="http://www.w3.org/2000/svg">
<mask id="mask0_360_1280" style="mask-type:luminance" maskUnits="userSpaceOnUse" x="12" y="16" width="110" height="46">
<path d="M122 16H12V62H122V16Z" fill="white"/>
</mask>
<g mask="url(#mask0_360_1280)">
<mask id="mask1_360_1280" style="mask-type:luminance" maskUnits="userSpaceOnUse" x="12" y="16" width="110" height="46">
<path d="M122 16H12V62H122V16Z" fill="white"/>
</mask>
<g mask="url(#mask1_360_1280)">
<path d="M28.4851 33.9523C28.4851 36.8247 27.7203 39.0212 26.3183 40.6686C24.8737 42.316 22.8343 43.1185 20.285 43.1185C17.6508 43.1185 15.6114 42.316 14.1669 40.7108C12.7223 39.1479 12.0425 36.8669 12.0425 33.9101C12.0425 30.9955 12.7223 28.799 14.1669 27.1516C15.6114 25.5887 17.6508 24.7861 20.285 24.7861C22.8768 24.7861 24.8312 25.5887 26.2758 27.1938C27.7628 28.8835 28.4851 31.08 28.4851 33.9523ZM14.2518 33.9523C14.2518 36.3601 14.7617 38.1764 15.7814 39.4436C16.8436 40.6686 18.3306 41.3022 20.285 41.3022C22.2395 41.3022 23.769 40.6686 24.7887 39.4436C25.7659 38.2186 26.3183 36.4023 26.3183 33.9523C26.3183 31.5024 25.8084 29.7705 24.8312 28.5455C23.854 27.3206 22.3669 26.687 20.37 26.687C18.3731 26.687 16.886 27.3206 15.8664 28.5455C14.7617 29.7705 14.2518 31.5869 14.2518 33.9523Z" fill="white"/>
</g>
<mask id="mask2_360_1280" style="mask-type:luminance" maskUnits="userSpaceOnUse" x="12" y="16" width="110" height="46">
<path d="M122 16H12V62H122V16Z" fill="white"/>
</mask>
<g mask="url(#mask2_360_1280)">
<path d="M37.7474 43.1186C36.8551 43.1186 36.0479 42.9496 35.3681 42.6117C34.6033 42.316 34.0085 41.8091 33.5411 41.1333H33.3712C33.4561 41.9358 33.5411 42.6539 33.5411 43.372V48.8633H31.5017V29.5171H33.1587L33.4561 31.3335H33.5411C34.0934 30.5731 34.6883 30.1085 35.3681 29.7706C36.0479 29.4326 36.8551 29.2637 37.7474 29.2637C39.5318 29.2637 40.9339 29.855 41.8686 31.08C42.8034 32.305 43.3132 33.9946 43.3132 36.1489C43.3132 38.3032 42.8034 40.035 41.8262 41.2178C40.8065 42.485 39.4893 43.1186 37.7474 43.1186ZM37.45 30.9955C36.0479 30.9955 35.0707 31.3757 34.4758 32.136C33.881 32.8964 33.5411 34.1213 33.5411 35.7265V36.1911C33.5411 38.0497 33.8385 39.4014 34.4758 40.2462C35.1131 41.0488 36.1328 41.4712 37.4924 41.4712C38.6396 41.4712 39.5743 41.0066 40.2116 40.0773C40.8489 39.148 41.1888 37.8385 41.1888 36.2334C41.1888 34.5437 40.8489 33.2765 40.2116 32.3895C39.5318 31.4602 38.6396 30.9955 37.45 30.9955Z" fill="white"/>
</g>
<mask id="mask3_360_1280" style="mask-type:luminance" maskUnits="userSpaceOnUse" x="12" y="16" width="110" height="46">
<path d="M122 16H12V62H122V16Z" fill="white"/>
</mask>
<g mask="url(#mask3_360_1280)">
<path d="M54.7848 39.2324C54.7848 40.4574 54.3174 41.4712 53.3827 42.1048C52.448 42.7807 51.1309 43.0763 49.4738 43.0763C47.6894 43.0763 46.2873 42.7807 45.3101 42.2315V40.3729C45.9474 40.7109 46.6697 40.9643 47.392 41.1755C48.1567 41.3867 48.8365 41.4712 49.5163 41.4712C50.5785 41.4712 51.3858 41.3022 51.9381 40.9643C52.5329 40.6264 52.7879 40.1195 52.7879 39.4437C52.7879 38.8945 52.5329 38.4721 52.1081 38.092C51.6407 37.754 50.7485 37.2894 49.4738 36.7403C48.2417 36.2756 47.3495 35.8532 46.7971 35.5153C46.2448 35.1774 45.8624 34.7549 45.6075 34.3325C45.3526 33.8679 45.2251 33.4032 45.2251 32.7696C45.2251 31.6714 45.6925 30.8266 46.5847 30.193C47.4769 29.5594 48.7091 29.2637 50.2386 29.2637C51.6832 29.2637 53.1278 29.5594 54.4449 30.1507L53.6801 31.7981C52.3205 31.249 51.0884 30.9533 50.0262 30.9533C49.0915 30.9533 48.3267 31.1223 47.8593 31.4179C47.3495 31.7136 47.0945 32.0938 47.0945 32.6429C47.0945 32.9808 47.1795 33.2765 47.392 33.5722C47.6044 33.8679 47.9018 34.0791 48.2842 34.3325C48.6666 34.586 49.4738 34.8817 50.621 35.3041C52.193 35.8954 53.2977 36.4446 53.8501 37.0359C54.5723 37.5851 54.7848 38.3454 54.7848 39.2324Z" fill="white"/>
</g>
<mask id="mask4_360_1280" style="mask-type:luminance" maskUnits="userSpaceOnUse" x="12" y="16" width="110" height="46">
<path d="M122 16H12V62H122V16Z" fill="white"/>
</mask>
<g mask="url(#mask4_360_1280)">
<path d="M60.5632 35.7684V42.8648H57.6316V25.0815H62.6876C65.0244 25.0815 66.7239 25.5462 67.7861 26.3488C68.8908 27.1936 69.4856 28.503 69.4856 30.2349C69.4856 32.4736 68.3384 34.0365 66.0016 34.9658L71.0576 42.8648H67.7436L63.4949 35.7684H60.5632ZM60.5632 33.3607H62.6026C63.9622 33.3607 64.9394 33.1073 65.5767 32.6004C66.2141 32.0935 66.5115 31.3754 66.5115 30.3616C66.5115 29.3478 66.1716 28.672 65.4918 28.2496C64.812 27.8272 63.8348 27.616 62.5176 27.616H60.5632V33.4029V33.3607Z" fill="white"/>
</g>
<mask id="mask5_360_1280" style="mask-type:luminance" maskUnits="userSpaceOnUse" x="12" y="16" width="110" height="46">
<path d="M122 16H12V62H122V16Z" fill="white"/>
</mask>
<g mask="url(#mask5_360_1280)">
<path d="M81.127 42.8651L80.5322 41.0066H80.4473C79.8099 41.8514 79.1726 42.4005 78.4503 42.6962C77.7705 42.9919 76.9633 43.1608 75.9011 43.1608C74.5415 43.1608 73.5218 42.8229 72.757 42.0626C71.9922 41.3867 71.6099 40.3307 71.6099 39.0635C71.6099 37.6696 72.1197 36.6558 73.1394 35.8955C74.1591 35.1351 75.7736 34.7972 77.8555 34.755L80.1923 34.7127V33.9101C80.1923 33.0653 79.9799 32.4317 79.5975 31.9671C79.2151 31.5024 78.5353 31.3335 77.7281 31.3335C77.0483 31.3335 76.3685 31.418 75.7311 31.6292C75.0938 31.8404 74.499 32.0938 73.9042 32.3895L72.9695 30.3619C73.7342 29.9818 74.499 29.6861 75.3912 29.4749C76.2835 29.2637 77.0907 29.1792 77.8555 29.1792C79.5975 29.1792 80.8721 29.5594 81.7644 30.3197C82.6566 31.08 83.124 32.2628 83.124 33.8257V42.9074H81.127V42.8651ZM76.8783 40.9221C77.9405 40.9221 78.7478 40.6264 79.4276 40.035C80.0649 39.4437 80.3623 38.6411 80.3623 37.6273V36.4446L78.6203 36.4868C77.2607 36.5291 76.2835 36.7825 75.6462 37.1627C75.0513 37.5428 74.7114 38.2187 74.7114 38.979C74.7114 39.5704 74.9239 40.0773 75.2638 40.373C75.5612 40.6686 76.1135 40.9221 76.8783 40.9221Z" fill="white"/>
</g>
<mask id="mask6_360_1280" style="mask-type:luminance" maskUnits="userSpaceOnUse" x="12" y="16" width="110" height="46">
<path d="M122 16H12V62H122V16Z" fill="white"/>
</mask>
<g mask="url(#mask6_360_1280)">
<path d="M97.9521 42.8649H95.0629V34.5857C95.0629 33.5297 94.8505 32.8116 94.4681 32.2625C94.0857 31.7556 93.4909 31.5022 92.6411 31.5022C91.5365 31.5022 90.6867 31.8401 90.2194 32.6004C89.752 33.3608 89.4121 34.5435 89.4121 36.1909V42.9071H86.5229V29.4746H88.7748L89.1572 31.2487H89.3271C89.7095 30.6151 90.2618 30.1082 90.9841 29.7703C91.6639 29.4324 92.4712 29.2212 93.3209 29.2212C95.4028 29.2212 96.8049 29.897 97.4422 31.3332H97.6547C98.0371 30.6996 98.5894 30.1505 99.3542 29.7703C100.119 29.3902 100.884 29.2212 101.818 29.2212C103.475 29.2212 104.58 29.6014 105.345 30.4462C106.11 31.2487 106.45 32.516 106.45 34.1633V42.9494H103.56V34.628C103.56 33.572 103.348 32.8539 102.966 32.3048C102.583 31.7979 101.988 31.5444 101.139 31.5444C99.9915 31.5444 99.1842 31.8823 98.7169 32.6004C98.207 33.2763 97.9096 34.3745 97.9096 35.8107V42.8649H97.9521Z" fill="white"/>
</g>
<mask id="mask7_360_1280" style="mask-type:luminance" maskUnits="userSpaceOnUse" x="12" y="16" width="110" height="46">
<path d="M122 16H12V62H122V16Z" fill="white"/>
</mask>
<g mask="url(#mask7_360_1280)">
<path d="M116.604 43.1186C114.862 43.1186 113.588 42.5272 112.653 41.3022H112.483C112.568 42.4427 112.653 43.1186 112.653 43.372V48.9055H109.764V29.4749H112.1C112.143 29.7283 112.313 30.3197 112.483 31.2912H112.653C113.545 29.8973 114.905 29.2637 116.689 29.2637C118.389 29.2637 119.706 29.855 120.64 31.08C121.575 32.305 122.043 33.9946 122.043 36.1911C122.043 38.3876 121.533 40.0773 120.598 41.3022C119.663 42.5695 118.346 43.1186 116.604 43.1186ZM115.924 31.5024C114.777 31.5024 113.927 31.8403 113.46 32.474C112.908 33.1076 112.653 34.2058 112.653 35.6842V36.1489C112.653 37.7963 112.908 38.979 113.46 39.6971C114.012 40.4574 114.862 40.7954 116.052 40.7954C117.029 40.7954 117.836 40.4152 118.346 39.5704C118.898 38.7678 119.153 37.5851 119.153 36.1066C119.153 34.586 118.898 33.4455 118.346 32.6852C117.751 31.8826 116.987 31.5024 115.924 31.5024Z" fill="white"/>
</g>
<mask id="mask8_360_1280" style="mask-type:luminance" maskUnits="userSpaceOnUse" x="12" y="16" width="110" height="46">
<path d="M122 16H12V62H122V16Z" fill="white"/>
</mask>
<g mask="url(#mask8_360_1280)">
<path d="M73.012 25.7998H121.745V16L73.012 25.7998Z" fill="white"/>
</g>
<mask id="mask9_360_1280" style="mask-type:luminance" maskUnits="userSpaceOnUse" x="12" y="16" width="110" height="46">
<path d="M122 16H12V62H122V16Z" fill="white"/>
</mask>
<g mask="url(#mask9_360_1280)">
<path d="M14.4642 58.4095C14.4642 57.9871 14.1668 57.7337 13.6569 57.7337C13.2746 57.7337 12.9771 57.8604 12.7222 58.0294V57.4803C12.9347 57.3113 13.3595 57.1846 13.7419 57.1846C14.5492 57.1846 15.0165 57.607 15.0165 58.3251V60.5638H14.4642V60.3526C14.3367 60.4793 13.9968 60.6483 13.6145 60.6483C12.9347 60.6483 12.3823 60.2259 12.3823 59.5923C12.3823 58.9587 12.9347 58.5363 13.6569 58.5363C13.9968 58.5363 14.3367 58.663 14.5067 58.7897V58.4095H14.4642ZM14.4642 59.4233C14.3792 59.1699 14.0393 59.0009 13.6994 59.0009C13.2746 59.0009 12.8922 59.1699 12.8922 59.5923C12.8922 60.0147 13.2746 60.1837 13.6994 60.1837C14.0393 60.1837 14.3792 60.0147 14.4642 59.7612V59.4233Z" fill="white"/>
</g>
<mask id="mask10_360_1280" style="mask-type:luminance" maskUnits="userSpaceOnUse" x="12" y="16" width="110" height="46">
<path d="M122 16H12V62H122V16Z" fill="white"/>
</mask>
<g mask="url(#mask10_360_1280)">
<path d="M21.4747 56.002V60.6062H20.8799V58.4941H18.2882V60.6062H17.6934V56.002H18.2882V57.9873H20.8799V56.002H21.4747Z" fill="white"/>
</g>
<mask id="mask11_360_1280" style="mask-type:luminance" maskUnits="userSpaceOnUse" x="12" y="16" width="110" height="46">
<path d="M122 16H12V62H122V16Z" fill="white"/>
</mask>
<g mask="url(#mask11_360_1280)">
<path d="M22.7069 59.0429C22.7494 59.8032 23.2167 60.1834 23.8116 60.1834C24.1939 60.1834 24.4489 60.0989 24.7463 59.8877V60.3946C24.4914 60.6058 24.109 60.6903 23.7266 60.6903C22.7494 60.6903 22.1121 60.0567 22.1121 59.0007C22.1121 57.9869 22.7069 57.2266 23.5991 57.2266C24.4914 57.2266 24.9587 57.8602 24.9587 58.8317V59.0429H22.7069ZM22.7069 58.6205H24.4489C24.4064 58.1136 24.1939 57.7335 23.6416 57.7335C23.1742 57.6912 22.8343 57.9869 22.7069 58.6205Z" fill="white"/>
</g>
<mask id="mask12_360_1280" style="mask-type:luminance" maskUnits="userSpaceOnUse" x="12" y="16" width="110" height="46">
<path d="M122 16H12V62H122V16Z" fill="white"/>
</mask>
<g mask="url(#mask12_360_1280)">
<path d="M28.5701 59.8035L29.2924 57.269H29.8447L28.8675 60.606H28.3152L27.6354 58.0716L26.9131 60.606H26.3608L25.3835 57.269H25.9784L26.7007 59.8035L27.3805 57.269H27.8903L28.5701 59.8035Z" fill="white"/>
</g>
<mask id="mask13_360_1280" style="mask-type:luminance" maskUnits="userSpaceOnUse" x="12" y="16" width="110" height="46">
<path d="M122 16H12V62H122V16Z" fill="white"/>
</mask>
<g mask="url(#mask13_360_1280)">
<path d="M31.0343 55.7485H30.4819V60.6062H31.0343V55.7485Z" fill="white"/>
</g>
<mask id="mask14_360_1280" style="mask-type:luminance" maskUnits="userSpaceOnUse" x="12" y="16" width="110" height="46">
<path d="M122 16H12V62H122V16Z" fill="white"/>
</mask>
<g mask="url(#mask14_360_1280)">
<path d="M32.224 59.0429C32.2665 59.8032 32.7338 60.1834 33.3286 60.1834C33.711 60.1834 33.966 60.0989 34.2634 59.8877V60.3946C34.0084 60.6058 33.6261 60.6903 33.2437 60.6903C32.2665 60.6903 31.6292 60.0567 31.6292 59.0007C31.6292 57.9869 32.224 57.2266 33.1162 57.2266C34.0084 57.2266 34.4758 57.8602 34.4758 58.8317V59.0429H32.224ZM32.2665 58.6205H34.0084C33.966 58.1136 33.7535 57.7335 33.2012 57.7335C32.7338 57.6912 32.3514 57.9869 32.2665 58.6205Z" fill="white"/>
</g>
<mask id="mask15_360_1280" style="mask-type:luminance" maskUnits="userSpaceOnUse" x="12" y="16" width="110" height="46">
<path d="M122 16H12V62H122V16Z" fill="white"/>
</mask>
<g mask="url(#mask15_360_1280)">
<path d="M36.1755 60.6061H35.6232V57.776H34.9434V57.2691H35.6232V56.4243H36.1755V57.2691H36.9828V57.776H36.1755V60.6061Z" fill="white"/>
</g>
<mask id="mask16_360_1280" style="mask-type:luminance" maskUnits="userSpaceOnUse" x="12" y="16" width="110" height="46">
<path d="M122 16H12V62H122V16Z" fill="white"/>
</mask>
<g mask="url(#mask16_360_1280)">
<path d="M38.5971 60.6061H38.0023V57.776H37.3225V57.2691H38.0023V56.4243H38.5971V57.2691H39.3619V57.776H38.5971V60.6061Z" fill="white"/>
</g>
<mask id="mask17_360_1280" style="mask-type:luminance" maskUnits="userSpaceOnUse" x="12" y="16" width="110" height="46">
<path d="M122 16H12V62H122V16Z" fill="white"/>
</mask>
<g mask="url(#mask17_360_1280)">
<path d="M42.336 58.7476V60.6062H41.7412V56.002H43.4407C44.3754 56.002 44.9703 56.4666 44.9703 57.3959C44.9703 58.2829 44.3754 58.7898 43.4407 58.7898H42.336V58.7476ZM43.4407 56.5511H42.336V58.2829H43.4407C44.078 58.2829 44.4179 57.945 44.4179 57.4381C44.4179 56.8468 44.078 56.5511 43.4407 56.5511Z" fill="white"/>
</g>
<mask id="mask18_360_1280" style="mask-type:luminance" maskUnits="userSpaceOnUse" x="12" y="16" width="110" height="46">
<path d="M122 16H12V62H122V16Z" fill="white"/>
</mask>
<g mask="url(#mask18_360_1280)">
<path d="M47.307 58.4095C47.307 57.9871 47.0096 57.7337 46.4997 57.7337C46.1173 57.7337 45.8199 57.8604 45.565 58.0294V57.4803C45.7774 57.3113 46.2023 57.1846 46.5847 57.1846C47.392 57.1846 47.8593 57.607 47.8593 58.3251V60.5638H47.307V60.3526C47.1795 60.4793 46.8396 60.6483 46.4572 60.6483C45.7774 60.6483 45.2251 60.2259 45.2251 59.5923C45.2251 58.9587 45.7774 58.5363 46.4997 58.5363C46.8396 58.5363 47.1795 58.663 47.3495 58.7897V58.4095H47.307ZM47.307 59.4233C47.222 59.1699 46.8821 59.0009 46.5422 59.0009C46.1173 59.0009 45.7349 59.1699 45.7349 59.5923C45.7349 60.0147 46.1173 60.1837 46.5422 60.1837C46.8821 60.1837 47.222 60.0147 47.307 59.7612V59.4233Z" fill="white"/>
</g>
<mask id="mask19_360_1280" style="mask-type:luminance" maskUnits="userSpaceOnUse" x="12" y="16" width="110" height="46">
<path d="M122 16H12V62H122V16Z" fill="white"/>
</mask>
<g mask="url(#mask19_360_1280)">
<path d="M50.0264 57.2266C50.3663 57.2266 50.7062 57.311 50.9186 57.5222V58.0714C50.6637 57.8179 50.3663 57.7335 50.0689 57.7335C49.4741 57.7335 49.0067 58.1981 49.0067 58.9584C49.0067 59.7188 49.4741 60.1834 50.0689 60.1834C50.4088 60.1834 50.7062 60.0989 50.9186 59.8455V60.3946C50.7062 60.6058 50.3663 60.6903 50.0264 60.6903C49.1342 60.6903 48.4119 60.0144 48.4119 58.9584C48.4119 57.9024 49.1342 57.2266 50.0264 57.2266Z" fill="white"/>
</g>
<mask id="mask20_360_1280" style="mask-type:luminance" maskUnits="userSpaceOnUse" x="12" y="16" width="110" height="46">
<path d="M122 16H12V62H122V16Z" fill="white"/>
</mask>
<g mask="url(#mask20_360_1280)">
<path d="M54.53 60.6062H53.8077L52.2782 58.9588V60.6062H51.7258V55.7485H52.2782V58.6631L53.7652 57.2692H54.4875L52.873 58.7899L54.53 60.6062Z" fill="white"/>
</g>
<mask id="mask21_360_1280" style="mask-type:luminance" maskUnits="userSpaceOnUse" x="12" y="16" width="110" height="46">
<path d="M122 16H12V62H122V16Z" fill="white"/>
</mask>
<g mask="url(#mask21_360_1280)">
<path d="M56.9093 58.4095C56.9093 57.9871 56.6119 57.7337 56.102 57.7337C55.7196 57.7337 55.4222 57.8604 55.1673 58.0294V57.4803C55.3797 57.3113 55.8046 57.1846 56.187 57.1846C56.9943 57.1846 57.4616 57.607 57.4616 58.3251V60.5638H56.9093V60.3526C56.7818 60.4793 56.4419 60.6483 56.0595 60.6483C55.3797 60.6483 54.8274 60.2259 54.8274 59.5923C54.8274 58.9587 55.3797 58.5363 56.102 58.5363C56.4419 58.5363 56.7818 58.663 56.9518 58.7897V58.4095H56.9093ZM56.9093 59.4233C56.8243 59.1699 56.4844 59.0009 56.1445 59.0009C55.7196 59.0009 55.3372 59.1699 55.3372 59.5923C55.3372 60.0147 55.7196 60.1837 56.1445 60.1837C56.4844 60.1837 56.8243 60.0147 56.9093 59.7612V59.4233Z" fill="white"/>
</g>
<mask id="mask22_360_1280" style="mask-type:luminance" maskUnits="userSpaceOnUse" x="12" y="16" width="110" height="46">
<path d="M122 16H12V62H122V16Z" fill="white"/>
</mask>
<g mask="url(#mask22_360_1280)">
<path d="M59.9683 57.8602C59.8833 57.8179 59.7559 57.7757 59.5859 57.7757C59.246 57.7757 58.9061 57.9869 58.8211 58.4093V60.648H58.2688V57.311H58.8211V57.7335C58.9486 57.4378 59.2885 57.2266 59.6284 57.2266C59.7559 57.2266 59.8833 57.2688 59.9683 57.2688V57.8602Z" fill="white"/>
</g>
<mask id="mask23_360_1280" style="mask-type:luminance" maskUnits="userSpaceOnUse" x="12" y="16" width="110" height="46">
<path d="M122 16H12V62H122V16Z" fill="white"/>
</mask>
<g mask="url(#mask23_360_1280)">
<path d="M62.7724 60.226C62.6024 60.4795 62.2625 60.6907 61.8376 60.6907C60.8604 60.6907 60.3506 59.8881 60.3506 58.9588C60.3506 58.0295 60.8604 57.227 61.8376 57.227C62.2625 57.227 62.6024 57.4382 62.7724 57.6916V55.7485H63.3247V60.6062H62.7724V60.226ZM62.7724 58.283C62.6024 57.945 62.2625 57.7338 61.9226 57.7338C61.2853 57.7338 60.9029 58.2407 60.9029 58.9588C60.9029 59.6769 61.2853 60.1838 61.9226 60.1838C62.2625 60.1838 62.6024 59.9726 62.7724 59.6347V58.283Z" fill="white"/>
</g>
<mask id="mask24_360_1280" style="mask-type:luminance" maskUnits="userSpaceOnUse" x="12" y="16" width="110" height="46">
<path d="M122 16H12V62H122V16Z" fill="white"/>
</mask>
<g mask="url(#mask24_360_1280)">
<path d="M68.9756 56.002V56.5511H66.6388V57.9873H68.7631V58.4941H66.6388V60.0571H68.9756V60.6062H66.0439V56.002H68.9756Z" fill="white"/>
</g>
<mask id="mask25_360_1280" style="mask-type:luminance" maskUnits="userSpaceOnUse" x="12" y="16" width="110" height="46">
<path d="M122 16H12V62H122V16Z" fill="white"/>
</mask>
<g mask="url(#mask25_360_1280)">
<path d="M69.7405 57.2691H70.2928V57.6915C70.5053 57.438 70.8452 57.1846 71.27 57.1846C72.0348 57.1846 72.4597 57.6915 72.4597 58.4095V60.6061H71.9073V58.5363C71.9073 58.0716 71.6949 57.7337 71.1851 57.7337C70.8027 57.7337 70.4628 57.9871 70.3353 58.3673V60.6061H69.783V57.2691H69.7405Z" fill="white"/>
</g>
<mask id="mask26_360_1280" style="mask-type:luminance" maskUnits="userSpaceOnUse" x="12" y="16" width="110" height="46">
<path d="M122 16H12V62H122V16Z" fill="white"/>
</mask>
<g mask="url(#mask26_360_1280)">
<path d="M74.2016 60.6061H73.6068V57.776H72.927V57.2691H73.6068V56.4243H74.2016V57.2691H74.9664V57.776H74.2016V60.6061Z" fill="white"/>
</g>
<mask id="mask27_360_1280" style="mask-type:luminance" maskUnits="userSpaceOnUse" x="12" y="16" width="110" height="46">
<path d="M122 16H12V62H122V16Z" fill="white"/>
</mask>
<g mask="url(#mask27_360_1280)">
<path d="M75.7738 59.0429C75.8163 59.8032 76.2836 60.1834 76.8785 60.1834C77.2608 60.1834 77.5158 60.0989 77.8132 59.8877V60.3946C77.5583 60.6058 77.1759 60.6903 76.7935 60.6903C75.8163 60.6903 75.179 60.0567 75.179 59.0007C75.179 57.9869 75.7738 57.2266 76.666 57.2266C77.5583 57.2266 78.0256 57.8602 78.0256 58.8317V59.0429H75.7738ZM75.7738 58.6205H77.5158C77.4733 58.1136 77.2608 57.7335 76.7085 57.7335C76.2411 57.6912 75.9012 57.9869 75.7738 58.6205Z" fill="white"/>
</g>
<mask id="mask28_360_1280" style="mask-type:luminance" maskUnits="userSpaceOnUse" x="12" y="16" width="110" height="46">
<path d="M122 16H12V62H122V16Z" fill="white"/>
</mask>
<g mask="url(#mask28_360_1280)">
<path d="M80.4048 57.8602C80.3198 57.8179 80.1924 57.7757 80.0224 57.7757C79.6825 57.7757 79.3426 57.9869 79.2577 58.4093V60.648H78.7053V57.311H79.2577V57.7335C79.3851 57.4378 79.725 57.2266 80.0649 57.2266C80.1924 57.2266 80.3198 57.2688 80.4048 57.2688V57.8602Z" fill="white"/>
</g>
<mask id="mask29_360_1280" style="mask-type:luminance" maskUnits="userSpaceOnUse" x="12" y="16" width="110" height="46">
<path d="M122 16H12V62H122V16Z" fill="white"/>
</mask>
<g mask="url(#mask29_360_1280)">
<path d="M81.5094 61.8733H80.957V57.2691H81.5094V57.6492C81.6793 57.3958 82.0192 57.1846 82.4441 57.1846C83.4213 57.1846 83.9312 57.9871 83.9312 58.9164C83.9312 59.8457 83.4213 60.6483 82.4441 60.6483C82.0192 60.6483 81.6793 60.4371 81.5094 60.1837V61.8733ZM81.5094 59.6345C81.6793 59.9725 82.0192 60.1837 82.3591 60.1837C82.9964 60.1837 83.3788 59.6768 83.3788 58.9587C83.3788 58.2406 82.9964 57.7337 82.3591 57.7337C82.0192 57.7337 81.6793 57.9449 81.5094 58.2828V59.6345Z" fill="white"/>
</g>
<mask id="mask30_360_1280" style="mask-type:luminance" maskUnits="userSpaceOnUse" x="12" y="16" width="110" height="46">
<path d="M122 16H12V62H122V16Z" fill="white"/>
</mask>
<g mask="url(#mask30_360_1280)">
<path d="M86.2681 57.8602C86.1831 57.8179 86.0557 57.7757 85.8857 57.7757C85.5458 57.7757 85.2059 57.9869 85.1209 58.4093V60.648H84.5686V57.311H85.1209V57.7335C85.2484 57.4378 85.5883 57.2266 85.9282 57.2266C86.0557 57.2266 86.1831 57.2688 86.2681 57.2688V57.8602Z" fill="white"/>
</g>
<mask id="mask31_360_1280" style="mask-type:luminance" maskUnits="userSpaceOnUse" x="12" y="16" width="110" height="46">
<path d="M122 16H12V62H122V16Z" fill="white"/>
</mask>
<g mask="url(#mask31_360_1280)">
<path d="M87.2452 56.6353C87.0327 56.6353 86.9053 56.4664 86.9053 56.2974C86.9053 56.0862 87.0752 55.9595 87.2452 55.9595C87.4576 55.9595 87.6276 56.1284 87.6276 56.2974C87.6276 56.4664 87.4576 56.6353 87.2452 56.6353ZM87.5426 60.6059H86.9902V57.2689H87.5426V60.6059Z" fill="white"/>
</g>
<mask id="mask32_360_1280" style="mask-type:luminance" maskUnits="userSpaceOnUse" x="12" y="16" width="110" height="46">
<path d="M122 16H12V62H122V16Z" fill="white"/>
</mask>
<g mask="url(#mask32_360_1280)">
<path d="M88.3499 59.7612C88.6473 60.0569 89.0297 60.2259 89.4545 60.2259C89.8369 60.2259 90.1343 60.0992 90.1343 59.7612C90.1343 59.5078 89.9644 59.3811 89.667 59.2966L89.1996 59.1276C88.6898 58.9587 88.3499 58.7052 88.3499 58.1983C88.3499 57.607 88.8597 57.269 89.5395 57.269C89.9219 57.269 90.2618 57.3535 90.5167 57.5647V58.1561C90.2193 57.9449 89.9219 57.7759 89.5395 57.7759C89.1996 57.7759 88.9022 57.9449 88.9022 58.1983C88.9022 58.4518 89.0721 58.5363 89.412 58.663L89.9219 58.8319C90.4317 59.0009 90.6867 59.2966 90.6867 59.7612C90.6867 60.3948 90.1343 60.7328 89.4545 60.7328C89.0297 60.7328 88.6048 60.606 88.3499 60.3948V59.7612Z" fill="white"/>
</g>
<mask id="mask33_360_1280" style="mask-type:luminance" maskUnits="userSpaceOnUse" x="12" y="16" width="110" height="46">
<path d="M122 16H12V62H122V16Z" fill="white"/>
</mask>
<g mask="url(#mask33_360_1280)">
<path d="M91.8338 59.0429C91.8763 59.8032 92.3437 60.1834 92.9385 60.1834C93.3209 60.1834 93.5758 60.0989 93.8732 59.8877V60.3946C93.6183 60.6058 93.2359 60.6903 92.8535 60.6903C91.8763 60.6903 91.239 60.0567 91.239 59.0007C91.239 57.9869 91.8338 57.2266 92.7261 57.2266C93.6183 57.2266 94.0857 57.8602 94.0857 58.8317V59.0429H91.8338ZM91.8338 58.6205H93.5758C93.5333 58.1136 93.3209 57.7335 92.7686 57.7335C92.3012 57.6912 91.9613 57.9869 91.8338 58.6205Z" fill="white"/>
</g>
<mask id="mask34_360_1280" style="mask-type:luminance" maskUnits="userSpaceOnUse" x="12" y="16" width="110" height="46">
<path d="M122 16H12V62H122V16Z" fill="white"/>
</mask>
<g mask="url(#mask34_360_1280)">
<path d="M97.9097 57.2266C98.2496 57.2266 98.5895 57.311 98.8019 57.5222V58.0714C98.547 57.8179 98.2496 57.7335 97.9522 57.7335C97.3574 57.7335 96.89 58.1981 96.89 58.9584C96.89 59.7188 97.3574 60.1834 97.9522 60.1834C98.2921 60.1834 98.5895 60.0989 98.8019 59.8455V60.3946C98.5895 60.6058 98.2496 60.6903 97.9097 60.6903C97.0175 60.6903 96.2952 60.0144 96.2952 58.9584C96.2952 57.9024 97.0175 57.2266 97.9097 57.2266Z" fill="white"/>
</g>
<mask id="mask35_360_1280" style="mask-type:luminance" maskUnits="userSpaceOnUse" x="12" y="16" width="110" height="46">
<path d="M122 16H12V62H122V16Z" fill="white"/>
</mask>
<g mask="url(#mask35_360_1280)">
<path d="M100.884 60.6903C99.9491 60.6903 99.3542 59.9722 99.3542 58.9584C99.3542 57.9447 99.9916 57.2266 100.884 57.2266C101.776 57.2266 102.413 57.9447 102.413 58.9584C102.413 59.9722 101.776 60.6903 100.884 60.6903ZM100.884 57.6912C100.289 57.6912 99.9066 58.1981 99.9066 58.9162C99.9066 59.6343 100.246 60.1412 100.884 60.1412C101.479 60.1412 101.861 59.6343 101.861 58.9162C101.861 58.2403 101.479 57.6912 100.884 57.6912Z" fill="white"/>
</g>
<mask id="mask36_360_1280" style="mask-type:luminance" maskUnits="userSpaceOnUse" x="12" y="16" width="110" height="46">
<path d="M122 16H12V62H122V16Z" fill="white"/>
</mask>
<g mask="url(#mask36_360_1280)">
<path d="M106.407 57.2268C107.087 57.2268 107.469 57.6915 107.469 58.4095V60.6061H106.917V58.494C106.917 58.0294 106.704 57.7337 106.28 57.7337C105.94 57.7337 105.642 57.9449 105.557 58.3251V60.6061H105.005V58.494C105.005 58.0294 104.793 57.7337 104.368 57.7337C104.028 57.7337 103.73 57.9449 103.645 58.3251V60.6061H103.093V57.2691H103.645V57.6492C103.815 57.3958 104.155 57.1846 104.538 57.1846C104.962 57.1846 105.302 57.3958 105.43 57.7337C105.6 57.438 105.94 57.2268 106.407 57.2268Z" fill="white"/>
</g>
<mask id="mask37_360_1280" style="mask-type:luminance" maskUnits="userSpaceOnUse" x="12" y="16" width="110" height="46">
<path d="M122 16H12V62H122V16Z" fill="white"/>
</mask>
<g mask="url(#mask37_360_1280)">
<path d="M108.829 61.8733H108.277V57.2691H108.829V57.6492C108.999 57.3958 109.339 57.1846 109.764 57.1846C110.741 57.1846 111.251 57.9871 111.251 58.9164C111.251 59.8457 110.741 60.6483 109.764 60.6483C109.339 60.6483 108.999 60.4371 108.829 60.1837V61.8733ZM108.829 59.6345C108.999 59.9725 109.339 60.1837 109.679 60.1837C110.316 60.1837 110.698 59.6768 110.698 58.9587C110.698 58.2406 110.316 57.7337 109.679 57.7337C109.339 57.7337 108.999 57.9449 108.829 58.2828V59.6345Z" fill="white"/>
</g>
<mask id="mask38_360_1280" style="mask-type:luminance" maskUnits="userSpaceOnUse" x="12" y="16" width="110" height="46">
<path d="M122 16H12V62H122V16Z" fill="white"/>
</mask>
<g mask="url(#mask38_360_1280)">
<path d="M113.885 58.4095C113.885 57.9871 113.587 57.7337 113.078 57.7337C112.695 57.7337 112.398 57.8604 112.143 58.0294V57.4803C112.355 57.3113 112.78 57.1846 113.163 57.1846C113.97 57.1846 114.437 57.607 114.437 58.3251V60.5638H113.885V60.3526C113.757 60.4793 113.418 60.6483 113.035 60.6483C112.355 60.6483 111.803 60.2259 111.803 59.5923C111.803 58.9587 112.355 58.5363 113.078 58.5363C113.418 58.5363 113.757 58.663 113.927 58.7897V58.4095H113.885ZM113.885 59.4233C113.8 59.1699 113.46 59.0009 113.12 59.0009C112.695 59.0009 112.313 59.1699 112.313 59.5923C112.313 60.0147 112.695 60.1837 113.12 60.1837C113.46 60.1837 113.8 60.0147 113.885 59.7612V59.4233Z" fill="white"/>
</g>
<mask id="mask39_360_1280" style="mask-type:luminance" maskUnits="userSpaceOnUse" x="12" y="16" width="110" height="46">
<path d="M122 16H12V62H122V16Z" fill="white"/>
</mask>
<g mask="url(#mask39_360_1280)">
<path d="M115.244 57.2691H115.797V57.6915C116.009 57.438 116.349 57.1846 116.774 57.1846C117.539 57.1846 117.964 57.6915 117.964 58.4095V60.6061H117.411V58.5363C117.411 58.0716 117.199 57.7337 116.689 57.7337C116.307 57.7337 115.967 57.9871 115.839 58.3673V60.6061H115.287V57.2691H115.244Z" fill="white"/>
</g>
<mask id="mask40_360_1280" style="mask-type:luminance" maskUnits="userSpaceOnUse" x="12" y="16" width="110" height="46">
<path d="M122 16H12V62H122V16Z" fill="white"/>
</mask>
<g mask="url(#mask40_360_1280)">
<path d="M119.323 61.8733L119.833 60.6483L118.516 57.269H119.153L120.131 59.888L121.108 57.269H121.703L119.876 61.8733H119.323Z" fill="white"/>
</g>
</g>
</svg>
