<svg width="185" height="78" viewBox="0 0 185 78" fill="none" xmlns="http://www.w3.org/2000/svg">
<g clip-path="url(#clip0_360_1247)">
<path d="M65.1391 38.1297C65.1301 38.5105 65.1119 38.8823 65.0938 39.263C64.8581 43.3339 63.5253 47.151 61.0683 50.4059C59.0101 53.1349 56.3174 55.329 53.2982 56.9157C49.4993 58.9103 45.2561 59.9348 41.0039 60.2975C39.7074 60.4063 38.4018 60.4607 37.0962 60.4516C27.1321 60.4154 15.273 57.9674 13.3599 42.2641C11.6463 28.2018 19.0265 20.4046 29.308 19.0808C35.3736 18.3011 44.3495 17.6846 53.1078 19.5251C56.8976 20.323 60.5243 22.1363 62.6912 25.4547C64.577 28.3469 64.9578 31.6562 65.1029 35.0199C65.1391 36.0625 65.1663 37.0961 65.1391 38.1297Z" fill="white"/>
<path d="M26.3796 31.0124C27.123 28.383 29.843 26.7783 32.5721 26.6513C35.9902 26.4881 39.3085 27.0775 42.5816 27.9116C45.1655 28.5644 47.6316 28.4012 50.0796 27.3767C52.2103 26.4881 54.3681 25.6812 56.671 25.3639C57.4054 25.2641 58.167 25.2188 58.9105 25.2551C60.2433 25.3276 61.2134 26.0801 61.8027 27.2135C64.6405 32.7078 63.616 40.7408 62.9088 43.1706C62.2288 45.4826 60.9232 47.6133 59.3457 49.4084C55.7281 53.5428 51.1132 55.882 45.7639 56.8974C42.2461 57.5684 38.7464 57.4868 35.3374 56.3444C31.5657 55.0841 28.5284 52.8537 26.842 49.1636C26.2164 47.7946 25.9625 46.2261 25.6905 44.721C25.4548 43.3429 24.6841 36.9963 26.3796 31.0124ZM36.38 40.6229L34.9838 41.9376L33.651 43.1978C34.7934 45.9722 38.2387 45.9178 39.3992 42.2186C39.8707 40.7136 39.7437 39.0544 38.9187 37.7126C38.0664 36.3435 36.8515 35.7723 35.6547 36.144C34.603 36.4704 33.515 37.7579 33.4243 38.8005L36.38 40.6229ZM53.6428 40.0517C53.9329 40.4688 54.1596 40.904 54.495 41.2304C55.166 41.9013 56.254 41.8469 56.9521 41.1941C57.2331 40.9312 57.4779 40.6048 57.6683 40.2693C58.3302 39.0997 58.4118 37.8304 58.2305 36.5248C58.1035 35.6544 57.7862 34.8566 57.1334 34.2401C56.5441 33.6779 55.7825 33.5691 55.1116 33.959C54.3137 34.4305 53.8876 35.1739 53.6065 36.0715L55.8369 37.767L53.6428 40.0517ZM51.3489 44.7936C51.2039 44.5488 50.8503 44.5125 50.6417 44.7029C50.4967 44.8298 50.3607 44.9568 50.2247 45.0928C49.1911 46.1535 48.0306 46.9061 46.4802 46.8879C45.5554 46.8789 44.7485 46.5162 43.9778 46.0538C43.597 45.8271 43.1437 45.9722 42.9986 46.3893C42.8264 46.897 42.9896 47.2234 43.5789 47.5951C46.4983 49.3903 49.5084 48.0847 51.2673 45.7002C51.5031 45.3829 51.5393 45.1018 51.3489 44.7936Z" fill="white"/>
<path d="M36.3801 40.6229L33.4153 38.8005C33.5059 37.7578 34.5939 36.4704 35.6457 36.144C36.8424 35.7723 38.0664 36.3435 38.9096 37.7125C39.7347 39.0544 39.8616 40.7135 39.3902 42.2186C38.2296 45.9178 34.7934 45.9722 33.6419 43.1978L34.9747 41.9375L36.3801 40.6229ZM53.6428 40.0517L55.8369 37.7669L53.6065 36.0715C53.8876 35.1739 54.3047 34.4304 55.1116 33.9589C55.7825 33.56 56.5441 33.6779 57.1334 34.24C57.7862 34.8656 58.1036 35.6544 58.2305 36.5248C58.4118 37.8213 58.3302 39.0997 57.6684 40.2693C57.478 40.6047 57.2332 40.9311 56.9521 41.1941C56.2631 41.8469 55.1751 41.8922 54.4951 41.2303C54.1596 40.8949 53.9329 40.4597 53.6428 40.0517ZM50.6508 44.7028C50.8594 44.5215 51.2039 44.5487 51.349 44.7935C51.5394 45.1018 51.5122 45.3828 51.2764 45.7092C49.5175 48.0937 46.5074 49.3993 43.588 47.6041C42.9896 47.2415 42.8355 46.9151 43.0077 46.3983C43.1528 45.9812 43.6061 45.8362 43.9869 46.0628C44.7666 46.5162 45.5645 46.8879 46.4893 46.8969C48.0397 46.9151 49.2002 46.1535 50.2338 45.1018C50.3607 44.9567 50.5058 44.8298 50.6508 44.7028Z" fill="#020202"/>
</g>
<path d="M75.8484 44.8203L82.5984 44.1641C83.0046 46.4297 83.825 48.0938 85.0593 49.1562C86.3093 50.2188 87.989 50.75 90.0984 50.75C92.3328 50.75 94.0125 50.2812 95.1375 49.3438C96.2781 48.3906 96.8484 47.2812 96.8484 46.0156C96.8484 45.2031 96.6062 44.5156 96.1218 43.9531C95.6531 43.375 94.825 42.875 93.6375 42.4531C92.825 42.1719 90.9734 41.6719 88.0828 40.9531C84.364 40.0312 81.7546 38.8984 80.2546 37.5547C78.1453 35.6641 77.0906 33.3594 77.0906 30.6406C77.0906 28.8906 77.5828 27.2578 78.5671 25.7422C79.5671 24.2109 80.9968 23.0469 82.8562 22.25C84.7312 21.4531 86.989 21.0547 89.6296 21.0547C93.9421 21.0547 97.1843 22 99.3562 23.8906C101.544 25.7812 102.692 28.3047 102.802 31.4609L95.864 31.7656C95.5671 30 94.9265 28.7344 93.9421 27.9688C92.9734 27.1875 91.5125 26.7969 89.5593 26.7969C87.5437 26.7969 85.9656 27.2109 84.825 28.0391C84.0906 28.5703 83.7234 29.2812 83.7234 30.1719C83.7234 30.9844 84.0671 31.6797 84.7546 32.2578C85.6296 32.9922 87.7546 33.7578 91.1296 34.5547C94.5046 35.3516 96.9968 36.1797 98.6062 37.0391C100.231 37.8828 101.497 39.0469 102.403 40.5312C103.325 42 103.786 43.8203 103.786 45.9922C103.786 47.9609 103.239 49.8047 102.145 51.5234C101.052 53.2422 99.5046 54.5234 97.5046 55.3672C95.5046 56.1953 93.0125 56.6094 90.0281 56.6094C85.6843 56.6094 82.3484 55.6094 80.0203 53.6094C77.6921 51.5938 76.3015 48.6641 75.8484 44.8203ZM109.622 56V21.6406H135.098V27.4531H116.559V35.0703H133.809V40.8594H116.559V50.2109H135.755V56H109.622ZM141.661 56V21.6406H156.262C159.934 21.6406 162.598 21.9531 164.255 22.5781C165.927 23.1875 167.262 24.2812 168.262 25.8594C169.262 27.4375 169.762 29.2422 169.762 31.2734C169.762 33.8516 169.005 35.9844 167.489 37.6719C165.973 39.3438 163.708 40.3984 160.692 40.8359C162.192 41.7109 163.427 42.6719 164.395 43.7188C165.38 44.7656 166.7 46.625 168.356 49.2969L172.552 56H164.255L159.239 48.5234C157.458 45.8516 156.239 44.1719 155.583 43.4844C154.927 42.7812 154.231 42.3047 153.497 42.0547C152.762 41.7891 151.598 41.6562 150.005 41.6562H148.598V56H141.661ZM148.598 36.1719H153.731C157.059 36.1719 159.137 36.0312 159.966 35.75C160.794 35.4688 161.442 34.9844 161.911 34.2969C162.38 33.6094 162.614 32.75 162.614 31.7188C162.614 30.5625 162.302 29.6328 161.677 28.9297C161.067 28.2109 160.2 27.7578 159.075 27.5703C158.512 27.4922 156.825 27.4531 154.012 27.4531H148.598V36.1719Z" fill="white"/>
<defs>
<clipPath id="clip0_360_1247">
<rect width="53.9733" height="46" fill="white" transform="translate(12 16)"/>
</clipPath>
</defs>
</svg>
