<svg width="190" height="78" viewBox="0 0 190 78" fill="none" xmlns="http://www.w3.org/2000/svg">
<rect width="190" height="78" fill="white"/>
<path fill-rule="evenodd" clip-rule="evenodd" d="M59.4155 16L59.6557 51.3846H64.9547V16H59.4155ZM125.01 16V51.4023H131.386C131.386 51.4023 131.439 38.632 131.51 38.6355C131.577 38.6391 141.013 51.88 141.105 51.8446C141.2 51.8092 146.754 49.8065 146.754 49.7569C146.754 49.7074 137.272 37.5811 137.272 37.5563C137.272 37.5351 145.224 28.6783 145.153 28.6075C144.941 28.3952 140.628 26.534 140.511 26.6048C140.448 26.6437 131.39 36.4983 131.39 36.4983V16H125.01ZM19.3797 26.7923C17.08 27.2771 14.9321 28.7455 14.0489 30.4405C13.2364 31.9974 13.247 34.1311 14.0737 35.7163C14.6389 36.7955 16.2816 38.3171 18.8357 40.1252C21.5983 42.0785 22.6439 43.0692 22.9089 43.9892C23.301 45.3515 22.6969 46.6502 21.3757 47.2835C20.7151 47.5985 20.4219 47.6409 19.2455 47.5878C17.7159 47.5171 16.6702 47.1208 15.1052 46.0097C14.6106 45.6594 14.1549 45.4188 14.0984 45.4718C14.0419 45.5285 13.5508 46.2645 12.9997 47.1208L12 48.66L12.3851 48.9466C12.597 49.1058 13.2612 49.5057 13.8758 49.8489C18.0691 52.1843 24.276 51.8128 27.4236 49.0386C29.1016 47.5595 29.8859 45.4117 29.5503 43.2108C29.2359 41.1514 28.1054 39.7962 24.5445 37.2131C21.7502 35.1855 20.4254 34.0674 20.1181 33.4658C19.5281 32.3123 19.945 31.1906 21.2026 30.5395C21.8314 30.214 22.0893 30.1786 23.3505 30.2317C24.5763 30.2848 24.9508 30.3768 25.9682 30.8651L27.1516 31.4348L28.0807 29.984C28.5894 29.1914 28.9709 28.4766 28.925 28.4094C28.7554 28.1582 26.8125 27.3514 25.6008 27.0258C23.9828 26.5977 20.8705 26.4774 19.3797 26.7923ZM47.4009 29.9238C50.1846 31.2295 51.6824 35.3306 51.0784 40.0155C50.8664 41.668 50.2764 43.6672 49.7253 44.6014C49.1637 45.5497 48.0897 46.5829 47.2348 46.9898C45.6663 47.74 43.3242 47.4498 41.8546 46.3282C39.8162 44.7642 38.6999 40.9355 39.1273 36.9548C39.5195 33.3031 40.8336 30.996 43.1299 29.9274C44.3098 29.3789 46.2315 29.3789 47.4009 29.9238ZM44.8644 25.8511C43.197 26.2262 41.8616 26.9798 40.4344 28.3457L39.1415 29.5842V26.6154H36.0363H33.1607V44.3077V62H39.1415V47.5631L40.2861 48.6918C42.3774 50.7548 44.8326 51.5722 47.7082 51.1723C49.5876 50.9105 50.9017 50.4292 52.3007 49.4915C56.2255 46.8625 58.3804 41.6326 57.7904 36.148C57.2323 30.9571 54.5686 27.3585 50.2729 25.9891C49.1672 25.6388 46.1574 25.5609 44.8644 25.8511ZM69.3988 26.6154C69.3988 26.6154 69.5931 45.3126 69.7202 45.8575C70.2007 47.9205 71.5749 49.8808 73.1257 50.7194C74.5494 51.4908 75.694 51.7349 77.8348 51.7243C80.8764 51.7102 82.7311 50.9777 84.9955 48.8935L86.1507 47.8462V51.3846H92.3046L92.2233 26.6154H86.1507C86.1507 26.6154 86.239 41.9971 86.1507 42.5385C85.7974 44.7005 84.1265 46.4626 82.4308 47.0323C81.4169 47.372 79.6541 47.648 78.5943 47.4817C77.4921 47.3083 75.6693 46.1017 75.5527 44.3077V26.6968L69.3988 26.6154ZM120.566 51.3846C120.566 51.3846 120.372 32.6874 120.244 32.1425C119.764 30.0795 118.39 28.1192 116.839 27.2806C115.415 26.5092 114.271 26.2651 112.13 26.2757C109.088 26.2898 107.234 27.0223 104.969 29.1065L103.814 30.1538V26.6154H97.6601L97.7414 51.3846H103.814C103.814 51.3846 103.726 36.0029 103.814 35.4615C104.167 33.2995 105.838 31.5374 107.534 30.9677C108.548 30.628 109.869 30.3662 111.37 30.5183C112.879 30.674 114.522 32.0469 114.412 33.6923V51.3032L120.566 51.3846Z" fill="#212121"/>
<path fill-rule="evenodd" clip-rule="evenodd" d="M153.271 24.8461V30.1538L174.467 37.2307L153.271 46.4343V51.3846L178 40.7692V33.6923L153.271 24.8461Z" fill="#77B539"/>
</svg>
