<svg width="254" height="78" viewBox="0 0 254 78" fill="none" xmlns="http://www.w3.org/2000/svg">
<rect width="254" height="78" fill="white"/>
<g clip-path="url(#clip0_264_77)">
<path d="M90.9552 21.175H60.7699V26.58H72.844V56.595H78.7627V26.695H90.8368V21.175H90.9552Z" fill="#004C97"/>
<path d="M92.0205 33.48L91.4287 30.375H86.2202V56.595H92.1389V39.23C93.0859 38.08 94.388 37.045 95.8085 36.47C97.4657 35.78 99.2413 35.435 101.017 35.435H102.082V29.915H101.017C97.4657 29.915 94.388 31.065 92.0205 33.48Z" fill="#004C97"/>
<path d="M111.315 20.37H105.042V26.35H111.315V20.37Z" fill="#004C97"/>
<path d="M111.079 30.375H105.16V56.595H111.079V30.375Z" fill="#004C97"/>
<path d="M179.38 29.915C176.184 29.915 173.225 31.18 170.621 33.595L170.029 30.49H164.82V56.71H170.739V39.575C173.106 36.7 175.711 35.32 178.315 35.32C181.629 35.32 183.168 37.045 183.168 40.61V56.595H189.087V40.15C189.087 37.275 188.258 34.86 186.483 32.905C184.707 30.95 182.34 29.915 179.38 29.915Z" fill="#004C97"/>
<path d="M201.161 24.165L190.507 34.285V35.435H195.242V49.925C195.242 54.525 197.965 57.055 203.292 57.055C204.949 57.055 206.606 56.71 208.145 55.905L208.5 55.675V51.075H207.317H207.198C204.949 51.995 203.055 51.88 201.99 51.42C201.516 51.19 201.279 50.5 201.279 49.465V35.55H208.619V30.49H201.279V24.165H201.161Z" fill="#004C97"/>
<path d="M218.207 20.37H211.933V26.35H218.207V20.37Z" fill="#004C97"/>
<path d="M217.97 30.375H212.052V56.595H217.97V30.375Z" fill="#004C97"/>
<path d="M240.343 44.29C239.277 43.025 237.857 42.22 236.2 41.76L231.702 40.61C230.399 40.265 229.216 39.92 228.032 39.345C226.967 38.885 226.848 38.195 226.848 37.735C226.848 37.045 227.203 36.47 228.032 36.01C228.979 35.435 230.399 35.205 232.412 35.205C234.424 35.205 236.555 35.665 238.804 36.47H238.922H240.106V31.295L239.633 31.18C236.91 30.26 234.069 29.8 231.228 29.8C228.15 29.8 225.664 30.605 223.889 32.1C221.995 33.71 221.166 35.665 221.166 38.195C221.166 40.035 221.758 41.53 222.942 42.68C224.007 43.83 225.428 44.635 227.085 45.095L231.465 46.245C232.767 46.59 233.951 46.935 235.134 47.51C236.318 48.085 236.318 48.545 236.318 48.775C236.318 50.04 235.845 51.65 231.346 51.65C228.269 51.65 225.309 50.845 222.705 49.35L222.587 49.235H221.521V54.525L221.877 54.755C224.717 56.25 227.914 57.055 231.346 57.055C234.779 57.055 237.502 56.365 239.277 54.87C241.171 53.375 242 51.535 242 49.35C242 47.28 241.527 45.555 240.343 44.29Z" fill="#004C97"/>
<path d="M149.787 29.915C148.13 29.915 146.591 30.26 145.052 30.835C143.513 31.41 142.093 32.33 140.909 33.365C139.607 34.63 138.66 36.01 138.068 37.62C137.358 39.345 137.003 41.3 137.003 43.6C137.003 45.44 137.239 47.28 137.831 49.005C138.897 52.34 141.501 54.87 144.815 56.02C146.591 56.71 148.722 57.055 151.089 57.055C152.036 57.055 152.983 57.055 153.93 56.94C154.877 56.825 155.706 56.71 156.534 56.595C157.244 56.48 157.955 56.25 158.665 56.135C159.138 56.02 159.612 55.79 160.085 55.675L159.257 50.96C158.31 51.305 157.363 51.535 156.297 51.765C154.877 51.995 153.457 52.225 152.036 52.225C149.313 52.225 147.301 51.65 145.881 50.5C144.46 49.35 143.631 47.625 143.513 45.555V45.44H161.861C161.861 45.095 161.861 44.75 161.979 44.405C161.979 43.945 161.979 43.6 161.979 43.255C161.979 38.885 160.914 35.55 158.783 33.365C156.534 31.065 153.575 29.915 149.787 29.915ZM155.587 41.07H143.395V40.955C143.513 40.15 143.75 39.46 143.987 38.655C144.223 37.965 144.697 37.275 145.17 36.7C146.354 35.435 148.011 34.745 149.787 34.745C150.616 34.745 151.563 34.86 152.273 35.205C152.983 35.55 153.575 36.01 154.048 36.585C154.522 37.16 154.877 37.85 155.114 38.54C155.469 39.345 155.587 40.15 155.587 41.07Z" fill="#004C97"/>
<path d="M129.663 29.8C121.022 29.8 114.275 35.78 114.275 43.37V43.485C114.275 51.075 121.022 56.94 129.663 56.94C132.859 56.94 135.464 56.365 137.831 55.1H137.713C137.594 54.985 137.476 54.87 137.358 54.87C136.292 53.72 135.464 52.455 134.872 51.075C133.333 51.88 131.676 52.225 129.9 52.225C124.573 52.225 120.667 48.43 120.667 43.485V43.37C120.667 38.54 124.573 34.745 129.545 34.745C131.439 34.745 133.215 35.205 134.872 36.125C135.582 34.515 136.647 33.02 137.831 31.755C135.582 30.375 132.859 29.8 129.663 29.8Z" fill="#004C97"/>
<path d="M17.9187 53.26L12 47.51L20.878 39L12.1184 30.49L18.0371 24.74L32.597 39L17.9187 53.26Z" fill="#004C97"/>
<path d="M26.915 62L20.9963 56.25L35.6747 41.99L50.353 56.25L44.4343 62L35.6747 53.375L26.915 62Z" fill="#004C97"/>
<path d="M35.6747 36.01L20.9963 21.75L26.915 16L35.6747 24.625L44.4343 16L50.353 21.75L35.6747 36.01Z" fill="#004C97"/>
</g>
<defs>
<clipPath id="clip0_264_77">
<rect width="230" height="46" fill="white" transform="translate(12 16)"/>
</clipPath>
</defs>
</svg>
