<svg width="254" height="78" viewBox="0 0 254 78" fill="none" xmlns="http://www.w3.org/2000/svg">
<g clip-path="url(#clip0_360_1217)">
<path d="M90.9553 21.1748H60.77V26.5798H72.8441V56.5948H78.7628V26.6948H90.8369V21.1748H90.9553Z" fill="white"/>
<path d="M92.0205 33.48L91.4287 30.375H86.2202V56.595H92.1389V39.23C93.0859 38.08 94.388 37.045 95.8085 36.47C97.4657 35.78 99.2413 35.435 101.017 35.435H102.082V29.915H101.017C97.4657 29.915 94.388 31.065 92.0205 33.48Z" fill="white"/>
<path d="M111.316 20.3701H105.042V26.3501H111.316V20.3701Z" fill="white"/>
<path d="M111.079 30.375H105.16V56.595H111.079V30.375Z" fill="white"/>
<path d="M179.38 29.915C176.184 29.915 173.225 31.18 170.621 33.595L170.029 30.49H164.82V56.71H170.739V39.575C173.106 36.7 175.711 35.32 178.315 35.32C181.629 35.32 183.168 37.045 183.168 40.61V56.595H189.087V40.15C189.087 37.275 188.258 34.86 186.483 32.905C184.707 30.95 182.34 29.915 179.38 29.915Z" fill="white"/>
<path d="M201.161 24.165L190.508 34.285V35.435H195.243V49.925C195.243 54.525 197.965 57.055 203.292 57.055C204.949 57.055 206.606 56.71 208.145 55.905L208.5 55.675V51.075H207.317H207.198C204.949 51.995 203.055 51.88 201.99 51.42C201.516 51.19 201.28 50.5 201.28 49.465V35.55H208.619V30.49H201.28V24.165H201.161Z" fill="white"/>
<path d="M218.207 20.3701H211.933V26.3501H218.207V20.3701Z" fill="white"/>
<path d="M217.97 30.375H212.052V56.595H217.97V30.375Z" fill="white"/>
<path d="M240.343 44.2898C239.277 43.0248 237.857 42.2198 236.2 41.7598L231.702 40.6098C230.399 40.2648 229.216 39.9198 228.032 39.3448C226.967 38.8848 226.848 38.1948 226.848 37.7348C226.848 37.0448 227.203 36.4698 228.032 36.0098C228.979 35.4348 230.399 35.2048 232.412 35.2048C234.424 35.2048 236.555 35.6648 238.804 36.4698H238.922H240.106V31.2948L239.633 31.1798C236.91 30.2598 234.069 29.7998 231.228 29.7998C228.15 29.7998 225.664 30.6048 223.889 32.0998C221.995 33.7098 221.166 35.6648 221.166 38.1948C221.166 40.0348 221.758 41.5298 222.942 42.6798C224.007 43.8298 225.428 44.6348 227.085 45.0948L231.465 46.2448C232.767 46.5898 233.951 46.9348 235.134 47.5098C236.318 48.0848 236.318 48.5448 236.318 48.7748C236.318 50.0398 235.845 51.6498 231.346 51.6498C228.269 51.6498 225.309 50.8448 222.705 49.3498L222.587 49.2348H221.521V54.5248L221.877 54.7548C224.717 56.2498 227.914 57.0548 231.346 57.0548C234.779 57.0548 237.502 56.3648 239.277 54.8698C241.171 53.3748 242 51.5348 242 49.3498C242 47.2798 241.527 45.5548 240.343 44.2898Z" fill="white"/>
<path d="M149.787 29.915C148.13 29.915 146.591 30.26 145.052 30.835C143.513 31.41 142.093 32.33 140.909 33.365C139.607 34.63 138.66 36.01 138.068 37.62C137.358 39.345 137.003 41.3 137.003 43.6C137.003 45.44 137.239 47.28 137.831 49.005C138.897 52.34 141.501 54.87 144.815 56.02C146.591 56.71 148.722 57.055 151.089 57.055C152.036 57.055 152.983 57.055 153.93 56.94C154.877 56.825 155.706 56.71 156.534 56.595C157.245 56.48 157.955 56.25 158.665 56.135C159.139 56.02 159.612 55.79 160.086 55.675L159.257 50.96C158.31 51.305 157.363 51.535 156.298 51.765C154.877 51.995 153.457 52.225 152.036 52.225C149.314 52.225 147.301 51.65 145.881 50.5C144.46 49.35 143.632 47.625 143.513 45.555V45.44H161.861C161.861 45.095 161.861 44.75 161.98 44.405C161.98 43.945 161.98 43.6 161.98 43.255C161.98 38.885 160.914 35.55 158.783 33.365C156.534 31.065 153.575 29.915 149.787 29.915ZM155.587 41.07H143.395V40.955C143.513 40.15 143.75 39.46 143.987 38.655C144.223 37.965 144.697 37.275 145.17 36.7C146.354 35.435 148.011 34.745 149.787 34.745C150.616 34.745 151.563 34.86 152.273 35.205C152.983 35.55 153.575 36.01 154.048 36.585C154.522 37.16 154.877 37.85 155.114 38.54C155.469 39.345 155.587 40.15 155.587 41.07Z" fill="white"/>
<path d="M129.663 29.7998C121.022 29.7998 114.275 35.7798 114.275 43.3698V43.4848C114.275 51.0748 121.022 56.9398 129.663 56.9398C132.86 56.9398 135.464 56.3648 137.831 55.0998H137.713C137.595 54.9848 137.476 54.8698 137.358 54.8698C136.292 53.7198 135.464 52.4548 134.872 51.0748C133.333 51.8798 131.676 52.2248 129.9 52.2248C124.573 52.2248 120.667 48.4298 120.667 43.4848V43.3698C120.667 38.5398 124.573 34.7448 129.545 34.7448C131.439 34.7448 133.215 35.2048 134.872 36.1248C135.582 34.5148 136.648 33.0198 137.831 31.7548C135.582 30.3748 132.86 29.7998 129.663 29.7998Z" fill="white"/>
<path d="M17.9187 53.2602L12 47.5102L20.878 39.0002L12.1184 30.4902L18.0371 24.7402L32.597 39.0002L17.9187 53.2602Z" fill="white"/>
<path d="M26.915 62.0002L20.9963 56.2502L35.6747 41.9902L50.353 56.2502L44.4343 62.0002L35.6747 53.3752L26.915 62.0002Z" fill="white"/>
<path d="M35.6747 36.01L20.9963 21.75L26.915 16L35.6747 24.625L44.4343 16L50.353 21.75L35.6747 36.01Z" fill="white"/>
</g>
<defs>
<clipPath id="clip0_360_1217">
<rect width="230" height="46" fill="white" transform="translate(12 16)"/>
</clipPath>
</defs>
</svg>
