<svg width="185" height="78" viewBox="0 0 185 78" fill="none" xmlns="http://www.w3.org/2000/svg">
<rect width="185" height="78" fill="white"/>
<path d="M12 16H173V62H12V16Z" fill="#D40000"/>
<path d="M18.8845 23.0102H42.1651V26.3094L23.4274 51.3489H42.623V54.9898H18.4266V51.6906L37.1644 26.6511H18.8845V23.0102ZM58.3684 27.2733L52.9298 43.1908H63.827L58.3684 27.2733ZM56.103 23.0102H60.6498L71.9447 54.9898H67.7754L65.0802 46.7879H51.7168L49.0176 54.9898H44.788L56.103 23.0102ZM80.2592 39.7164V51.4321H86.6899C88.8468 51.4321 90.4454 50.9502 91.4858 49.9863C92.5261 49.0224 93.0442 47.5459 93.0442 45.5655C93.0442 43.5676 92.5261 42.0911 91.4858 41.1403C90.4454 40.1939 88.8468 39.7164 86.6899 39.7164H80.2592ZM80.2592 26.5635V36.2025H86.1958C88.1559 36.2025 89.614 35.8038 90.574 35.0151C91.534 34.2221 92.0119 33.0129 92.0119 31.3874C92.0119 29.775 91.5299 28.5658 90.574 27.7684C89.614 26.971 88.1559 26.5679 86.1958 26.5679H80.2592V26.5635ZM76.2506 23.0102H86.493C89.5497 23.0102 91.9075 23.6937 93.5584 25.0651C95.2132 26.4364 96.0366 28.3861 96.0366 30.9142C96.0366 32.8683 95.6149 34.428 94.7674 35.5847C93.9199 36.7414 92.6747 37.4643 91.0359 37.7491C93.0081 38.2048 94.5384 39.1555 95.631 40.6058C96.7235 42.056 97.2698 43.8655 97.2698 46.0343C97.2698 48.8909 96.37 51.0948 94.5706 52.6545C92.7711 54.2099 90.2085 54.9898 86.8907 54.9898H76.2506V23.0102ZM107.709 39.7164V51.4321H114.144C116.301 51.4321 117.899 50.9502 118.936 49.9863C119.976 49.0224 120.494 47.5459 120.494 45.5655C120.494 43.5676 119.976 42.0911 118.936 41.1403C117.895 40.1939 116.297 39.7164 114.144 39.7164H107.709ZM107.709 26.5635V36.2025H113.646C115.606 36.2025 117.064 35.8038 118.024 35.0151C118.984 34.2221 119.462 33.0129 119.462 31.3874C119.462 29.775 118.984 28.5658 118.024 27.7684C117.064 26.971 115.606 26.5679 113.646 26.5679H107.709V26.5635ZM103.7 23.0102H113.943C117 23.0102 119.357 23.6937 121.008 25.0651C122.663 26.4364 123.491 28.3861 123.491 30.9142C123.491 32.8683 123.069 34.428 122.221 35.5847C121.374 36.7414 120.129 37.4643 118.49 37.7491C120.462 38.2048 121.992 39.1555 123.085 40.6058C124.177 42.056 124.724 43.8655 124.724 46.0343C124.724 48.8909 123.824 51.0948 122.024 52.6545C120.225 54.2099 117.662 54.9898 114.345 54.9898H103.7V23.0102ZM142.758 23.0102H147.169L154.138 34.4938L161.175 23.0102H165.437L156.263 37.9901L166.577 54.9898H162.167L154.049 41.6091L145.851 54.9898H141.59L151.929 38.1128L142.758 23.0102ZM131.146 23.0102H135.155V54.9898H131.146V23.0102Z" fill="white"/>
</svg>
