<svg width="185" height="78" viewBox="0 0 185 78" fill="none" xmlns="http://www.w3.org/2000/svg">
<path d="M18.8847 23.0103H42.1652V26.3094L23.4275 51.349H42.6231V54.9899H18.4268V51.6907L37.1645 26.6512H18.8847V23.0103ZM58.3685 27.2733L52.9299 43.1908H63.8271L58.3685 27.2733ZM56.1031 23.0103H60.6499L71.9448 54.9899H67.7755L65.0803 46.7879H51.7169L49.0177 54.9899H44.7881L56.1031 23.0103ZM80.2593 39.7164V51.4322H86.69C88.8469 51.4322 90.4456 50.9502 91.4859 49.9863C92.5262 49.0224 93.0443 47.5459 93.0443 45.5655C93.0443 43.5676 92.5262 42.0911 91.4859 41.1404C90.4456 40.194 88.8469 39.7164 86.69 39.7164H80.2593ZM80.2593 26.5635V36.2026H86.1959C88.1561 36.2026 89.6141 35.8039 90.5741 35.0152C91.5341 34.2222 92.0121 33.0129 92.0121 31.3874C92.0121 29.7751 91.5301 28.5658 90.5741 27.7684C89.6141 26.971 88.1561 26.5679 86.1959 26.5679H80.2593V26.5635ZM76.2507 23.0103H86.4932C89.5499 23.0103 91.9076 23.6937 93.5585 25.0651C95.2133 26.4365 96.0368 28.3862 96.0368 30.9142C96.0368 32.8683 95.615 34.4281 94.7675 35.5848C93.92 36.7415 92.6748 37.4644 91.036 37.7492C93.0082 38.2048 94.5385 39.1556 95.6311 40.6058C96.7236 42.0561 97.2699 43.8656 97.2699 46.0344C97.2699 48.891 96.3701 51.0948 94.5707 52.6546C92.7712 54.21 90.2086 54.9899 86.8908 54.9899H76.2507V23.0103ZM107.709 39.7164V51.4322H114.144C116.301 51.4322 117.899 50.9502 118.936 49.9863C119.976 49.0224 120.494 47.5459 120.494 45.5655C120.494 43.5676 119.976 42.0911 118.936 41.1404C117.895 40.194 116.297 39.7164 114.144 39.7164H107.709ZM107.709 26.5635V36.2026H113.646C115.606 36.2026 117.064 35.8039 118.024 35.0152C118.984 34.2222 119.462 33.0129 119.462 31.3874C119.462 29.7751 118.984 28.5658 118.024 27.7684C117.064 26.971 115.606 26.5679 113.646 26.5679H107.709V26.5635ZM103.701 23.0103H113.943C117 23.0103 119.358 23.6937 121.008 25.0651C122.663 26.4365 123.491 28.3862 123.491 30.9142C123.491 32.8683 123.069 34.4281 122.221 35.5848C121.374 36.7415 120.129 37.4644 118.49 37.7492C120.462 38.2048 121.992 39.1556 123.085 40.6058C124.178 42.0561 124.724 43.8656 124.724 46.0344C124.724 48.891 123.824 51.0948 122.025 52.6546C120.225 54.21 117.662 54.9899 114.345 54.9899H103.701V23.0103ZM142.759 23.0103H147.169L154.138 34.4938L161.175 23.0103H165.437L156.263 37.9902L166.577 54.9899H162.167L154.049 41.6092L145.851 54.9899H141.59L151.929 38.1128L142.759 23.0103ZM131.146 23.0103H135.155V54.9899H131.146V23.0103Z" fill="white"/>
</svg>
