<svg width="80" height="40" viewBox="0 0 80 40" fill="none" xmlns="http://www.w3.org/2000/svg">
<rect width="80" height="40" rx="4" fill="white"/>
<path d="M16.6781 12.6878C15.5558 12.8705 14.5466 13.175 13.7462 13.5752C13.2329 13.8362 13.1459 13.9406 13.3721 14.0363C13.6157 14.1233 13.5026 14.2364 13.0067 14.4278C12.7283 14.5322 12.2933 14.7323 12.0323 14.8628L11.5625 15.1064L12.8153 15.7589C16.2866 17.5772 16.8434 17.8556 16.7564 17.7338C15.9386 16.6637 15.0686 15.4805 15.0686 15.437C15.0686 15.2978 15.347 15.4805 16.4345 16.3505C17.0957 16.8725 17.6612 17.3075 17.696 17.3075C17.7221 17.3075 17.8352 16.9247 17.9396 16.4549C18.2615 15.0107 18.3398 14.741 18.4181 14.7584C18.4616 14.7671 18.6182 15.3326 18.7748 16.0025C18.9314 16.6811 19.0793 17.2553 19.1054 17.2814C19.1315 17.3075 19.7057 16.8899 20.3756 16.3592C21.0542 15.8198 21.6458 15.3935 21.6893 15.4109C21.7589 15.437 20.8193 16.7855 20.0798 17.7338C20.0276 17.8034 20.4974 17.5946 21.1151 17.2727C21.7415 16.9421 22.9247 16.3244 23.7599 15.8894L25.2737 15.1064L24.8474 14.8889C24.6125 14.7671 24.1514 14.5583 23.8208 14.4278C23.2466 14.2103 23.2292 14.1842 23.4032 14.0798C23.5076 14.0102 23.5946 13.9319 23.5946 13.8971C23.5946 13.7927 22.6463 13.349 21.8981 13.1054C20.2799 12.5747 18.3659 12.4268 16.6781 12.6878Z" fill="#E40473"/>
<path d="M17.4518 18.5603C17.156 18.6908 17.1647 18.6821 16.7993 19.7435C16.0859 21.7967 15.416 25.616 15.416 27.5735V28.1825H18.4175H21.419V27.7214C21.419 25.5899 20.6186 21.2138 19.8791 19.3172C19.679 18.7778 19.592 18.656 19.3571 18.5603C19.0004 18.4037 17.8085 18.4124 17.4518 18.5603Z" fill="#E40473"/>
<path d="M48.242 19.9872L47.1719 20.0133V24.0936V28.1826H48.2594H49.3556L49.2947 27.591L49.2425 27.0081L49.4078 27.2691C49.6601 27.6519 50.156 28.0608 50.5301 28.1826C50.9825 28.3392 52.0004 28.2522 52.4354 28.026C53.4359 27.5127 53.9579 26.4339 53.9579 24.894C53.9579 22.9539 53.0009 21.762 51.4349 21.7446C50.5736 21.7446 49.9907 22.023 49.5035 22.6755L49.2599 22.9974L49.2686 22.4754C49.2686 22.197 49.3034 21.5184 49.3295 20.979C49.3643 20.4309 49.373 19.9785 49.3469 19.9785C49.3208 19.9698 48.8249 19.9698 48.242 19.9872ZM51.2609 23.4672C52.0874 24.0675 52.0787 25.9554 51.2435 26.5557C50.9477 26.7732 50.1908 26.7906 49.8167 26.5905C49.4426 26.3991 49.2599 26.0772 49.1468 25.4508C49.025 24.6765 49.1816 23.9718 49.5731 23.5977C49.7384 23.4498 49.9559 23.3019 50.0603 23.2845C50.4083 23.2062 51.0347 23.3019 51.2609 23.4672Z" fill="#E40473"/>
<path d="M25.1602 24.0935V28.1825H26.2564H27.3613L27.3091 27.5909C27.2656 27.1124 27.2743 27.0341 27.3613 27.1733C27.892 28.0172 28.4749 28.313 29.4493 28.2521C31.2154 28.139 32.2246 26.5382 31.9462 24.2936C31.7374 22.6667 30.8326 21.7445 29.4406 21.7445C28.675 21.7445 28.3009 21.9011 27.7441 22.4579L27.2308 22.9625L27.283 22.1186C27.3178 21.6488 27.3613 20.9789 27.3874 20.6309L27.4396 20.0045H26.2999H25.1602V24.0935ZM29.1274 23.4062C29.6494 23.6585 29.8582 24.1109 29.8582 25.007C29.8582 26.1902 29.4319 26.7296 28.5097 26.7296C27.5875 26.7296 27.1612 26.1902 27.1612 25.007C27.1612 24.1022 27.3787 23.6237 27.892 23.3888C28.3531 23.18 28.675 23.18 29.1274 23.4062Z" fill="#E40473"/>
<path d="M61.7871 24.0848V28.1738L62.8833 28.1999L63.9795 28.226L63.9186 27.617L63.8577 27.008L64.1187 27.356C64.6233 28.052 65.0583 28.2695 65.8935 28.2695C66.8331 28.2608 67.503 27.9128 68.0076 27.182C68.3904 26.6165 68.5731 25.9031 68.5731 24.92C68.5731 22.8842 67.6596 21.7445 66.0153 21.7445C65.2758 21.7445 64.806 21.9533 64.3014 22.5101L63.8577 22.9973L63.9099 21.962C63.9447 21.3878 63.9882 20.7092 64.0143 20.4569L64.0578 20.0045H62.9268H61.7871V24.0848ZM65.8674 23.4497C66.3285 23.7194 66.4416 24.0413 66.4416 25.0244C66.4416 25.7813 66.4155 25.9379 66.2589 26.1467C65.937 26.5817 65.6673 26.7296 65.1627 26.7296C64.1883 26.7383 63.7707 26.2163 63.7707 25.007C63.7707 24.0848 63.9795 23.6411 64.5102 23.3888C64.9278 23.1887 65.4759 23.2148 65.8674 23.4497Z" fill="#E40473"/>
<path d="M35.0095 21.7532C34.1656 21.9185 33.3043 22.4579 32.8084 23.1452L32.6431 23.3801L33.4174 23.8238C33.8437 24.0674 34.2091 24.2675 34.2439 24.2675C34.27 24.2675 34.3483 24.1544 34.4266 24.0065C34.7659 23.354 35.575 23.0147 36.2536 23.2409C36.6886 23.3888 36.8974 23.7194 36.7582 24.0326C36.6451 24.2762 36.3406 24.3893 34.9921 24.7025C33.8089 24.9809 33.313 25.1897 32.9215 25.5638C32.0167 26.4425 32.3734 27.8867 33.5827 28.2347C34.6354 28.5479 35.8708 28.1912 36.4276 27.4256C36.5668 27.2255 36.7147 27.0602 36.7408 27.0602C36.7669 27.0515 36.7582 27.2342 36.7234 27.4604C36.5842 28.2956 36.4972 28.226 37.7413 28.1999L38.8375 28.1738L38.8027 25.8509C38.7766 23.6585 38.7592 23.5019 38.5765 23.093C38.3242 22.5449 38.098 22.3013 37.6021 22.049C36.8887 21.6923 35.9056 21.5705 35.0095 21.7532ZM36.6538 26.0771C36.4363 26.5034 36.1231 26.7644 35.662 26.8862C34.8007 27.1124 34.1743 26.5643 34.6006 25.9553C34.7485 25.7378 34.966 25.6421 35.9317 25.3898C36.3232 25.2854 36.6799 25.1636 36.7147 25.1027C36.8713 24.8591 36.8191 25.7552 36.6538 26.0771Z" fill="#E40473"/>
<path d="M41.9352 21.7967C40.5693 22.1273 39.7515 23.0147 39.4992 24.4415C39.3165 25.4768 39.6906 26.7122 40.3866 27.3908C41.6568 28.6175 44.1798 28.6436 45.5109 27.443C45.7023 27.2603 45.9894 26.8601 46.146 26.5469C46.4157 25.9988 46.4331 25.9118 46.4331 25.007C46.4331 24.137 46.407 23.9978 46.1895 23.5193C46.0503 23.2235 45.7806 22.8233 45.5805 22.6319C44.7366 21.8054 43.2663 21.4661 41.9352 21.7967ZM43.7796 23.4845C44.4669 23.9717 44.58 25.6856 43.9623 26.3468C43.2837 27.0689 41.9874 26.7818 41.7003 25.8422C41.5785 25.4159 41.5785 24.5546 41.7003 24.1718C41.8308 23.789 42.1875 23.4149 42.5181 23.3105C42.8835 23.1974 43.4925 23.2757 43.7796 23.4845Z" fill="#E40473"/>
<path d="M56.8721 21.7706C55.9847 21.9968 55.1321 22.5536 54.8015 23.1191L54.6536 23.3801L55.3235 23.7716C56.2631 24.3197 56.237 24.3197 56.4371 23.9543C56.8895 23.1017 58.3337 22.8755 58.7078 23.5889C58.8383 23.8412 58.8383 23.8673 58.6817 24.0848C58.5338 24.2762 58.3076 24.3632 57.1244 24.659C56.3675 24.8504 55.6454 25.0592 55.5236 25.1288C54.4883 25.6943 54.1229 26.6078 54.5927 27.4952C54.8972 28.0694 55.4279 28.313 56.3936 28.313C57.0287 28.313 57.2027 28.2782 57.6377 28.0694C57.9335 27.9215 58.2293 27.6953 58.3685 27.5039C58.7513 26.9732 58.76 26.9732 58.6991 27.5909L58.6382 28.1825H59.6909H60.7436V25.9379C60.7436 24.1544 60.7175 23.5976 60.6044 23.2322C60.4304 22.6406 59.9693 22.1708 59.2994 21.9185C58.6643 21.6836 57.4898 21.614 56.8721 21.7706ZM58.6469 26.0597C58.2293 26.9384 56.9591 27.2516 56.5241 26.5904C56.4197 26.4338 56.411 26.3207 56.4719 26.1554C56.5937 25.8422 56.8895 25.6682 57.6725 25.4681C58.0379 25.3724 58.4468 25.2419 58.5686 25.181C58.7774 25.0679 58.7861 25.0766 58.8122 25.3637C58.8296 25.5464 58.7687 25.8248 58.6469 26.0597Z" fill="#E40473"/>
</svg>
