<svg width="80" height="40" viewBox="0 0 80 40" fill="none" xmlns="http://www.w3.org/2000/svg">
<rect width="80" height="40" rx="4" fill="white"/>
<g clip-path="url(#clip0_657_21)">
<path d="M30.5127 30.8217C30.0979 30.8217 29.7949 31.0309 29.7949 31.4312C29.7949 31.8062 30.0583 32.0675 30.4535 32.0675C30.7171 32.0675 30.9807 31.921 31.1452 31.7116V31.1777C31.1452 30.9996 30.9145 30.8217 30.5127 30.8217ZM39.4791 30.7478C39.4986 31.4505 39.9468 31.9589 40.7176 31.9589C41.1856 31.9589 41.5415 31.7054 41.6664 31.5461C41.7256 31.5907 41.7852 31.6575 41.7852 31.8127C41.7852 32.1623 41.3634 32.6459 40.3817 32.6459C39.3938 32.6459 38.5895 31.8581 38.5895 30.8283C38.5895 29.6944 39.3341 28.884 40.4347 28.884C41.4351 28.884 41.8969 29.6209 41.8969 30.2484C41.8969 30.4335 41.8572 30.6048 41.778 30.7478H39.4791ZM40.8761 30.2936C41.0341 30.2936 41.0409 30.201 41.0409 30.0771C41.0341 29.7074 40.7436 29.3651 40.3027 29.3651C39.7296 29.3651 39.5054 29.8454 39.4859 30.2936H40.8761ZM50.1712 30.6813C50.1712 31.5401 50.2904 31.9777 50.8442 31.9777C51.4491 31.9777 51.6146 31.4375 51.6146 30.9467V30.0099C51.6146 29.6881 51.4621 29.5632 51.1135 29.6008C50.9688 29.2392 51.4491 29.0089 51.7202 28.956C51.805 28.943 51.8845 28.9299 51.9577 28.9299C52.3392 28.9299 52.4857 29.1679 52.4857 29.5236C52.4857 29.6543 52.4729 29.8925 52.4729 30.8782C52.4729 31.295 52.4661 31.515 52.4661 31.584C52.4661 31.9085 52.6164 32.0738 52.9647 32.0359C53.1075 32.3983 52.6302 32.5701 52.3578 32.6206C52.2743 32.6331 52.1983 32.6459 52.1356 32.6459C51.7734 32.6459 51.6999 32.4109 51.6269 32.074C51.5757 32.1372 51.5286 32.1889 51.4303 32.2837C51.193 32.5059 50.8836 32.6396 50.5339 32.6396C50.1517 32.6396 49.8289 32.4929 49.6245 32.2521C49.3085 31.8771 49.3085 31.3938 49.3085 30.6881V30.0101C49.3085 29.6884 49.1567 29.5634 48.8079 29.6011C48.6629 29.2394 49.1442 29.0092 49.4141 28.9563C49.4996 28.9432 49.5783 28.9302 49.6511 28.9302C50.0328 28.9302 50.178 29.1682 50.178 29.5238L50.1712 30.6813ZM48.5049 30.755C48.5049 29.6409 47.7341 28.8838 46.6667 28.8838C45.6788 28.8838 44.8022 29.6409 44.8022 30.755C44.8022 31.8832 45.6256 32.6393 46.6339 32.6393C47.7008 32.6393 48.5049 31.8706 48.5049 30.755M31.9689 31.7367C31.9689 32.0209 32.153 32.1114 32.476 32.1561C32.4562 32.4861 32.2255 32.614 31.9556 32.6393C31.6524 32.6647 31.3559 32.5242 31.2375 32.2077C31.0988 32.3336 30.6905 32.6519 30.1568 32.6519C29.4257 32.6519 28.8787 32.1621 28.8787 31.4949C28.8787 30.7897 29.4914 30.3718 30.3545 30.3718C30.6514 30.3718 30.9604 30.4335 31.145 30.5291V30.0568C31.145 29.6337 30.9604 29.3651 30.4799 29.3651C30.3808 29.3651 30.1636 29.3912 29.992 29.4564C30.0119 29.5233 30.0254 29.5948 30.0254 29.6605C30.0254 29.9188 29.8606 30.1283 29.584 30.1283C29.3399 30.1283 29.1554 29.9316 29.1554 29.6806C29.1554 29.2193 29.7355 28.8835 30.5393 28.8835C31.1783 28.8835 31.5674 29.035 31.7715 29.2981C31.9556 29.5296 31.9689 29.8855 31.9689 30.3992V31.7367ZM47.5628 30.8092C47.5628 31.6652 47.1937 32.1305 46.6735 32.1305C46.2123 32.1305 45.7643 31.6655 45.7643 30.6502C45.7643 29.8592 46.0936 29.3653 46.6339 29.3653C47.1673 29.3651 47.5628 29.9126 47.5628 30.8092ZM34.5775 29.5098C34.5974 29.7345 34.7885 29.892 35.0122 29.892C35.2956 29.892 35.4669 29.6407 35.4669 29.3974C35.4669 29.0546 35.1903 28.877 34.9134 28.877C34.5974 28.877 34.2613 29.1145 34.0704 29.4697L34.0571 29.4762C33.9979 29.1607 33.8462 28.9226 33.5299 28.9226C33.4574 28.9226 33.3784 28.9362 33.2929 28.9623C33.0293 29.0413 32.6406 29.2449 32.7858 29.6071C33.1547 29.5361 33.2864 29.6603 33.2864 29.982V31.5142C33.2864 31.8185 33.247 31.9459 33.1414 32.0352C33.0424 32.1109 32.9373 32.1423 32.8713 32.1553C32.7198 32.4854 33.0163 32.5882 33.7476 32.5882C34.479 32.5882 34.7293 32.4856 34.5778 32.1553C34.5118 32.142 34.3275 32.1106 34.2287 32.0352C34.1231 31.9459 34.0772 31.8185 34.0772 31.5142V30.59C34.077 29.7661 34.3799 29.5494 34.5775 29.5098ZM43.643 28.9756H44.585C44.6971 29.2452 44.5456 29.4626 44.3347 29.4827C44.2688 29.4897 44.1963 29.4897 44.1305 29.4897C43.959 29.4897 43.7879 29.4762 43.6693 29.4762V31.5145C43.6693 31.8187 43.722 31.9461 43.8273 32.0354C43.9264 32.1112 44.1571 32.1425 44.2231 32.1555C44.3746 32.4856 44.0184 32.5884 43.2873 32.5884C42.5562 32.5884 42.2532 32.4858 42.4045 32.1555C42.4702 32.1423 42.576 32.1109 42.6746 32.0354C42.7799 31.9461 42.8193 31.8187 42.8193 31.5145V29.4624L42.266 29.4428C42.1539 29.1737 42.3054 28.9821 42.5294 28.9821H42.8065V28.7185C42.8065 28.1848 42.9051 27.8881 43.037 27.6904C43.2409 27.3742 43.5903 27.157 44.1368 27.157C44.8288 27.157 45.3886 27.4797 45.3886 27.9671C45.3886 28.178 45.2436 28.4348 44.9406 28.4348C44.717 28.4348 44.506 28.2437 44.506 28.007C44.506 27.9076 44.5456 27.8023 44.598 27.7368C44.5193 27.6445 44.3545 27.5981 44.1963 27.5981C43.7415 27.5981 43.643 27.9342 43.643 28.3558V28.9756ZM37.5752 29.5098C37.595 29.7345 37.7861 29.892 38.0101 29.892C38.2935 29.892 38.4645 29.6407 38.4645 29.3974C38.4645 29.0546 38.1879 28.877 37.9113 28.877C37.595 28.877 37.2589 29.1145 37.0683 29.4697L37.0548 29.4762C36.9958 29.1607 36.8441 28.9226 36.5278 28.9226C36.4556 28.9226 36.3764 28.9362 36.2908 28.9623C36.027 29.0413 35.6382 29.2449 35.7834 29.6071C36.1524 29.5361 36.2838 29.6603 36.2838 29.982V31.5142C36.2838 31.8185 36.2447 31.9459 36.1391 32.0352C36.0403 32.1109 35.9352 32.1423 35.8694 32.1553C35.7177 32.4854 36.0144 32.5882 36.7453 32.5882C37.4764 32.5882 37.7272 32.4856 37.5755 32.1553C37.5097 32.142 37.3254 32.1106 37.2263 32.0352C37.121 31.9459 37.0748 31.8185 37.0748 31.5142V30.59C37.0747 29.7661 37.3776 29.5494 37.5752 29.5098ZM55.1096 29.5098C55.1317 29.7345 55.3244 29.892 55.5493 29.892C55.8287 29.892 56 29.6407 56 29.3974C56 29.0545 55.7274 28.877 55.4467 28.877C55.1317 28.877 54.7994 29.1145 54.609 29.4696L54.5897 29.4762C54.532 29.1606 54.379 28.9226 54.0685 28.9226C53.9913 28.9226 53.9163 28.9362 53.826 28.9623C53.5661 29.0413 53.1787 29.2449 53.3199 29.6071C53.6901 29.5361 53.8197 29.6602 53.8197 29.982V31.5142C53.8197 31.8185 53.7819 31.9459 53.673 32.0352C53.5785 32.1109 53.4699 32.1422 53.4069 32.1553C53.2539 32.4853 53.5532 32.5882 54.284 32.5882C55.0151 32.5882 55.2624 32.4856 55.1094 32.1553C55.0467 32.142 54.8623 32.1106 54.7597 32.0352C54.6594 31.9459 54.615 31.8185 54.615 31.5142V30.59C54.6153 29.7661 54.913 29.5494 55.1096 29.5098ZM24 30.0265C24 31.689 25.1459 32.6737 26.3912 32.6737C27.5113 32.6737 28.2951 31.8862 28.2951 31.2306C28.2951 30.8815 28.0779 30.6276 27.7945 30.6276C27.5045 30.6276 27.261 30.8243 27.261 31.1621C27.261 31.3778 27.3794 31.4984 27.4652 31.5935C27.3134 31.8864 26.9906 32.1274 26.4898 32.1274C25.6598 32.1274 25.0604 31.2629 25.0604 30.0197C25.0604 28.7749 25.6332 27.9051 26.4637 27.9051C26.9645 27.9051 27.2871 28.1489 27.4388 28.4391C27.3531 28.5377 27.2347 28.6563 27.2347 28.8737C27.2347 29.2098 27.4784 29.4072 27.7684 29.4072C28.0518 29.4072 28.2687 29.1511 28.2687 28.8012C28.2687 28.1487 27.485 27.3584 26.3649 27.3584C25.1194 27.3582 24 28.4388 24 30.0265Z" fill="#004E9F"/>
<path d="M34.7909 7.57566L27.8006 14.3382C27.4515 14.6346 27.2285 14.9828 27.2285 15.4809C27.2285 15.9767 27.4517 16.3261 27.8006 16.6248L34.7909 23.3851C34.8357 23.431 34.8792 23.4493 34.916 23.4493C34.9822 23.4493 35.0279 23.3891 35.0259 23.3183C35.0239 23.2767 35.0058 23.2288 34.9644 23.1874C33.3237 21.1489 32.1298 18.8108 32.1298 15.5055C32.1298 12.1981 33.3237 9.81412 34.9644 7.77406C35.0058 7.7332 35.0239 7.68606 35.0259 7.6434C35.0281 7.57115 34.9822 7.51272 34.916 7.51272C34.8791 7.51201 34.8357 7.53003 34.7909 7.57566" fill="#E3000D"/>
<path d="M40.1639 7.00305C37.4269 7.00305 36.3574 10.8818 36.3574 15.5049C36.3574 20.1295 37.4269 23.9566 40.1639 23.9566C41.8065 23.9566 43.2065 22.9948 43.211 22.2042C43.2117 22.0312 43.145 21.8654 42.9998 21.7207C42.2213 20.9685 41.9168 20.2168 41.9146 19.5535C41.9095 18.2871 43.0081 17.3439 44.0208 17.3439C45.4131 17.3439 46.2342 18.4381 46.2342 19.8552C46.2342 21.198 45.6621 22.3163 45.0396 23.212C45.0151 23.2486 45.004 23.2895 45.004 23.3253C45.0045 23.3956 45.0459 23.4533 45.1079 23.4533C45.1455 23.4533 45.1896 23.4332 45.2378 23.3848L52.2298 16.6245C52.5789 16.3261 52.8019 15.9764 52.8019 15.4806C52.8019 14.9827 52.5786 14.6343 52.2298 14.3379L45.2378 7.5754C45.1899 7.5275 45.1457 7.50718 45.1079 7.50718C45.0454 7.50718 45.0045 7.56536 45.004 7.63582C45.004 7.67198 45.0151 7.71233 45.0396 7.74945C45.6619 8.64385 46.2342 9.76344 46.2342 11.1053C46.2342 12.5213 45.4131 13.6166 44.0208 13.6166C43.0081 13.6166 41.9095 12.6741 41.9146 11.4075C41.9168 10.7441 42.2213 9.99166 42.9998 9.24024C43.145 9.0948 43.2117 8.93048 43.211 8.7572C43.2065 7.96539 41.8065 7.00305 40.1639 7.00305Z" fill="#004E9F"/>
</g>
<defs>
<clipPath id="clip0_657_21">
<rect width="32" height="25.6768" fill="white" transform="translate(24 7)"/>
</clipPath>
</defs>
</svg>
