<svg width="80" height="40" viewBox="0 0 80 40" fill="none" xmlns="http://www.w3.org/2000/svg">
<rect width="80" height="40" rx="4" fill="white"/>
<path d="M32.6309 8.87671V31.8899L52.7674 20.3833L32.6309 8.87671Z" fill="#FF0000" stroke="#FF0000" stroke-width="0.152632"/>
<path d="M34.9631 20H34.1896V17.8182H34.9695C35.1889 17.8182 35.3778 17.8619 35.5362 17.9492C35.6946 18.0359 35.8164 18.1605 35.9016 18.3232C35.9876 18.4858 36.0305 18.6804 36.0305 18.907C36.0305 19.1342 35.9876 19.3295 35.9016 19.4929C35.8164 19.6562 35.6939 19.7816 35.5341 19.869C35.375 19.9563 35.1847 20 34.9631 20ZM34.6509 19.6048H34.9439C35.0803 19.6048 35.195 19.5806 35.288 19.5323C35.3817 19.4833 35.4521 19.4077 35.4989 19.3054C35.5465 19.2024 35.5703 19.0696 35.5703 18.907C35.5703 18.7457 35.5465 18.614 35.4989 18.5117C35.4521 18.4094 35.3821 18.3342 35.2891 18.2859C35.196 18.2376 35.0813 18.2134 34.945 18.2134H34.6509V19.6048ZM37.2458 17.8182H37.7018V19.3395C37.7018 19.4801 37.6702 19.6023 37.607 19.706C37.5445 19.8097 37.4575 19.8896 37.346 19.9457C37.2345 20.0018 37.1048 20.0298 36.9571 20.0298C36.8257 20.0298 36.7064 20.0067 36.5992 19.9606C36.4926 19.9137 36.4081 19.8427 36.3456 19.7475C36.2831 19.6516 36.2522 19.5312 36.2529 19.3864H36.7121C36.7135 19.4439 36.7252 19.4933 36.7472 19.5344C36.77 19.5749 36.8009 19.6062 36.8399 19.6282C36.8797 19.6495 36.9266 19.6602 36.9806 19.6602C37.0374 19.6602 37.0853 19.6481 37.1244 19.6239C37.1642 19.5991 37.1943 19.5629 37.2149 19.5153C37.2355 19.4677 37.2458 19.4091 37.2458 19.3395V17.8182ZM38.0832 20V17.8182H39.5534V18.1985H38.5445V18.7184H39.4777V19.0987H38.5445V19.6197H39.5576V20H38.0832ZM39.8967 20V19.7262L40.9854 18.1985H39.8945V17.8182H41.565V18.092L40.4751 19.6197H41.5671V20H39.8967ZM41.8976 20V19.7262L42.9864 18.1985H41.8955V17.8182H43.566V18.092L42.4761 19.6197H43.5681V20H41.8976ZM43.7942 17.8182H44.3109L44.8084 18.7578H44.8297L45.3272 17.8182H45.8439L45.0481 19.2287V20H44.59V19.2287L43.7942 17.8182Z" fill="white"/>
<path d="M34.078 22.916C34.078 22.87 34.082 22.816 34.09 22.754C34.098 22.692 34.113 22.622 34.135 22.544C34.157 22.464 34.19 22.375 34.234 22.277L34.603 22.406C34.581 22.468 34.562 22.525 34.546 22.577C34.53 22.627 34.518 22.674 34.51 22.718C34.502 22.76 34.498 22.802 34.498 22.844C34.498 22.904 34.511 22.96 34.537 23.012C34.563 23.064 34.602 23.109 34.654 23.147C34.706 23.187 34.77 23.218 34.846 23.24C34.924 23.262 35.014 23.273 35.116 23.273C35.232 23.273 35.334 23.262 35.422 23.24C35.512 23.22 35.587 23.193 35.647 23.159C35.709 23.127 35.756 23.093 35.788 23.057C35.82 23.021 35.836 22.988 35.836 22.958C35.836 22.934 35.819 22.913 35.785 22.895C35.753 22.877 35.71 22.859 35.656 22.841C35.604 22.821 35.548 22.799 35.488 22.775C35.43 22.751 35.374 22.721 35.32 22.685C35.268 22.649 35.225 22.605 35.191 22.553C35.159 22.501 35.143 22.438 35.143 22.364C35.143 22.288 35.163 22.205 35.203 22.115C35.243 22.023 35.3 21.936 35.374 21.854C35.448 21.77 35.536 21.702 35.638 21.65C35.742 21.596 35.856 21.569 35.98 21.569C36.068 21.569 36.148 21.583 36.22 21.611C36.294 21.639 36.356 21.671 36.406 21.707L36.25 22.058C36.208 22.03 36.163 22.009 36.115 21.995C36.067 21.979 36.021 21.971 35.977 21.971C35.921 21.971 35.867 21.982 35.815 22.004C35.765 22.026 35.72 22.055 35.68 22.091C35.642 22.125 35.612 22.162 35.59 22.202C35.568 22.242 35.557 22.28 35.557 22.316C35.557 22.352 35.574 22.384 35.608 22.412C35.644 22.438 35.69 22.463 35.746 22.487C35.802 22.509 35.861 22.532 35.923 22.556C35.985 22.58 36.044 22.607 36.1 22.637C36.156 22.667 36.201 22.703 36.235 22.745C36.271 22.787 36.289 22.838 36.289 22.898C36.289 22.984 36.262 23.073 36.208 23.165C36.156 23.259 36.078 23.346 35.974 23.426C35.87 23.506 35.742 23.57 35.59 23.618C35.44 23.668 35.266 23.693 35.068 23.693C34.924 23.693 34.792 23.676 34.672 23.642C34.552 23.61 34.447 23.561 34.357 23.495C34.269 23.431 34.2 23.35 34.15 23.252C34.102 23.156 34.078 23.044 34.078 22.916ZM35.341 24.389C35.283 24.389 35.233 24.368 35.191 24.326C35.151 24.286 35.131 24.238 35.131 24.182C35.131 24.124 35.151 24.074 35.191 24.032C35.233 23.99 35.283 23.969 35.341 23.969C35.397 23.969 35.445 23.99 35.485 24.032C35.525 24.074 35.545 24.124 35.545 24.182C35.545 24.238 35.525 24.286 35.485 24.326C35.445 24.368 35.397 24.389 35.341 24.389ZM34.822 24.389C34.764 24.389 34.714 24.368 34.672 24.326C34.632 24.286 34.612 24.238 34.612 24.182C34.612 24.124 34.632 24.074 34.672 24.032C34.714 23.99 34.764 23.969 34.822 23.969C34.878 23.969 34.926 23.99 34.966 24.032C35.006 24.074 35.026 24.124 35.026 24.182C35.026 24.238 35.006 24.286 34.966 24.326C34.926 24.368 34.878 24.389 34.822 24.389ZM36.5119 23.69L36.3589 23.306C36.5309 23.246 36.6699 23.18 36.7759 23.108C36.8839 23.036 36.9629 22.959 37.0129 22.877C37.0649 22.795 37.0909 22.71 37.0909 22.622C37.0909 22.566 37.0829 22.508 37.0669 22.448C37.0509 22.386 37.0279 22.321 36.9979 22.253C36.9699 22.185 36.9359 22.114 36.8959 22.04L37.2889 21.851C37.3589 21.985 37.4129 22.113 37.4509 22.235C37.4909 22.357 37.5109 22.471 37.5109 22.577C37.5109 22.675 37.4979 22.769 37.4719 22.859C37.4479 22.949 37.4099 23.033 37.3579 23.111C37.3079 23.191 37.2429 23.266 37.1629 23.336C37.0829 23.406 36.9889 23.47 36.8809 23.528C36.7729 23.588 36.6499 23.642 36.5119 23.69ZM37.1749 21.545C37.1129 21.545 37.0599 21.524 37.0159 21.482C36.9739 21.44 36.9529 21.388 36.9529 21.326C36.9529 21.264 36.9739 21.211 37.0159 21.167C37.0599 21.123 37.1129 21.101 37.1749 21.101C37.2349 21.101 37.2859 21.123 37.3279 21.167C37.3719 21.211 37.3939 21.264 37.3939 21.326C37.3939 21.388 37.3719 21.44 37.3279 21.482C37.2859 21.524 37.2349 21.545 37.1749 21.545ZM38.6424 23.015C38.4564 23.015 38.3124 22.996 38.2104 22.958C38.1104 22.92 38.0404 22.861 38.0004 22.781C37.9604 22.699 37.9374 22.596 37.9314 22.472L37.8684 20.804H38.2884L38.3514 22.271C38.3554 22.363 38.3654 22.432 38.3814 22.478C38.3974 22.524 38.4274 22.555 38.4714 22.571C38.5174 22.587 38.5844 22.595 38.6724 22.595C38.7484 22.595 38.8024 22.615 38.8344 22.655C38.8684 22.693 38.8854 22.741 38.8854 22.799C38.8854 22.861 38.8644 22.913 38.8224 22.955C38.7804 22.995 38.7204 23.015 38.6424 23.015ZM38.6465 23.015L38.6765 22.595C38.7845 22.595 38.8915 22.589 38.9975 22.577C39.1035 22.565 39.2065 22.547 39.3065 22.523C39.4065 22.499 39.5015 22.468 39.5915 22.43C39.6835 22.392 39.7695 22.346 39.8495 22.292C39.7895 22.256 39.7245 22.225 39.6545 22.199C39.5845 22.173 39.5095 22.154 39.4295 22.142C39.3515 22.128 39.2685 22.121 39.1805 22.121C39.1485 22.121 39.1145 22.122 39.0785 22.124C39.0445 22.126 39.0095 22.13 38.9735 22.136C38.9375 22.14 38.9015 22.146 38.8655 22.154L38.8055 21.743C38.8635 21.727 38.9245 21.716 38.9885 21.71C39.0545 21.702 39.1125 21.698 39.1625 21.698C39.2705 21.698 39.3695 21.71 39.4595 21.734C39.5515 21.758 39.6355 21.788 39.7115 21.824C39.7895 21.86 39.8615 21.896 39.9275 21.932C39.9955 21.968 40.0595 21.998 40.1195 22.022C40.1815 22.046 40.2415 22.058 40.2995 22.058H40.4105L40.4585 22.457C40.3725 22.461 40.2915 22.478 40.2155 22.508C40.1415 22.536 40.0675 22.572 39.9935 22.616C39.9215 22.658 39.8435 22.702 39.7595 22.748C39.6775 22.794 39.5845 22.837 39.4805 22.877C39.3765 22.917 39.2565 22.95 39.1205 22.976C38.9845 23.002 38.8265 23.015 38.6465 23.015ZM39.5465 23.705C39.4885 23.705 39.4385 23.685 39.3965 23.645C39.3565 23.605 39.3365 23.556 39.3365 23.498C39.3365 23.44 39.3565 23.389 39.3965 23.345C39.4385 23.303 39.4885 23.282 39.5465 23.282C39.6045 23.282 39.6535 23.303 39.6935 23.345C39.7355 23.389 39.7565 23.44 39.7565 23.498C39.7565 23.556 39.7355 23.605 39.6935 23.645C39.6535 23.685 39.6045 23.705 39.5465 23.705Z" fill="white"/>
</svg>
