<svg width="80" height="40" viewBox="0 0 80 40" fill="none" xmlns="http://www.w3.org/2000/svg">
<rect width="80" height="40" rx="4" fill="white"/>
<g clip-path="url(#clip0_657_90)">
<path d="M39.2248 24.0631C36.9134 24.0631 34.8396 22.7504 34.8396 20.9149C34.8396 19.0787 36.9136 17.7647 39.2413 17.7647C40.2533 17.7647 41.1984 18.0201 42.2261 18.5933L41.5016 19.524C40.8431 19.2055 40.0674 19.0147 39.2413 19.0147C38.2628 19.0147 37.1328 19.5625 37.1328 20.9147C37.1328 22.2661 38.2462 22.8136 39.2413 22.8136C40.0674 22.8136 40.8598 22.6481 41.5342 22.3544L42.2599 23.3364C41.3998 23.7964 40.3539 24.0631 39.2248 24.0631ZM52.4269 24.0391C54.7537 24.0391 56.8286 22.7259 56.8286 20.8911C56.8286 19.0547 54.7537 17.7407 52.4269 17.7407C50.0992 17.7407 48.0241 19.0546 48.0241 20.8911C48.0241 22.7261 50.0992 24.0391 52.4269 24.0391ZM54.5352 20.8911C54.5352 22.2423 53.4054 22.7898 52.4269 22.7898C51.4478 22.7898 50.3184 22.2423 50.3184 20.8911C50.3184 19.5383 51.4478 18.9908 52.4269 18.9908C53.4054 18.9908 54.5352 19.5383 54.5352 20.8911ZM57.7654 23.8871H59.9393V20.138C59.9393 19.6318 60.3324 19.036 61.0359 19.0321C61.5273 19.036 61.9989 19.3723 61.9989 19.799L61.9945 23.8871H64.1741V19.6832C64.1741 18.5759 62.9872 17.6516 61.5711 17.6516C61.557 17.6516 61.5437 17.6535 61.5298 17.6538C61.5158 17.6535 61.5024 17.6516 61.4889 17.6516C60.9252 17.6513 60.3727 17.8095 59.8946 18.1083C59.8907 18.0921 59.7685 17.6902 57.7654 17.6902V23.8871ZM31.6647 23.8871H33.7943V17.8947H31.6647V23.8871ZM43.2752 23.8871H45.4057V20.2532C45.4057 19.6791 46.0796 19.2199 46.8053 19.2199C47.1599 19.2199 47.4936 19.2909 47.7738 19.4149V17.8391C47.5217 17.8007 47.267 17.781 47.012 17.7799C46.441 17.7799 45.8683 17.9454 45.3996 18.2234C45.3648 18.1526 45.1036 17.8178 43.2752 17.8178V23.8871ZM27.6019 21.4986L27.6016 23.8876H29.7824V19.5258C29.1506 20.1774 28.4219 20.841 27.6019 21.4986Z" fill="#104076"/>
<path d="M29.7828 19.5259C32.1844 17.0483 33.1791 14.7452 32.4048 13.6367C31.5965 12.479 29.0854 12.9481 25.8304 14.668C25.7021 14.7298 25.5785 14.8008 25.4605 14.8804C25.3033 14.9896 25.3949 15.0689 25.5111 15.0268C25.65 14.9777 25.7861 14.9209 25.9186 14.8564C28.3586 13.6993 30.2617 13.4917 31.0056 14.2993C32.1393 15.5295 29.8176 19.5611 25.7974 22.5431C25.2607 22.941 24.4325 23.5238 23.8931 23.8475C23.8566 23.8701 23.8206 23.8925 23.7854 23.9148C23.6428 24.0082 23.5158 24.0951 23.4159 24.1734C23.3186 24.2489 23.3373 24.3693 23.5128 24.2937C23.6198 24.2481 23.7496 24.179 23.8879 24.0943C23.9191 24.0752 23.9499 24.0578 23.9827 24.0377C24.5888 23.6697 25.4888 23.0483 26.1035 22.619C26.6151 22.2618 27.1149 21.8881 27.6021 21.4983C28.4223 20.8411 29.151 20.1772 29.7828 19.5259Z" fill="#104076"/>
<path d="M19.0759 26.9992H21.2567V24.7392C21.8664 24.3775 22.4643 23.9962 23.0495 23.5959C23.1828 23.5043 23.301 23.413 23.3867 23.3347C23.5278 23.2056 23.4256 23.1393 23.3167 23.1966C23.2047 23.2558 23.0721 23.3356 22.9286 23.4269C19.5598 25.5817 17.2855 26.2392 16.4458 25.0991C15.7163 24.1092 16.912 22.1955 19.0761 20.0343V25.0506C19.69 24.8422 20.4157 24.5097 21.2564 24.0421L21.2559 19.3879L21.7356 20.4087C22.2615 21.5358 23.2156 22.2097 24.4289 22.2097C25.6417 22.2097 26.5959 21.5358 27.1218 20.4087L27.6015 19.3879L27.601 20.5753C28.3814 19.8184 29.0477 19.0628 29.5529 18.332C29.616 18.2417 29.6104 18.1656 29.5761 18.0821C29.4061 17.7268 29.1389 17.4269 28.8055 17.2171C28.4721 17.0073 28.0861 16.8962 27.6922 16.8967C26.8697 16.8967 26.1554 17.3737 25.813 18.0637L24.9002 19.9999C24.8059 20.1884 24.6321 20.293 24.4288 20.293C24.2259 20.293 24.0512 20.1884 23.9568 19.9999L23.0444 18.064C22.87 17.7135 22.6014 17.4184 22.2687 17.212C22.9362 16.6822 23.585 16.2091 24.2237 15.8213C24.3498 15.7437 24.4715 15.6592 24.5882 15.5681C24.6869 15.4929 24.6686 15.3726 24.4927 15.4464C24.3857 15.4912 24.2472 15.5594 24.1086 15.6437C23.456 16.0391 22.7888 16.4435 22.1511 16.8795C22.0737 16.9322 21.9973 16.9851 21.9209 17.038C21.6799 16.9444 21.4236 16.8966 21.1651 16.8969C20.8907 16.8966 20.6188 16.9505 20.3652 17.0554C20.1116 17.1603 19.8812 17.3142 19.6871 17.5083C19.4931 17.7024 19.3392 17.9329 19.2344 18.1865C19.1295 18.4401 19.0757 18.712 19.0761 18.9864V19.274C15.9952 22.0212 14.3777 24.7412 15.2229 25.9523C15.8434 26.8404 17.3148 26.6354 19.0759 25.8702V26.9992ZM65.0062 18.4168H65.0853C65.1752 18.4168 65.2511 18.3842 65.2511 18.3C65.2511 18.24 65.2077 18.18 65.0853 18.18C65.0496 18.18 65.0253 18.1827 65.0062 18.1852V18.4168ZM65.0062 18.7954H64.897V18.1119C64.9543 18.1041 65.0086 18.0958 65.0907 18.0958C65.194 18.0958 65.2619 18.1175 65.3028 18.1475C65.3436 18.1775 65.3652 18.2234 65.3652 18.2887C65.3652 18.3786 65.3054 18.433 65.2318 18.455V18.4602C65.2918 18.4711 65.3328 18.526 65.3463 18.6262C65.3628 18.7322 65.3787 18.7735 65.3897 18.7953H65.2755C65.2592 18.7735 65.2428 18.7109 65.2295 18.621C65.2132 18.5336 65.1695 18.5012 65.0821 18.5012H65.0062V18.7954ZM65.1205 17.9216C64.851 17.9216 64.6308 18.1526 64.6308 18.4386C64.6308 18.7299 64.8512 18.9584 65.1232 18.9584C65.3955 18.9614 65.6132 18.7297 65.6132 18.4411C65.6132 18.1526 65.3955 17.9216 65.1232 17.9216H65.1205ZM65.123 17.8259C65.4578 17.8259 65.7247 18.0982 65.7247 18.4384C65.7247 18.7844 65.458 19.0539 65.1205 19.0539C64.7859 19.0539 64.5138 18.7844 64.5138 18.4384C64.5138 18.0982 64.7858 17.8259 65.1205 17.8259H65.123Z" fill="#104076"/>
</g>
<defs>
<clipPath id="clip0_657_90">
<rect width="50.7246" height="14" fill="white" transform="translate(15 13)"/>
</clipPath>
</defs>
</svg>
