<svg width="80" height="40" viewBox="0 0 80 40" fill="none" xmlns="http://www.w3.org/2000/svg">
<rect width="80" height="40" rx="4" fill="white"/>
<g clip-path="url(#clip0_657_13)">
<path d="M24 36H56.0026V4H24V36Z" fill="#FAC705"/>
<path d="M40.0016 26.2226C48.3478 26.2226 55.1119 23.4358 55.1119 20.0013C55.1119 16.5642 48.3465 13.7775 40.0016 13.7775C31.6553 13.7775 24.8887 16.5642 24.8887 20.0013C24.8887 23.4371 31.6553 26.2226 40.0016 26.2226Z" fill="#005C87"/>
<path d="M43.7825 18.4665L44.1781 16.8894H39.0193L38.625 18.4665H40.3135L39.4852 21.7794H41.2633L42.0928 18.4665H43.7825Z" fill="#FAC705"/>
<path d="M38.5749 16.8894H36.0019L34.3634 20.5134V16.8894H31.871L30.3105 23.1107H32.0246L33.0397 19.095V23.1107H34.3634L36.3129 19.095L35.3785 23.1107H37.0157L38.5749 16.8894ZM49.6887 16.8894H48.0528L47.1964 20.1997L46.4155 16.8894H44.6208L43.0629 23.112H44.7015L45.5578 19.7261L46.4155 23.1107H48.1309L49.6887 16.8894Z" fill="white"/>
<path d="M39.3744 22.2223L39.1504 23.1107H40.9297L41.1512 22.2223H39.3744Z" fill="#211E1E"/>
</g>
<defs>
<clipPath id="clip0_657_13">
<rect width="32.0026" height="32" fill="white" transform="translate(24 4)"/>
</clipPath>
</defs>
</svg>
