<svg width="80" height="40" viewBox="0 0 80 40" fill="none" xmlns="http://www.w3.org/2000/svg">
<rect width="80" height="40" rx="4" fill="white"/>
<path d="M55.7642 19.9475C55.7642 17.7453 54.5034 15.8369 52.6646 14.9061C54.5034 13.9741 55.7642 12.067 55.7642 9.86481C55.7642 6.74533 53.2366 4.21729 50.1173 4.21729C47.9144 4.21729 46.0055 5.48008 45.0744 7.32078C44.1444 5.48008 42.2356 4.21729 40.0315 4.21729C37.8286 4.21729 35.9197 5.48008 34.9886 7.32078C34.0587 5.48008 32.1498 4.21729 29.9457 4.21729C26.8277 4.21729 24.2988 6.74533 24.2988 9.86481C24.2988 12.067 25.5596 13.9741 27.3984 14.9061C25.5596 15.8369 24.2988 17.7453 24.2988 19.9475C24.2988 22.1497 25.5596 24.0568 27.3984 24.9888C25.5596 25.9196 24.2988 27.8279 24.2988 30.0301C24.2988 33.1484 26.8277 35.6764 29.9457 35.6764C32.1498 35.6764 34.0587 34.4136 34.9886 32.5729C35.9197 34.4138 37.8286 35.6764 40.0315 35.6764C42.2356 35.6764 44.1444 34.4136 45.0744 32.5729C46.0055 34.4138 47.9144 35.6764 50.1173 35.6764C53.2366 35.6764 55.7642 33.1484 55.7642 30.0301C55.7642 27.8279 54.5034 25.9196 52.6646 24.9888C54.5034 24.0568 55.7642 22.1497 55.7642 19.9475ZM34.9886 12.4076C35.5322 13.4835 36.4092 14.3614 37.4842 14.9061C36.4092 15.4496 35.5322 16.3275 34.9886 17.4034C34.4449 16.3275 33.568 15.4496 32.493 14.9061C33.568 14.3615 34.4449 13.4835 34.9886 12.4076ZM34.9886 27.4862C34.4449 26.4103 33.568 25.5323 32.493 24.9888C33.568 24.4441 34.4449 23.5662 34.9886 22.4903C35.5322 23.5662 36.4092 24.4442 37.4842 24.9888C36.4092 25.5323 35.5322 26.4103 34.9886 27.4862ZM45.0744 27.4862C44.5308 26.4103 43.6538 25.5323 42.5788 24.9888C43.6538 24.4441 44.5308 23.5662 45.0744 22.4903C45.6181 23.5662 46.4952 24.4442 47.57 24.9888C46.4952 25.5323 45.6181 26.4103 45.0744 27.4862ZM45.0744 17.4034C44.5308 16.3275 43.6538 15.4496 42.5788 14.9061C43.6538 14.3614 44.5308 13.4835 45.0744 12.4076C45.6181 13.4835 46.4952 14.3614 47.57 14.9061C46.4952 15.4497 45.6181 16.3275 45.0744 17.4034Z" fill="#DF0327"/>
<path d="M40.0506 21.7083C39.3249 21.7083 38.7025 21.2583 38.4504 20.6226C38.3717 20.4258 38.3286 20.2119 38.3286 19.9869C38.3286 19.9734 38.3286 19.9598 38.3299 19.9463H42.9201C42.9091 18.3491 41.6238 17.0568 40.0408 17.0568C38.4492 17.0568 37.1602 18.3601 37.1602 19.9672C37.1602 21.5743 38.4492 22.8764 40.0408 22.8764C41.4085 22.8764 42.5524 21.9137 42.8452 20.6226H41.6508C41.3987 21.2582 40.7763 21.7083 40.0506 21.7083ZM40.0506 18.2655C40.6116 18.2655 41.1095 18.5335 41.4233 18.9479H38.678C38.9916 18.5334 39.4897 18.2655 40.0506 18.2655Z" fill="white"/>
<path d="M29.9548 27.1394C28.3632 27.1394 27.0742 28.4428 27.0742 30.0499C27.0742 31.6569 28.3632 32.9591 29.9548 32.9591C31.5452 32.9591 32.8342 31.6569 32.8342 30.0499C32.8342 28.4428 31.5452 27.1394 29.9548 27.1394ZM29.9647 31.791C29.0139 31.791 28.2427 31.02 28.2427 30.0695C28.2427 29.119 29.0139 28.3481 29.9647 28.3481C30.9154 28.3481 31.6866 29.119 31.6866 30.0695C31.6866 31.02 30.9154 31.791 29.9647 31.791Z" fill="white"/>
<path d="M40.0408 27.1394C38.4492 27.1394 37.1602 28.4428 37.1602 30.0499C37.1602 31.6569 38.4492 32.9591 40.0408 32.9591C41.6311 32.9591 42.9201 31.6569 42.9201 30.0499C42.9201 28.4428 41.6311 27.1394 40.0408 27.1394ZM40.0506 31.791C39.0998 31.791 38.3286 31.02 38.3286 30.0695C38.3286 29.119 39.0998 28.3481 40.0506 28.3481C41.0014 28.3481 41.7726 29.119 41.7726 30.0695C41.7726 31.02 41.0014 31.791 40.0506 31.791Z" fill="white"/>
<path d="M40.0408 6.97412C38.4492 6.97412 37.1602 8.27749 37.1602 9.88457C37.1602 11.4916 38.4492 12.7938 40.0408 12.7938C41.6311 12.7938 42.9201 11.4916 42.9201 9.88457C42.9201 8.27749 41.6311 6.97412 40.0408 6.97412ZM40.0506 11.6257C39.0998 11.6257 38.3286 10.8547 38.3286 9.90424C38.3286 8.95377 39.0998 8.18281 40.0506 8.18281C41.0014 8.18281 41.7726 8.95377 41.7726 9.90424C41.7726 10.8547 41.0014 11.6257 40.0506 11.6257Z" fill="white"/>
<path d="M50.1267 6.97412C48.5352 6.97412 47.2461 8.27749 47.2461 9.88457C47.2461 11.4916 48.5351 12.7938 50.1267 12.7938C51.7171 12.7938 53.0061 11.4916 53.0061 9.88457C53.0061 8.27749 51.7171 6.97412 50.1267 6.97412ZM50.1365 11.6257C49.1858 11.6257 48.4146 10.8547 48.4146 9.90424C48.4146 8.95377 49.1858 8.18281 50.1365 8.18281C51.0873 8.18281 51.8585 8.95377 51.8585 9.90424C51.8585 10.8547 51.0873 11.6257 50.1365 11.6257Z" fill="white"/>
<path d="M52.6642 14.9061C52.6801 14.8975 52.6975 14.8889 52.7134 14.8802C52.2693 15.0954 51.7823 15.227 51.7823 15.227V17.5866C51.3136 17.2521 50.7429 17.0566 50.1267 17.0566C48.5352 17.0566 47.2461 18.36 47.2461 19.9671C47.2461 21.5742 48.5351 22.8763 50.1267 22.8763C51.7171 22.8763 53.0061 21.5742 53.0061 19.9671V15.0942C52.8942 15.0279 52.7798 14.9652 52.6642 14.9061ZM50.0983 21.637C49.1684 21.637 48.4146 20.8734 48.4146 19.9315C48.4146 18.9884 49.1686 18.2249 50.0983 18.2249C51.0283 18.2249 51.7821 18.9884 51.7821 19.9315C51.7823 20.8734 51.0283 21.637 50.0983 21.637Z" fill="white"/>
<path d="M32.8108 19.5982H31.6424C31.4665 18.8346 30.7814 18.2653 29.9647 18.2653C29.0139 18.2653 28.2427 19.0363 28.2427 19.9868V22.6513H27.0742V19.9671C27.0742 18.36 28.3632 17.0566 29.9548 17.0566C31.421 17.0568 32.6313 18.1645 32.8108 19.5982Z" fill="white"/>
</svg>
