<svg width="80" height="40" viewBox="0 0 80 40" fill="none" xmlns="http://www.w3.org/2000/svg">
<rect width="80" height="40" rx="4" fill="white"/>
<g clip-path="url(#clip0_657_27)">
<path fill-rule="evenodd" clip-rule="evenodd" d="M24 4H56V36H24V4Z" fill="white"/>
<path fill-rule="evenodd" clip-rule="evenodd" d="M27.23 25.81L26.39 28.2485L25.5307 25.81H24.4707L25.7809 29.3758H26.9446L28.2623 25.81H27.23ZM33.6429 27.5973C33.6429 27.4067 33.6994 27.2203 33.8053 27.0619C33.9112 26.9034 34.0618 26.7798 34.2379 26.7069C34.414 26.634 34.6078 26.6149 34.7947 26.6521C34.9816 26.6893 35.1534 26.7811 35.2881 26.9159C35.4229 27.0507 35.5147 27.2224 35.5518 27.4094C35.589 27.5963 35.5699 27.7901 35.4969 27.9662C35.424 28.1423 35.3004 28.2928 35.1419 28.3986C34.9834 28.5045 34.7971 28.561 34.6065 28.561C34.3509 28.5608 34.1059 28.4593 33.9252 28.2786C33.7445 28.0979 33.643 27.8528 33.6429 27.5973ZM35.5297 24.356V26.1066C35.5277 26.1056 35.5263 26.1043 35.5248 26.1032C35.232 25.8868 34.8739 25.752 34.4863 25.752C33.5006 25.752 32.7016 26.5753 32.7016 27.5911C32.7016 28.6066 33.5005 29.4299 34.4863 29.4299C34.8761 29.4299 35.2365 29.3012 35.5297 29.0829V29.3806H36.4461V24.356H35.5297ZM38.0018 27.5973C38.0064 27.3448 38.11 27.1043 38.2902 26.9274C38.4704 26.7506 38.7128 26.6515 38.9653 26.6515C39.2178 26.6515 39.4602 26.7506 39.6404 26.9274C39.8206 27.1043 39.9241 27.3448 39.9288 27.5973C39.9288 27.8529 39.8272 28.098 39.6465 28.2787C39.4657 28.4595 39.2206 28.561 38.965 28.561C38.7095 28.5608 38.4645 28.4592 38.2839 28.2785C38.1033 28.0978 38.0018 27.8528 38.0018 27.5973ZM39.8882 25.8138V26.1066L39.8833 26.1032C39.5912 25.8868 39.2322 25.752 38.8448 25.752C37.8592 25.752 37.0601 26.5753 37.0601 27.5911C37.0601 28.6066 37.859 29.4299 38.8448 29.4299C39.2346 29.4299 39.5947 29.3012 39.8882 29.0829V29.3806H40.8049V25.814H39.8882V25.8138ZM43.3026 25.8138H42.7535C42.7535 25.8138 42.7516 25.6996 42.7516 25.5972C42.7516 25.3712 42.7516 25.0842 43.1115 25.0842C43.2039 25.0842 43.2928 25.0998 43.2928 25.0998V24.2704C43.2928 24.2704 43.1424 24.2662 43.0399 24.2704C42.1972 24.3031 41.8262 24.5908 41.8262 25.4331V25.8138H41.416V26.6357H41.8262V29.3749H42.7535V26.6357H43.3026V25.8138ZM48.8497 26.1246C49.11 25.8875 49.49 25.7398 49.8979 25.7398C50.7381 25.7398 51.2192 26.2748 51.2215 26.9814L51.2219 27.3808V29.3759H50.2761V27.2946C50.2761 26.7707 49.911 26.6112 49.6223 26.6112C49.3564 26.6112 48.848 26.7577 48.8766 27.3974V29.3759H47.9292V25.8138H48.8497V26.1246ZM52.8207 27.8739C52.8657 28.3216 53.2403 28.6481 53.6991 28.6481C54.061 28.6481 54.3009 28.5052 54.4432 28.2454H55.4335C55.2749 28.8005 54.6507 29.4282 53.7308 29.4282C52.6238 29.4282 51.8438 28.604 51.8438 27.5871C51.8438 26.5703 52.68 25.7457 53.7308 25.7457C54.782 25.7457 55.5297 26.6419 55.5297 27.5871C55.5297 27.784 55.5077 27.8725 55.5077 27.8725L52.8207 27.8739ZM54.5303 27.1847C54.4503 26.7803 54.1112 26.5476 53.6989 26.5476C53.2736 26.5476 52.9409 26.7953 52.8451 27.1821L54.5303 27.1847ZM30.968 25.8641C30.7999 25.9009 30.6495 25.994 30.5415 26.1279C30.4335 26.2618 30.3744 26.4285 30.374 26.6005C30.374 26.6083 30.376 26.6178 30.3761 26.6251C30.9117 26.7393 31.1818 27.1004 31.1818 27.5762C31.1818 28.1113 30.7443 28.545 30.2094 28.545C29.6745 28.545 29.1748 28.0986 29.1748 27.4371C29.1748 26.6294 29.8673 25.8712 30.8542 25.8477C30.8718 25.8473 30.9001 25.848 30.9288 25.8493C30.7052 25.7643 30.4679 25.7209 30.2287 25.7213C29.1699 25.7213 28.3116 26.5521 28.3116 27.5764C28.3116 28.601 29.1699 29.4314 30.2287 29.4314C31.2877 29.4314 32.146 28.601 32.146 27.5764C32.146 26.8054 31.6597 26.1447 30.968 25.8641ZM45.4262 25.7368C44.3672 25.7368 43.5086 26.5672 43.5086 27.5918C43.5086 28.3626 43.995 29.0237 44.6873 29.3036C44.8552 29.2667 45.0055 29.1737 45.1134 29.0399C45.2213 28.906 45.2803 28.7394 45.2806 28.5675C45.2806 28.5597 45.2789 28.5505 45.2786 28.5429C44.7429 28.429 44.4728 28.0679 44.4728 27.5918C44.4728 27.0564 44.9102 26.6233 45.4451 26.6233C45.98 26.6233 46.4797 27.0692 46.4797 27.7309C46.4797 28.5389 45.7871 29.2964 44.8005 29.3207C44.7756 29.3207 44.7508 29.32 44.7259 29.3187C44.9426 29.401 45.1787 29.4467 45.426 29.4467C46.4847 29.4467 47.343 28.6159 47.343 27.5916C47.3431 26.5672 46.4849 25.7368 45.4262 25.7368ZM42.3164 11.0119C41.2387 11.2491 40.4267 12.2155 40.4267 13.3723C40.4267 13.3972 40.4325 13.4267 40.4335 13.4516C42.1378 13.8169 42.9973 14.9736 42.9973 16.5005C42.9973 18.2152 41.6052 19.6059 39.9031 19.6059C38.2013 19.6059 36.6114 18.1752 36.6114 16.0539C36.6114 13.4641 38.8146 11.0348 41.954 10.9578C42.0108 10.9566 42.1003 10.9588 42.1921 10.9628C41.4809 10.6913 40.7259 10.5526 39.9647 10.5537C36.5956 10.5537 33.8641 13.2162 33.8641 16.5006C33.8641 19.7852 36.5956 22.4476 39.9647 22.4476C43.3333 22.4476 46.0647 19.785 46.0647 16.5006C46.0647 14.0287 44.5178 11.909 42.3164 11.0119Z" fill="#CC2131"/>
</g>
<defs>
<clipPath id="clip0_657_27">
<rect width="32" height="32" fill="white" transform="translate(24 4)"/>
</clipPath>
</defs>
</svg>
