<svg width="80" height="40" viewBox="0 0 80 40" fill="none" xmlns="http://www.w3.org/2000/svg">
<rect width="80" height="40" rx="4" fill="white"/>
<path d="M60.6195 27.9999L60.5819 27.9811C56.733 25.39 53.9437 21.3617 53.9152 21.3145L53.8867 21.2766L53.9152 21.2387C53.9434 21.2011 56.6385 17.1537 60.5819 14.5721L60.6195 14.5436L60.6574 14.5721C64.7142 17.2386 67.2956 21.2008 67.3241 21.2387L67.3429 21.2763L67.3241 21.3145C67.2959 21.3521 64.8654 25.5601 60.6574 27.9811L60.6198 27.9999H60.6195Z" fill="url(#paint0_radial_657_33)"/>
<path d="M60.6121 27.5368C56.952 25.0776 54.3516 21.2763 54.3516 21.2763C54.3516 21.2763 56.8763 17.4559 60.6306 14.9973C64.4792 17.522 66.8906 21.2572 66.8906 21.2572C66.8906 21.2572 64.6216 25.2291 60.6121 27.5368Z" fill="url(#paint1_radial_657_33)"/>
<path opacity="0.3" d="M61.908 18.7897C61.851 20.2269 61.3121 21.7493 60.4232 22.9595C59.61 24.0661 58.6265 24.9453 57.5957 25.5318C57.9079 25.8249 58.2294 26.118 58.5601 26.4111C59.0047 26.2504 59.4397 26.0519 59.8464 25.7964C61.0473 25.0496 61.9553 23.9621 62.4845 22.6476C63.0143 21.3238 63.1088 19.9053 62.74 18.553" fill="#388F3F"/>
<path d="M60.5176 12.0567C59.9314 12.4443 59.5344 13.0305 59.5153 13.059L59.4492 13.163L59.5247 13.2669C59.5435 13.2954 59.9408 13.8722 60.5176 14.2598L60.6122 14.3262L60.7162 14.2695C61.3593 13.9006 61.7187 13.2766 61.7281 13.2575L61.7848 13.163L61.7187 13.0684C61.6999 13.0402 61.3214 12.4631 60.7162 12.0661L60.6125 12L60.5179 12.0564L60.5176 12.0567Z" fill="#296334"/>
<path d="M58.7012 24.6335C59.3252 24.0943 59.9208 23.423 60.4315 22.6477C61.2544 21.3993 61.746 19.8296 61.7839 18.3545C61.8124 17.2291 61.5851 16.2268 61.1219 15.4515L61.8406 16.3308C62.1621 16.8794 62.4079 17.4752 62.5686 18.1087C62.9186 19.4986 62.8429 20.955 62.3607 22.3167L58.7014 24.6335H58.7012Z" fill="url(#paint2_radial_657_33)"/>
<path d="M56.0176 26.4963C55.4029 26.449 54.7979 26.3165 54.2115 26.0898C54.1169 26.0519 54.0127 26.014 53.9184 25.9668C53.8899 25.9574 53.8711 25.9383 53.8711 25.9195H53.8805C53.8899 25.9195 53.8993 25.9195 53.9087 25.9289C54.1357 25.9952 54.3721 26.0328 54.6179 26.0519C56.5661 26.1938 58.8545 24.8793 60.462 22.695C61.351 21.4844 61.8899 19.962 61.9466 18.5248C61.9939 17.2291 61.6538 16.1135 60.9915 15.3097C61.852 16.1038 62.4763 17.144 62.7882 18.2884C63.1571 19.6405 63.0625 21.0589 62.533 22.3828C62.0035 23.6973 61.0958 24.7847 59.8947 25.5318C58.7314 26.2504 57.3603 26.5908 56.0176 26.4963Z" fill="#296334"/>
<path opacity="0.5" d="M62.777 18.2885C62.5406 17.4184 62.1244 16.6149 61.5664 15.9244C62.0771 16.5864 62.4557 17.3523 62.673 18.1655C63.0418 19.5366 62.9567 20.9647 62.4178 22.3074C61.888 23.6407 60.9615 24.7375 59.7509 25.494C58.5783 26.2221 57.1881 26.5721 55.836 26.4681C55.7793 26.4681 55.7132 26.4585 55.6562 26.4493C55.7793 26.4681 55.9023 26.4775 56.0157 26.4869C57.349 26.5909 58.7296 26.2411 59.8834 25.5225C61.0842 24.7754 61.9923 23.6877 62.5215 22.3735C63.0607 21.059 63.1458 19.6406 62.777 18.2885Z" fill="#004A25"/>
<path d="M34.267 19.6971C33.0565 19.6971 32.4419 19.3095 32.4419 18.553V17.6737L32.527 17.6264C32.5743 17.5979 32.7634 17.5034 32.8674 17.4464L33.1135 17.3236V18.5151C33.1135 18.8557 33.2457 19.2528 34.2767 19.2528H36.8108C37.4255 19.2528 37.6052 19.1297 37.6525 18.8933C37.4537 18.9597 37.1891 19.007 36.9336 19.0258L36.773 19.0352C35.8179 19.0352 35.2506 18.676 35.2506 18.0801C35.2506 17.2197 36.319 17.1251 36.7824 17.1251C37.4161 17.1251 37.8889 17.2764 38.1347 17.5603C38.2575 17.7113 38.3239 17.8816 38.3239 18.0801V18.8178C38.3239 19.6025 37.5483 19.7068 36.8675 19.7068H34.267V19.6971ZM36.773 17.5412C36.442 17.5412 35.8934 17.6073 35.8934 18.0801C35.8934 18.553 36.442 18.6193 36.773 18.6193C37.1039 18.6193 37.6619 18.553 37.6619 18.0801C37.6619 17.6073 37.1039 17.5412 36.773 17.5412ZM36.4608 16.2552H37.1133V16.9266H36.4608V16.2552ZM38.3239 20.6809L37.9644 20.2457H38.456C39.6005 20.2457 39.7423 19.8486 39.7423 19.508V17.4373L39.8936 17.4276C39.9693 17.4182 40.13 17.4088 40.2151 17.3994L40.3948 17.3806V19.0918C40.7161 19.1961 41.0756 19.2528 41.4444 19.2528C42.2198 19.2528 42.2861 18.9406 42.2861 18.6475V17.6831L42.9384 17.6167V18.5247C43.8464 17.6355 44.9339 17.3239 45.6713 17.3239C46.7682 17.3239 47.4207 17.7682 47.4207 18.5059C47.4207 18.8084 47.3262 19.054 47.137 19.2434H48.9622C48.811 19.0921 48.7352 18.8933 48.7352 18.676C48.7352 17.7776 49.8606 17.6831 50.3428 17.6831C51.3642 17.6831 51.9504 18.0423 51.9504 18.676C51.9504 19.3473 51.4115 19.6877 50.3428 19.6877H43.8746C43.4206 19.6877 42.9575 19.6404 42.6453 19.6025C42.5034 19.5931 42.3995 19.5743 42.3522 19.5649H42.3428C42.1252 19.6404 41.8321 19.6877 41.4726 19.6877C41.0944 19.6877 40.7446 19.6501 40.3948 19.5649C40.376 20.3118 39.7517 20.6712 38.4848 20.6712H38.3236V20.6806L38.3239 20.6809ZM50.3522 18.118C50.0024 18.118 49.4066 18.1938 49.4066 18.6948C49.4066 19.177 49.9739 19.2528 50.3049 19.2528H50.3522C51.2223 19.2528 51.2884 18.9879 51.2884 18.6948C51.2978 18.1938 50.7022 18.118 50.3522 18.118ZM43.0423 19.2149C43.3357 19.2434 43.6952 19.2622 43.9316 19.2622H45.6334C46.3615 19.2622 46.7306 19.0164 46.7306 18.5247C46.7306 18.0235 46.3805 17.7871 45.6713 17.7871C45.0188 17.7776 43.7516 18.2314 43.0423 19.2149ZM13.728 16.6429H14.3239V17.286H13.728V16.6429ZM14.6073 16.6429H15.2032V17.286H14.6073V16.6429ZM15.0519 19.6498V19.2906C14.8437 19.3189 14.6264 19.3379 14.4373 19.3379C13.2455 19.3379 13 18.8366 13 18.4111C13 17.7965 13.548 17.4467 14.5033 17.4467C14.9574 17.4467 15.222 17.4749 15.5623 17.5318L15.7042 17.5506V19.2055H16.4231C17.1135 19.1867 17.1699 18.8933 17.1699 18.6287V17.4652L17.3214 17.4558C17.3969 17.4464 17.5482 17.437 17.6239 17.4273L17.8036 17.4085V18.7136C17.8036 19.2619 17.4254 19.5741 16.6783 19.6307V19.6496L15.0519 19.6498ZM14.4939 17.9101C13.936 17.9101 13.6617 18.0801 13.6617 18.4205C13.6617 18.7042 13.7941 18.8933 14.4373 18.8933C14.6264 18.8933 14.8437 18.8745 15.0422 18.846V17.9477C14.8531 17.9101 14.7019 17.9101 14.4939 17.9101ZM17.1605 16.482H17.8036V17.1345H17.1605V16.482ZM21.0661 16.4917H21.6619V17.1348H21.0661V16.4917ZM21.936 16.4917H22.5318V17.1348H21.936V16.4917ZM23.2504 19.962H23.8463V20.6051H23.2504V19.962ZM18.9478 20.6051L18.9005 20.5388C18.8911 20.52 18.8629 20.4915 18.8248 20.4536L18.5696 20.1699H19.0897C20.0353 20.1699 20.2432 19.8862 20.3002 19.6498H19.7704C18.8626 19.6498 18.3143 19.2906 18.3143 18.7042C18.3143 17.995 19.1275 17.7492 19.8274 17.7492C20.2056 17.7492 20.442 17.768 20.8203 17.8343L20.9621 17.8531V19.2243H21.1606C21.6901 19.2055 21.8981 19.0448 21.8981 18.6475V17.4843L22.0496 17.4749C22.1251 17.4655 22.2672 17.4561 22.3521 17.4467L22.5318 17.4279V18.7327C22.5318 18.8651 22.5033 18.9879 22.456 19.0921C22.7303 19.177 23.0328 19.2243 23.345 19.2243C24.0354 19.2055 24.0918 18.9124 24.0918 18.6475V17.4843L24.2433 17.4749C24.3094 17.4655 24.4325 17.4561 24.5174 17.4467L24.7162 17.4279L24.7256 17.6073V18.7327C24.7256 19.2812 24.3473 19.5931 23.6002 19.6498V19.6595L23.5341 19.6689H23.222V19.6595C22.8155 19.6407 22.4372 19.5743 22.0969 19.4704C21.955 19.5553 21.7659 19.6122 21.5389 19.6404L21.5483 19.6689H20.9524C20.877 20.3024 20.2717 20.6145 19.1275 20.6145H18.9478V20.6051ZM19.8368 18.1653C19.4206 18.1653 18.9478 18.3071 18.9478 18.6948C18.9478 19.0164 19.2694 19.2149 19.7989 19.2149H20.3284V18.2126C20.1487 18.1841 20.0447 18.1653 19.8368 18.1653ZM24.13 19.962H24.7258V20.6051H24.13V19.962ZM26.5035 16.482H27.1466V17.1345H26.5035V16.482ZM25.1229 20.6051L25.0756 20.5388C25.0659 20.52 25.0377 20.4915 25.0093 20.4442L24.7917 20.1702H25.2645C26.3616 20.1702 26.5035 19.7917 26.5035 19.4704V17.9856L26.6547 17.9762C26.7305 17.9668 26.8817 17.9574 26.9572 17.9477L27.1372 17.9289V19.0636C27.43 19.1582 27.7422 19.2055 28.0732 19.2149C28.7636 19.1961 28.82 18.903 28.82 18.6381V16.5105L29.1421 16.482C29.1894 16.482 29.2367 16.4726 29.2743 16.4726L29.4543 16.4538V18.7327C29.4543 19.2812 29.0757 19.5931 28.3286 19.6498V19.6595L28.2722 19.6689H27.9601V19.6595C27.6667 19.6498 27.3927 19.6122 27.1372 19.5553C27.1184 20.2645 26.4943 20.6145 25.2932 20.6145H25.1232L25.1229 20.6051ZM30.3239 19.6498V16.5105L30.9573 16.4444V19.6498H30.3239Z" fill="#296334"/>
<path d="M13.2931 25.2482V22.7044C13.2931 22.4492 13.2458 22.3546 13.104 22.3261L13 22.3073V22.0709H14.1726C15.298 22.0709 15.5344 22.5437 15.5344 22.9502C15.5344 23.2245 15.3832 23.4418 15.0992 23.5933C15.6384 23.7446 15.7045 24.0849 15.7045 24.3498C15.7045 24.7563 15.468 25.2482 14.3145 25.2482H13.2931ZM13.8701 24.8884C13.9929 24.9169 14.1254 24.9357 14.2484 24.9357C14.5603 24.9357 15.0804 24.8602 15.0804 24.3684C15.0804 23.9049 14.6264 23.8104 14.2484 23.8104H13.8701V24.8884ZM14.2484 23.47C14.5036 23.47 14.9388 23.3566 14.9388 22.9311C14.9388 22.5811 14.5412 22.392 14.1538 22.392C14.0593 22.392 13.955 22.4108 13.8701 22.4204V23.47H14.2484Z" fill="#296334"/>
<path d="M13.2931 25.2482V22.7044C13.2931 22.4492 13.2458 22.3546 13.104 22.3261L13 22.3073V22.0709H14.1726C15.298 22.0709 15.5344 22.5437 15.5344 22.9502C15.5344 23.2245 15.3832 23.4418 15.0992 23.5933C15.6384 23.7446 15.7045 24.0849 15.7045 24.3498C15.7045 24.7563 15.468 25.2482 14.3145 25.2482H13.2931ZM13.8701 24.8884C13.9929 24.9169 14.1254 24.9357 14.2484 24.9357C14.5603 24.9357 15.0804 24.8602 15.0804 24.3684C15.0804 23.9049 14.6264 23.8104 14.2484 23.8104H13.8701V24.8884ZM14.2484 23.47C14.5036 23.47 14.9388 23.3566 14.9388 22.9311C14.9388 22.5811 14.5412 22.392 14.1538 22.392C14.0593 22.392 13.955 22.4108 13.8701 22.4204V23.47H14.2484Z" fill="#296334"/>
<path d="M18.6819 25.2672C18.4455 25.2672 18.0296 25.1818 17.8026 24.6241L17.6986 24.378H16.4596C16.3747 24.5768 16.1287 25.1345 16.1099 25.1724L16.0814 25.2482H15.7031L15.7789 25.0778C15.8074 25.0212 16.091 24.3592 16.4029 23.6594C16.7151 22.9596 17.0555 22.1752 17.0746 22.1464L17.1028 22.0709H17.3486L17.3771 22.1464C17.3959 22.1937 18.37 24.4729 18.4172 24.5672C18.5591 24.9078 18.6631 24.9739 18.8428 24.9927L18.9467 25.0024V25.22L18.8522 25.2388C18.7955 25.267 18.7291 25.267 18.6819 25.267V25.2672ZM17.538 24.0374L17.0743 22.9787L16.6015 24.0377L17.538 24.0374Z" fill="#296334"/>
<path d="M18.6819 25.2672C18.4455 25.2672 18.0296 25.1818 17.8026 24.6241L17.6986 24.378H16.4596C16.3747 24.5768 16.1287 25.1345 16.1099 25.1724L16.0814 25.2482H15.7031L15.7789 25.0778C15.8074 25.0212 16.091 24.3592 16.4029 23.6594C16.7151 22.9596 17.0555 22.1752 17.0746 22.1464L17.1028 22.0709H17.3486L17.3771 22.1464C17.3959 22.1937 18.37 24.4729 18.4172 24.5672C18.5591 24.9078 18.6631 24.9739 18.8428 24.9927L18.9467 25.0024V25.22L18.8522 25.2388C18.7955 25.267 18.7291 25.267 18.6819 25.267V25.2672ZM17.538 24.0374L17.0743 22.9787L16.6015 24.0377L17.538 24.0374Z" fill="#296334"/>
<path d="M21.3579 25.2954L21.3203 25.2482C21.2919 25.2197 20.1662 23.8673 19.4194 22.9784V25.2479H19.079V22.7044C19.079 22.468 19.0127 22.364 18.8426 22.3355L18.748 22.3167V22.0803H18.9939C19.2964 22.0803 19.5234 22.1749 19.6937 22.3828L21.2349 24.2174V22.0897H21.5755V25.3048H21.3579V25.2954Z" fill="#296334"/>
<path d="M21.3579 25.2954L21.3203 25.2482C21.2919 25.2197 20.1662 23.8673 19.4194 22.9784V25.2479H19.079V22.7044C19.079 22.468 19.0127 22.364 18.8426 22.3355L18.748 22.3167V22.0803H18.9939C19.2964 22.0803 19.5234 22.1749 19.6937 22.3828L21.2349 24.2174V22.0897H21.5755V25.3048H21.3579V25.2954Z" fill="#296334"/>
<path d="M24.9244 26.1843C24.1112 26.1747 23.4965 25.8816 22.9767 25.2763C22.3142 25.0778 21.8887 24.4537 21.8887 23.6688C21.8889 22.6855 22.5321 21.9951 23.4398 21.9951C24.357 21.9951 24.9907 22.6855 24.9907 23.6688C24.9907 24.4443 24.5746 25.0684 23.9315 25.2672C24.1018 25.6358 24.5843 25.9101 24.9434 25.9289L25.0568 25.9383V26.0519C25.0568 26.0801 25.0474 26.0992 25.038 26.1086V26.1937L24.9244 26.1843ZM23.4495 22.3167C22.8819 22.3167 22.5227 22.8271 22.5227 23.6594C22.5227 24.4822 22.8725 25.0023 23.4495 25.0023C24.0166 25.0023 24.3761 24.4916 24.3761 23.6594C24.3761 22.8368 24.0169 22.3167 23.4495 22.3167Z" fill="#296334"/>
<path d="M24.9244 26.1843C24.1112 26.1747 23.4965 25.8816 22.9767 25.2763C22.3142 25.0778 21.8887 24.4537 21.8887 23.6688C21.8889 22.6855 22.5321 21.9951 23.4398 21.9951C24.357 21.9951 24.9907 22.6855 24.9907 23.6688C24.9907 24.4443 24.5746 25.0684 23.9315 25.2672C24.1018 25.6358 24.5843 25.9101 24.9434 25.9289L25.0568 25.9383V26.0519C25.0568 26.0801 25.0474 26.0992 25.038 26.1086V26.1937L24.9244 26.1843ZM23.4495 22.3167C22.8819 22.3167 22.5227 22.8271 22.5227 23.6594C22.5227 24.4822 22.8725 25.0023 23.4495 25.0023C24.0166 25.0023 24.3761 24.4916 24.3761 23.6594C24.3761 22.8368 24.0169 22.3167 23.4495 22.3167Z" fill="#296334"/>
<path d="M26.7591 25.2954C25.8604 25.2954 25.4728 24.8699 25.4728 23.8676V22.7044C25.4728 22.4395 25.4255 22.3449 25.2837 22.3261L25.1797 22.3073V22.0709H25.5389C25.9268 22.0709 26.0402 22.2128 26.0402 22.695V23.9998C26.0402 24.6714 26.2672 24.9551 26.8061 24.9551C27.4586 24.9551 27.7044 24.6617 27.7044 23.8676V22.0803H28.0448V23.8676C28.0448 24.7187 27.8275 25.2954 26.7591 25.2954Z" fill="#296334"/>
<path d="M26.7591 25.2954C25.8604 25.2954 25.4728 24.8699 25.4728 23.8676V22.7044C25.4728 22.4395 25.4255 22.3449 25.2837 22.3261L25.1797 22.3073V22.0709H25.5389C25.9268 22.0709 26.0402 22.2128 26.0402 22.695V23.9998C26.0402 24.6714 26.2672 24.9551 26.8061 24.9551C27.4586 24.9551 27.7044 24.6617 27.7044 23.8676V22.0803H28.0448V23.8676C28.0448 24.7187 27.8275 25.2954 26.7591 25.2954Z" fill="#296334"/>
<path d="M28.7072 25.2482V22.7044C28.7072 22.4395 28.6599 22.3546 28.518 22.3261L28.4141 22.3073V22.0803H30.3811C30.7972 22.0803 30.8633 22.3543 30.8633 22.5247V22.8556H30.6269L30.6081 22.7611C30.5796 22.6192 30.5039 22.4207 30.0974 22.4207H29.2842V23.4609H30.5702V23.7918H29.2842V24.9172H30.0498C30.4284 24.9172 30.6269 24.8036 30.7591 24.5389L30.7875 24.4726H31.0524L30.8536 24.9833C30.7875 25.163 30.6363 25.2576 30.4284 25.2576H28.7072V25.2482Z" fill="#296334"/>
<path d="M28.7072 25.2482V22.7044C28.7072 22.4395 28.6599 22.3546 28.518 22.3261L28.4141 22.3073V22.0803H30.3811C30.7972 22.0803 30.8633 22.3543 30.8633 22.5247V22.8556H30.6269L30.6081 22.7611C30.5796 22.6192 30.5039 22.4207 30.0974 22.4207H29.2842V23.4609H30.5702V23.7918H29.2842V24.9172H30.0498C30.4284 24.9172 30.6269 24.8036 30.7591 24.5389L30.7875 24.4726H31.0524L30.8536 24.9833C30.7875 25.163 30.6363 25.2576 30.4284 25.2576H28.7072V25.2482Z" fill="#296334"/>
<path d="M32.3574 25.2482V25.059L32.3762 25.0306C32.3856 25.0118 33.6813 23.2151 34.2581 22.4113H33.2652C32.8584 22.4113 32.783 22.6004 32.7545 22.7517L32.7357 22.8556L32.4993 22.8462V22.5247C32.4993 22.364 32.5654 22.0803 32.9815 22.0803H35.2035C35.2035 22.0803 33.6147 24.3025 33.1797 24.9172H35.0616V25.2576H32.3574V25.2482Z" fill="#296334"/>
<path d="M32.3574 25.2482V25.059L32.3762 25.0306C32.3856 25.0118 33.6813 23.2151 34.2581 22.4113H33.2652C32.8584 22.4113 32.783 22.6004 32.7545 22.7517L32.7357 22.8556L32.4993 22.8462V22.5247C32.4993 22.364 32.5654 22.0803 32.9815 22.0803H35.2035C35.2035 22.0803 33.6147 24.3025 33.1797 24.9172H35.0616V25.2576H32.3574V25.2482Z" fill="#296334"/>
<path d="M36.0074 25.2482C35.6198 25.2482 35.5059 25.1061 35.5059 24.6241V22.0801H36.0826V24.6241C36.0826 24.8887 36.1299 24.9739 36.2718 25.0024L36.376 25.0212V25.2576H36.0074V25.2482Z" fill="#296334"/>
<path d="M36.0074 25.2482C35.6198 25.2482 35.5059 25.1061 35.5059 24.6241V22.0801H36.0826V24.6241C36.0826 24.8887 36.1299 24.9739 36.2718 25.0024L36.376 25.0212V25.2576H36.0074V25.2482Z" fill="#296334"/>
<path d="M37.53 25.2482V22.4113H37.1802C36.7735 22.4113 36.6978 22.6004 36.6695 22.7517L36.6507 22.8462H36.4141V22.5153C36.4141 22.3546 36.4801 22.0709 36.8963 22.0709H39.1846V22.4019H38.1162V25.2388H37.53V25.2482Z" fill="#296334"/>
<path d="M37.53 25.2482V22.4113H37.1802C36.7735 22.4113 36.6978 22.6004 36.6695 22.7517L36.6507 22.8462H36.4141V22.5153C36.4141 22.3546 36.4801 22.0709 36.8963 22.0709H39.1846V22.4019H38.1162V25.2388H37.53V25.2482Z" fill="#296334"/>
<path d="M40.7247 25.3333C39.8073 25.3333 39.1738 24.6429 39.1738 23.6597C39.1736 22.6756 39.8073 21.9855 40.7247 21.9855C41.6419 21.9855 42.2753 22.6759 42.2753 23.6591C42.2753 24.652 41.6325 25.3328 40.7247 25.3328V25.3333ZM40.7247 22.3164C40.1573 22.3164 39.7979 22.8274 39.7979 23.6597C39.7979 24.4822 40.1573 25.0023 40.7247 25.0023C41.2921 25.0023 41.6515 24.4916 41.6515 23.6594C41.6515 22.8368 41.2921 22.3167 40.7247 22.3167V22.3164Z" fill="#296334"/>
<path d="M40.7247 25.3333C39.8073 25.3333 39.1738 24.6429 39.1738 23.6597C39.1736 22.6756 39.8073 21.9855 40.7247 21.9855C41.6419 21.9855 42.2753 22.6759 42.2753 23.6591C42.2753 24.652 41.6325 25.3328 40.7247 25.3328V25.3333ZM40.7247 22.3164C40.1573 22.3164 39.7979 22.8274 39.7979 23.6597C39.7979 24.4822 40.1573 25.0023 40.7247 25.0023C41.2921 25.0023 41.6515 24.4916 41.6515 23.6594C41.6515 22.8368 41.2921 22.3167 40.7247 22.3167V22.3164Z" fill="#296334"/>
<path d="M44.0348 25.2954C43.1268 25.2954 42.7485 24.8699 42.7485 23.8676V22.7044C42.7485 22.4395 42.7013 22.3546 42.5691 22.3261L42.4648 22.3073V22.0709H42.8243C43.2119 22.0709 43.3256 22.2128 43.3256 22.695V23.9998C43.3256 24.6714 43.5523 24.9551 44.0912 24.9551C44.744 24.9551 44.9898 24.6617 44.9898 23.8676V22.0803H45.3302V23.8676C45.3302 24.7187 45.1032 25.2954 44.0348 25.2954Z" fill="#296334"/>
<path d="M44.0348 25.2954C43.1268 25.2954 42.7485 24.8699 42.7485 23.8676V22.7044C42.7485 22.4395 42.7013 22.3546 42.5691 22.3261L42.4648 22.3073V22.0709H42.8243C43.2119 22.0709 43.3256 22.2128 43.3256 22.695V23.9998C43.3256 24.6714 43.5523 24.9551 44.0912 24.9551C44.744 24.9551 44.9898 24.6617 44.9898 23.8676V22.0803H45.3302V23.8676C45.3302 24.7187 45.1032 25.2954 44.0348 25.2954Z" fill="#296334"/>
<path d="M48.2619 25.2954L48.2243 25.2482C48.1958 25.2197 47.0704 23.8673 46.3233 22.9787V25.2482H45.983V22.7044C45.983 22.468 45.9072 22.364 45.7371 22.3355L45.6426 22.3167V22.0803H45.8978C46.2003 22.0803 46.4273 22.1749 46.5976 22.3828L48.1388 24.2174V22.0897H48.4795V25.3048H48.2619V25.2954Z" fill="#296334"/>
<path d="M48.2619 25.2954L48.2243 25.2482C48.1958 25.2197 47.0704 23.8673 46.3233 22.9787V25.2482H45.983V22.7044C45.983 22.468 45.9072 22.364 45.7371 22.3355L45.6426 22.3167V22.0803H45.8978C46.2003 22.0803 46.4273 22.1749 46.5976 22.3828L48.1388 24.2174V22.0897H48.4795V25.3048H48.2619V25.2954Z" fill="#296334"/>
<path d="M51.6858 25.2673C51.4494 25.2673 51.0335 25.1818 50.8065 24.6241L50.7025 24.3781H49.4635C49.3786 24.5769 49.1326 25.1346 49.1138 25.1724L49.0853 25.2388H48.707L48.7828 25.0685C48.8113 25.0024 49.265 23.9716 49.6339 23.1396C49.8703 22.6002 50.0691 22.1556 50.0782 22.1368L50.1067 22.0613H50.3431L50.3716 22.137C50.3904 22.1746 51.062 23.7352 51.4118 24.5578C51.5536 24.8981 51.6576 24.9645 51.8373 24.9833L51.9413 24.9927V25.2103L51.8467 25.2291C51.7994 25.267 51.7427 25.267 51.6858 25.267V25.2673ZM50.551 24.0374L50.0879 22.9787L49.6054 24.0377L50.551 24.0374Z" fill="#296334"/>
<path d="M51.6858 25.2673C51.4494 25.2673 51.0335 25.1818 50.8065 24.6241L50.7025 24.3781H49.4635C49.3786 24.5769 49.1326 25.1346 49.1138 25.1724L49.0853 25.2388H48.707L48.7828 25.0685C48.8113 25.0024 49.265 23.9716 49.6339 23.1396C49.8703 22.6002 50.0691 22.1556 50.0782 22.1368L50.1067 22.0613H50.3431L50.3716 22.137C50.3904 22.1746 51.062 23.7352 51.4118 24.5578C51.5536 24.8981 51.6576 24.9645 51.8373 24.9833L51.9413 24.9927V25.2103L51.8467 25.2291C51.7994 25.267 51.7427 25.267 51.6858 25.267V25.2673ZM50.551 24.0374L50.0879 22.9787L49.6054 24.0377L50.551 24.0374Z" fill="#296334"/>
<defs>
<radialGradient id="paint0_radial_657_33" cx="0" cy="0" r="1" gradientUnits="userSpaceOnUse" gradientTransform="translate(600.934 67.1847) scale(1189.55 1189.57)">
<stop stop-color="#FFEF2A"/>
<stop offset="1" stop-color="#94C549"/>
</radialGradient>
<radialGradient id="paint1_radial_657_33" cx="0" cy="0" r="1" gradientUnits="userSpaceOnUse" gradientTransform="translate(700.086 -598.232) scale(1216.17 1216.21)">
<stop stop-color="#FFEF2A"/>
<stop offset="1" stop-color="#94C549"/>
</radialGradient>
<radialGradient id="paint2_radial_657_33" cx="0" cy="0" r="1" gradientUnits="userSpaceOnUse" gradientTransform="translate(262.772 217.693) scale(355.52 355.527)">
<stop offset="0.3571" stop-color="#FFEF2A"/>
<stop offset="1" stop-color="#709B39"/>
</radialGradient>
</defs>
</svg>
